<svg xmlns="http://www.w3.org/2000/svg" xmlns:xlink="http://www.w3.org/1999/xlink" width="124.021" height="124.834" viewBox="0 0 124.021 124.834">
  <defs>
    <linearGradient id="linear-gradient" x1="0.748" y1="0.148" x2="0.219" y2="0.948" gradientUnits="objectBoundingBox">
      <stop offset="0" stop-color="#ff9085"/>
      <stop offset="1" stop-color="#fb6fbb"/>
    </linearGradient>
    <linearGradient id="linear-gradient-2" x1="0.183" y1="0.06" x2="0.691" y2="0.813" gradientUnits="objectBoundingBox">
      <stop offset="0" stop-color="#ffc444"/>
      <stop offset="0.996" stop-color="#f36f56"/>
    </linearGradient>
    <clipPath id="clip-path">
      <path id="Path_445" data-name="Path 445" d="M1966.695,490.29c-2.416-2.84-5.674-7.584-5.753-13.53-.138-10.373,9.554-12.727,12.42-25.652,2.312-10.424-2.774-14.39,1.557-23,.725-1.441,4.458-9.214,10.52-9.525a9.815,9.815,0,0,1,6.55,2.519c7.486,6.436,6.86,23.93-.349,36.091-4.142,6.987-6.768,7.095-15.236,17.428A70.787,70.787,0,0,0,1966.695,490.29Z" transform="translate(-1960.941 -418.577)" fill="url(#linear-gradient)"/>
    </clipPath>
    <linearGradient id="linear-gradient-4" x1="1.026" y1="-3.984" x2="1.995" y2="-5.215" gradientUnits="objectBoundingBox">
      <stop offset="0.004" stop-color="#e38ddd"/>
      <stop offset="1" stop-color="#9571f6"/>
    </linearGradient>
    <clipPath id="clip-path-2">
      <path id="Path_452" data-name="Path 452" d="M1601.7,696.126a35.377,35.377,0,0,1-1.219-18.976c2.018-8.749,6.489-10.5,10.5-19.85,5.73-13.349-.755-23.019,5.177-27.1a9.524,9.524,0,0,1,10.246.006c8,5.7,5.808,30.523-6.887,40.209-5.741,4.381-10.752,3.861-15.06,9.53C1600.649,684.956,1600.948,691.564,1601.7,696.126Z" transform="translate(-1599.684 -628.708)" fill="url(#linear-gradient-2)"/>
    </clipPath>
    <linearGradient id="linear-gradient-6" x1="0.434" y1="1.819" x2="0.507" y2="0.645" gradientUnits="objectBoundingBox">
      <stop offset="0" stop-color="#444b8c"/>
      <stop offset="0.996" stop-color="#26264f"/>
    </linearGradient>
    <linearGradient id="linear-gradient-7" x1="0.378" y1="0.48" x2="0.132" y2="0.522" gradientUnits="objectBoundingBox">
      <stop offset="0" stop-color="#444b8c"/>
      <stop offset="0.395" stop-color="#383c74"/>
      <stop offset="0.996" stop-color="#26264f"/>
    </linearGradient>
    <linearGradient id="linear-gradient-8" x1="0.788" y1="-0.179" x2="0.128" y2="1.287" xlink:href="#linear-gradient-6"/>
    <linearGradient id="linear-gradient-9" x1="0.71" y1="-0.032" x2="-0.102" y2="1.876" gradientUnits="objectBoundingBox">
      <stop offset="0" stop-color="#aa80f9"/>
      <stop offset="0.996" stop-color="#6165d7"/>
    </linearGradient>
    <linearGradient id="linear-gradient-10" x1="0.782" y1="0.329" x2="-0.103" y2="0.987" xlink:href="#linear-gradient-2"/>
    <linearGradient id="linear-gradient-11" x1="0.416" y1="0.207" x2="0.655" y2="0.651" xlink:href="#linear-gradient-2"/>
    <linearGradient id="linear-gradient-12" x1="-21.407" y1="1.152" x2="-21.407" y2="-0.027" xlink:href="#linear-gradient-2"/>
    <linearGradient id="linear-gradient-13" x1="-22.416" y1="0.734" x2="-22.416" y2="-0.116" xlink:href="#linear-gradient-2"/>
    <linearGradient id="linear-gradient-14" x1="-3.039" y1="0.5" x2="-2.039" y2="0.5" gradientUnits="objectBoundingBox">
      <stop offset="0" stop-color="#311944"/>
      <stop offset="1" stop-color="#893976"/>
    </linearGradient>
    <linearGradient id="linear-gradient-15" x1="-3.071" y1="0.129" x2="-2.35" y2="0.731" xlink:href="#linear-gradient-14"/>
    <linearGradient id="linear-gradient-16" x1="-2.787" y1="0.047" x2="-2.067" y2="0.677" xlink:href="#linear-gradient-14"/>
    <linearGradient id="linear-gradient-17" x1="-7.739" y1="-10.895" x2="-6.8" y2="-9.517" xlink:href="#linear-gradient-2"/>
    <linearGradient id="linear-gradient-18" x1="0.121" y1="0.029" x2="0.601" y2="0.855" xlink:href="#linear-gradient-2"/>
    <linearGradient id="linear-gradient-19" x1="-11.035" y1="-1.343" x2="-10.492" y2="1.115" xlink:href="#linear-gradient-2"/>
    <linearGradient id="linear-gradient-20" x1="-13.121" y1="0.292" x2="-13.868" y2="1.155" xlink:href="#linear-gradient-2"/>
    <linearGradient id="linear-gradient-21" x1="-95.569" y1="-26.207" x2="-99.003" y2="-20.489" xlink:href="#linear-gradient-2"/>
    <linearGradient id="linear-gradient-22" x1="0.018" y1="-1.017" x2="0.749" y2="1.219" xlink:href="#linear-gradient-6"/>
    <linearGradient id="linear-gradient-23" x1="0.555" y1="0.622" x2="1.432" y2="2.129" xlink:href="#linear-gradient-2"/>
    <linearGradient id="linear-gradient-24" x1="0.053" y1="-0.577" x2="0.546" y2="0.805" xlink:href="#linear-gradient-2"/>
  </defs>
  <g id="dashboard" transform="translate(-452.265 -418.577)">
    <g id="Group_166" data-name="Group 166" transform="translate(503.077 418.577)">
      <g id="Group_160" data-name="Group 160" transform="translate(15.998)">
        <g id="Group_159" data-name="Group 159">
          <path id="Path_440" data-name="Path 440" d="M1966.695,490.29c-2.416-2.84-5.674-7.584-5.753-13.53-.138-10.373,9.554-12.727,12.42-25.652,2.312-10.424-2.774-14.39,1.557-23,.725-1.441,4.458-9.214,10.52-9.525a9.815,9.815,0,0,1,6.55,2.519c7.486,6.436,6.86,23.93-.349,36.091-4.142,6.987-6.768,7.095-15.236,17.428A70.787,70.787,0,0,0,1966.695,490.29Z" transform="translate(-1960.941 -418.577)" fill="url(#linear-gradient)"/>
          <g id="Group_158" data-name="Group 158" clip-path="url(#clip-path)">
            <g id="Group_157" data-name="Group 157" transform="translate(4.704 -3.186)" opacity="0.7" style="mix-blend-mode: soft-light;isolation: isolate">
              <path id="Path_441" data-name="Path 441" d="M2069.429,425.918c-2.96-8.482-3.026-15.337-.2-20.373a15.056,15.056,0,0,1,4.6-4.931,16.438,16.438,0,0,0,5.272-5.908,14.261,14.261,0,0,0,1.661-7.622,34.664,34.664,0,0,1,1.272-9.681,36.94,36.94,0,0,1,3.243-8.194,17.551,17.551,0,0,0,2.32-6.92c.559-5.025-.721-10.269-3.805-15.586l.136-.079c3.1,5.346,4.388,10.622,3.825,15.682a17.678,17.678,0,0,1-2.337,6.975,36.791,36.791,0,0,0-3.232,8.163,34.514,34.514,0,0,0-1.266,9.642,14.392,14.392,0,0,1-1.678,7.694,16.574,16.574,0,0,1-5.316,5.959,14.927,14.927,0,0,0-4.562,4.883c-2.807,5-2.737,11.806.208,20.244Z" transform="translate(-2067.158 -346.625)" fill="#fff"/>
              <path id="Path_442" data-name="Path 442" d="M2264.048,484.3l-.023-.1c-.028-.126-2.929-12.613-9.374-14.62l.047-.15c6.217,1.936,9.163,13.423,9.456,14.633a23.787,23.787,0,0,0,10.226-11.406,22.447,22.447,0,0,0,1.786-6.675l.157.01a22.631,22.631,0,0,1-1.8,6.728,23.939,23.939,0,0,1-10.384,11.532Z" transform="translate(-2246.348 -460.693)" fill="#fff"/>
              <path id="Path_443" data-name="Path 443" d="M2212.441,832.591l-.018-.065a33.593,33.593,0,0,0-4.58-9.1,51.784,51.784,0,0,0-3.241-4.285l.119-.1a51.968,51.968,0,0,1,3.251,4.3,33.919,33.919,0,0,1,4.584,9.084,29.043,29.043,0,0,0,20.458-14.618l.138.074a28.365,28.365,0,0,1-12.927,12.246,27.928,27.928,0,0,1-7.718,2.463Z" transform="translate(-2198.516 -796.935)" fill="#fff"/>
              <path id="Path_444" data-name="Path 444" d="M2133.271,1212.866c-.616,0-.955-.03-.964-.031l-.083-.008.012-.082c1.1-7.538-5.525-14.918-5.592-14.991l.116-.106c.067.074,6.7,7.454,5.643,15.036.922.058,9.405.394,19.451-5.94l.084.133a39.23,39.23,0,0,1-13.847,5.524A27.573,27.573,0,0,1,2133.271,1212.866Z" transform="translate(-2124.011 -1159.963)" fill="#fff"/>
            </g>
          </g>
        </g>
      </g>
      <g id="Group_161" data-name="Group 161" transform="translate(28.647 8.531)">
        <path id="Path_446" data-name="Path 446" d="M2246.581,645.716a39.712,39.712,0,0,1,7.821-7.986c6.75-5.165,10.758-4.7,12.944-8.964,2.263-4.415-.962-7,1.834-12.018.235-.422,3.27-5.705,7.624-5.509,3.046.137,5.1,2.882,6.065,4.17,3.743,5,5.39,13.927.757,20.089-4.391,5.842-12.207,6.259-14.694,6.375-4.362.2-5.817-1.052-10.213-.724A24.435,24.435,0,0,0,2246.581,645.716Z" transform="translate(-2246.581 -611.233)" fill="url(#linear-gradient-4)"/>
      </g>
      <g id="Group_165" data-name="Group 165" transform="translate(0 9.305)">
        <g id="Group_164" data-name="Group 164">
          <path id="Path_447" data-name="Path 447" d="M1601.7,696.126a35.377,35.377,0,0,1-1.219-18.976c2.018-8.749,6.489-10.5,10.5-19.85,5.73-13.349-.755-23.019,5.177-27.1a9.524,9.524,0,0,1,10.246.006c8,5.7,5.808,30.523-6.887,40.209-5.741,4.381-10.752,3.861-15.06,9.53C1600.649,684.956,1600.948,691.564,1601.7,696.126Z" transform="translate(-1599.684 -628.708)" fill="url(#linear-gradient-2)"/>
          <g id="Group_163" data-name="Group 163" clip-path="url(#clip-path-2)">
            <g id="Group_162" data-name="Group 162" transform="translate(0.964 -2.396)" style="mix-blend-mode: soft-light;isolation: isolate">
              <path id="Path_448" data-name="Path 448" d="M1621.617,633.1l-.153-.039a34.268,34.268,0,0,1,1.931-5.546c1.836-4.1,3.858-6.347,6.418-9.195a79.32,79.32,0,0,0,5.724-6.95c4.071-5.618,5.333-7.591,6.462-10.762a31.349,31.349,0,0,0,1.488-14.709,30.565,30.565,0,0,0-3.958-11.225l.136-.08a30.729,30.729,0,0,1,3.978,11.282,31.505,31.505,0,0,1-1.5,14.784c-1.135,3.19-2.4,5.169-6.483,10.8a79.547,79.547,0,0,1-5.734,6.963c-2.551,2.838-4.566,5.079-6.391,9.154A34.122,34.122,0,0,0,1621.617,633.1Z" transform="translate(-1621.464 -574.595)" fill="#fff"/>
              <path id="Path_449" data-name="Path 449" d="M1877.818,708.977l0-.13c-.082-4.622-3.037-7.614-5.5-9.31a20.235,20.235,0,0,0-5.391-2.6l.042-.152a20.409,20.409,0,0,1,5.439,2.626c2.471,1.7,5.43,4.691,5.566,9.3a16.835,16.835,0,0,0,4.343-3.867,15.09,15.09,0,0,0,3.045-12.234l.156-.026a15.245,15.245,0,0,1-3.081,12.363,16.676,16.676,0,0,1-4.5,3.968Z" transform="translate(-1856.053 -687.359)" fill="#fff"/>
              <path id="Path_450" data-name="Path 450" d="M1893.532,1084.01a15.645,15.645,0,0,1-5.859-1.141l-.06-.028.016-.064c2.279-8.688-3.506-13.143-3.565-13.188l.095-.126c.059.044,5.9,4.543,3.64,13.288.719.3,7.635,3.047,13.454-1.481l.1.125A12.487,12.487,0,0,1,1893.532,1084.01Z" transform="translate(-1872.436 -1047.548)" fill="#fff"/>
              <path id="Path_451" data-name="Path 451" d="M1812.8,1283.158a10.553,10.553,0,0,1-6.77-2.04l-.042-.038.023-.052c1.05-2.406.771-5.6.351-7.859a28.708,28.708,0,0,0-1.176-4.373l.148-.055a28.82,28.82,0,0,1,1.184,4.4c.421,2.263.7,5.462-.338,7.9.472.389,4.851,3.715,13.021.731l.054.148A18.786,18.786,0,0,1,1812.8,1283.158Z" transform="translate(-1797.052 -1238.001)" fill="#fff"/>
            </g>
          </g>
        </g>
      </g>
    </g>
    <g id="Group_212" data-name="Group 212" transform="translate(452.265 433.852)">
      <g id="Group_167" data-name="Group 167" transform="translate(48.557 74.802)">
        <path id="Path_453" data-name="Path 453" d="M1580.924,2483.385a5.447,5.447,0,0,1-3.611-4.1L1574.629,2466l-22.961.816-2.826,13.839c-.4,1.938,1.189,3.883,3.013,4.6l9.606,3.759a12.486,12.486,0,0,0,5.616.814l20.3-1.737a1.259,1.259,0,0,0,1.139-1.115c.069-.6.485-1.271-.081-1.458Z" transform="translate(-1548.781 -2465.41)" fill="#97a6b7"/>
        <path id="Path_454" data-name="Path 454" d="M1597.859,2469.857a5.4,5.4,0,0,1-3.608-4.049l-2.681-13.118-22.4.806-2.823,13.666a4,4,0,0,0,2.474,4.538l9.6,3.711a12.607,12.607,0,0,0,5.61.8l20.281-1.715a1.251,1.251,0,0,0,.285-2.436Z" transform="translate(-1565.488 -2452.69)" fill="url(#linear-gradient-6)"/>
      </g>
      <g id="Group_168" data-name="Group 168" transform="translate(0 0)">
        <path id="Path_455" data-name="Path 455" d="M456.792,847.735c-2.49.148-4.527-1.467-4.527-3.6v-76.94c0-2.135,2.037-3.783,4.527-3.675l115.15,4.989a3.481,3.481,0,0,1,3.308,3.436v65.437a3.551,3.551,0,0,1-3.308,3.49Z" transform="translate(-452.265 -763.514)" fill="url(#linear-gradient-7)"/>
        <path id="Path_456" data-name="Path 456" d="M480.16,847.735c-2.49.148-4.527-1.467-4.527-3.6v-76.94c0-2.135,2.037-3.783,4.527-3.675l115.151,4.989a3.481,3.481,0,0,1,3.308,3.436v65.437a3.551,3.551,0,0,1-3.308,3.49Z" transform="translate(-474.598 -763.514)" fill="url(#linear-gradient-8)"/>
        <path id="Path_457" data-name="Path 457" d="M640.926,808.785l-115.15-4.737a2.153,2.153,0,0,0-2.413,1.965v76.742a2.112,2.112,0,0,0,2.413,1.925l115.15-6.612A1.9,1.9,0,0,0,642.7,876.2v-65.58A1.858,1.858,0,0,0,640.926,808.785Z" transform="translate(-520.213 -802.25)" fill="#d8dee8" opacity="0.3" style="mix-blend-mode: multiply;isolation: isolate"/>
        <path id="Path_458" data-name="Path 458" d="M557.567,905.255a.832.832,0,0,1-.94-.758V833.181a.841.841,0,0,1,.94-.767l115.151,4.56a.726.726,0,0,1,.693.717v61.148a.735.735,0,0,1-.693.724Z" transform="translate(-552.005 -829.362)" fill="url(#linear-gradient-9)"/>
      </g>
      <path id="Path_459" data-name="Path 459" d="M583.289,836.108c-9.687-5.993-2.921-23.031-13.8-31.591-10.968-8.631-26.4,1.955-34.085-6.983-5.721-6.655.973-14.691-4.489-20.95-8.566-9.815-30.5,3.684-40.57-5.986a13.55,13.55,0,0,1-3.7-6.8l-6.488-.281c-2.49-.108-4.527,1.541-4.527,3.675v76.94c0,2.135,2.037,3.75,4.527,3.6l115.151-6.865a3.551,3.551,0,0,0,3.308-3.49v-1.163C590.973,838.812,586.3,837.97,583.289,836.108Z" transform="translate(-474.598 -763.514)" fill="#fff" opacity="0.6" style="mix-blend-mode: soft-light;isolation: isolate"/>
      <g id="Group_211" data-name="Group 211" transform="translate(14.172 6.515)" opacity="0.8">
        <g id="Group_185" data-name="Group 185">
          <g id="Group_177" data-name="Group 177" transform="translate(0 6.619)">
            <g id="Group_171" data-name="Group 171">
              <path id="Path_463" data-name="Path 463" d="M804.347,1087.147l-32.053.172V1060.1l32.053.735Zm-31.582-.319,30.8-.15v-25.23l-30.8-.685Z" transform="translate(-772.294 -1060.098)" fill="#fff"/>
            </g>
            <g id="Group_172" data-name="Group 172" transform="translate(0 29.728)">
              <path id="Path_464" data-name="Path 464" d="M804.347,1757.724l-32.053,1.17v-27.221l32.053-.264Zm-31.582.663,30.8-1.112v-25.388l-30.8.271Z" transform="translate(-772.294 -1731.409)" fill="#fff"/>
            </g>
            <g id="Group_173" data-name="Group 173" transform="translate(36.61 0.839)">
              <path id="Path_465" data-name="Path 465" d="M1628.393,1105.069l-29.382.16v-26.184l29.382.677Zm-28.911-.313,28.439-.14v-24.3l-28.439-.635Z" transform="translate(-1599.01 -1079.045)" fill="#fff"/>
            </g>
            <g id="Group_174" data-name="Group 174" transform="translate(36.61 29.443)">
              <path id="Path_466" data-name="Path 466" d="M1628.393,1750.327l-29.382,1.082v-26.184l29.382-.245Zm-28.911.593,28.439-1.031v-24.45l-28.439.251Z" transform="translate(-1599.01 -1724.98)" fill="#fff"/>
            </g>
            <g id="Group_175" data-name="Group 175" transform="translate(70.234 1.613)">
              <path id="Path_467" data-name="Path 467" d="M2385.81,1121.609l-27.5.15V1096.53l27.5.632Zm-26.869-.307,26.4-.129v-23.434l-26.4-.59Z" transform="translate(-2358.313 -1096.53)" fill="#fff"/>
            </g>
            <g id="Group_176" data-name="Group 176" transform="translate(70.234 29.181)">
              <path id="Path_468" data-name="Path 468" d="M2385.81,1743.494l-27.5,1.011v-25.228l27.5-.229Zm-26.869.535,26.4-.957v-23.581l-26.4.233Z" transform="translate(-2358.313 -1719.048)" fill="#fff"/>
            </g>
          </g>
          <g id="Group_178" data-name="Group 178" transform="translate(3.271 29.1)">
            <path id="Path_469" data-name="Path 469" d="M870.756,1569.03a1.326,1.326,0,0,1-1.371,1.271l-21.777.07a1.37,1.37,0,0,1-1.44-1.295h0a1.377,1.377,0,0,1,1.44-1.3l21.777-.01a1.321,1.321,0,0,1,1.371,1.266Z" transform="translate(-846.169 -1567.765)" fill="#fff"/>
          </g>
          <g id="Group_179" data-name="Group 179" transform="translate(39.851 29.083)">
            <path id="Path_470" data-name="Path 470" d="M1694.955,1568.6a1.25,1.25,0,0,1-1.27,1.223l-20.16.065a1.288,1.288,0,0,1-1.332-1.246h0a1.294,1.294,0,0,1,1.332-1.25l20.16-.01a1.244,1.244,0,0,1,1.27,1.218Z" transform="translate(-1672.193 -1567.384)" fill="#fff"/>
          </g>
          <g id="Group_180" data-name="Group 180" transform="translate(73.73 29.068)">
            <path id="Path_471" data-name="Path 471" d="M2458.385,1568.205a1.182,1.182,0,0,1-1.18,1.179l-18.717.06a1.215,1.215,0,0,1-1.235-1.2h0a1.22,1.22,0,0,1,1.235-1.2l18.717-.009a1.177,1.177,0,0,1,1.18,1.174Z" transform="translate(-2437.253 -1567.031)" fill="#fff"/>
          </g>
          <g id="Group_181" data-name="Group 181" transform="translate(3.271 57.312)">
            <path id="Path_472" data-name="Path 472" d="M870.756,2206.058a1.376,1.376,0,0,1-1.371,1.312l-21.777.729a1.322,1.322,0,0,1-1.44-1.251h0a1.428,1.428,0,0,1,1.44-1.343l21.777-.67a1.273,1.273,0,0,1,1.371,1.224Z" transform="translate(-846.169 -2204.833)" fill="#fff"/>
          </g>
          <g id="Group_182" data-name="Group 182" transform="translate(39.851 56.239)">
            <path id="Path_473" data-name="Path 473" d="M1694.955,2181.8a1.3,1.3,0,0,1-1.27,1.261l-20.16.675a1.241,1.241,0,0,1-1.332-1.205h0a1.342,1.342,0,0,1,1.332-1.291l20.16-.62a1.2,1.2,0,0,1,1.27,1.179Z" transform="translate(-1672.193 -2180.615)" fill="#fff"/>
          </g>
          <g id="Group_183" data-name="Group 183" transform="translate(73.73 55.244)">
            <path id="Path_474" data-name="Path 474" d="M2458.385,2159.282a1.227,1.227,0,0,1-1.18,1.215l-18.717.626a1.171,1.171,0,0,1-1.235-1.162h0a1.267,1.267,0,0,1,1.235-1.242l18.717-.575a1.135,1.135,0,0,1,1.18,1.138Z" transform="translate(-2437.253 -2158.143)" fill="#fff"/>
          </g>
          <g id="Group_184" data-name="Group 184" transform="translate(0.314)">
            <path id="Path_475" data-name="Path 475" d="M816.629,913.261a1.586,1.586,0,0,1-1.693,1.515l-33.7-.894a1.817,1.817,0,0,1-1.845-1.67V912.2a1.689,1.689,0,0,1,1.835-1.568l33.7,1.009a1.712,1.712,0,0,1,1.708,1.61Z" transform="translate(-779.391 -910.628)" fill="#fff"/>
          </g>
        </g>
      </g>
    </g>
    <g id="Group_217" data-name="Group 217" transform="translate(521.591 466.401)">
      <g id="Group_216" data-name="Group 216" transform="translate(0 0)">
        <g id="Group_215" data-name="Group 215">
          <path id="Path_503" data-name="Path 503" d="M2034.965,1502.887a3.262,3.262,0,0,0,.529-1.67,3.188,3.188,0,0,0-1.262-2.687c-.083.037.023.491.081.692.123.419.255.459.244.652-.023.4-.594.411-.9.936a1.417,1.417,0,0,0,0,1.344A1.6,1.6,0,0,0,2034.965,1502.887Z" transform="translate(-2032.796 -1498.527)" fill="url(#linear-gradient-10)"/>
          <path id="Path_504" data-name="Path 504" d="M2611.366,2285.144l-.442-1.519,1.844-1.366,1.149-.43-.681,2.127Z" transform="translate(-2584.657 -2247.142)" fill="url(#linear-gradient-11)"/>
          <path id="Path_505" data-name="Path 505" d="M2569.366,3042.245s1.009,2.536.743,3.661a11.305,11.305,0,0,0,1.783-.159,12.269,12.269,0,0,1-.52-1.73,17.067,17.067,0,0,1-.106-2.027Z" transform="translate(-2544.939 -2973.641)" fill="url(#linear-gradient-12)"/>
          <path id="Path_506" data-name="Path 506" d="M2248.714,3181.444a.8.8,0,0,1,.191.466.765.765,0,0,1-.058.313c-.172.452-.442.512-.733.992-.178.293-.145.382-.307.515a1.073,1.073,0,0,1-.7.187,12.417,12.417,0,0,1-1.62-.092q.542-.7,1.156-1.418.269-.315.537-.615l1.064-.359Z" transform="translate(-2235.402 -3106.907)" fill="#26264f"/>
          <path id="Path_507" data-name="Path 507" d="M2254.788,3065.071s-.608,3.173.166,4.062c.659.888-.318.254-.318.254l-1.168,1.019-.7,1.21a20.02,20.02,0,0,0,.473-4.338c-.172-1.233-.258-2.064-.258-2.064Z" transform="translate(-2242.36 -2995.699)" fill="url(#linear-gradient-13)"/>
          <path id="Path_508" data-name="Path 508" d="M2211.355,2267.763s-1.634,1.461-1.634,7.481.774,19.089.774,19.089l1.239,9.357a8.2,8.2,0,0,0,2.144-.212c.773-3.525,2.035-9.489,1.433-14.477-.258-5.417,2.149-12.21,2.149-12.21s2.064,6.879,3.526,10.318,4.245,14.214,4.5,14.988a4.239,4.239,0,0,0,2.441-.3s-1.1-11.6-2.128-15.981-.947-14.961-2.666-17.971C2219.267,2266.3,2211.355,2267.763,2211.355,2267.763Z" transform="translate(-2201.22 -2233.102)" fill="url(#linear-gradient-14)"/>
          <path id="Path_509" data-name="Path 509" d="M2211.354,2267.763s-1.634,1.462-1.634,7.481.774,19.089.774,19.089l1.238,9.357a8.188,8.188,0,0,0,2.144-.212c.774-3.525,2.035-9.489,1.433-14.477-.258-5.417,2.149-12.21,2.149-12.21s2.064,6.879,3.526,10.319,4.245,14.214,4.5,14.988a4.232,4.232,0,0,0,2.441-.3s-1.1-11.6-2.128-15.981-.946-14.961-2.666-17.971C2219.265,2266.3,2211.354,2267.763,2211.354,2267.763Z" transform="translate(-2201.22 -2233.101)" fill="url(#linear-gradient-15)"/>
          <path id="Path_510" data-name="Path 510" d="M2219.842,2278.792a10.847,10.847,0,0,0,4.075,7.387c2.037,1.528.509,4.839,1.273,7.386.255.765,1.019,1.528,1.274,2.293.948,1.9.063,4.215.492,6.222a2.728,2.728,0,0,0,.972-.279s-1.1-11.6-2.128-15.981-.946-14.961-2.666-17.971c-3.869-1.547-11.78-.086-11.78-.086s-1.634,1.462-1.634,7.481c0,.488.005,1.024.015,1.594a6.193,6.193,0,0,0,7.3.171,1.009,1.009,0,0,1,.409-.185l.011-.032.009.029C2218.442,2276.643,2219.62,2277.908,2219.842,2278.792Z" transform="translate(-2201.22 -2233.101)" opacity="0.25" fill="url(#linear-gradient-16)" style="mix-blend-mode: multiply;isolation: isolate"/>
          <g id="Group_213" data-name="Group 213" transform="translate(24.673 71.349)">
            <path id="Path_511" data-name="Path 511" d="M2575.155,3152.165s-.252,0-.231.325-.113,1.441,1.164,1.494a3.9,3.9,0,0,0,1.516-.091,10.314,10.314,0,0,0-.335-1.068l-.408-.523-1.1-.115Z" transform="translate(-2574.923 -3150.285)" fill="#26264f"/>
            <path id="Path_512" data-name="Path 512" d="M2578.92,3112.711a4.092,4.092,0,0,0-.33-1.035c-.226-.508-.041-.7-.256-1.16a1.386,1.386,0,0,0-.3-.461,1.321,1.321,0,0,0-.9-.343.906.906,0,0,0-.424.1.988.988,0,0,0-.382.4,4.466,4.466,0,0,0-.308.913,2.337,2.337,0,0,0-.081.31,2.4,2.4,0,0,0-.034.279,5.971,5.971,0,0,1,1.9.251,1.067,1.067,0,0,1,.408.869c0,.335.168.492.335.482A.551.551,0,0,0,2578.92,3112.711Z" transform="translate(-2575.855 -3109.711)" fill="#444b8c"/>
          </g>
          <path id="Path_513" data-name="Path 513" d="M2244.644,3146.725c.288,0,.5.234.658.786s.923,1.04.032.923-1.539,1.146-1.858,1.613-1.173.882-1.151.426.4-.67.5-1.137S2243.988,3146.715,2244.644,3146.725Z" transform="translate(-2232.38 -3073.737)" fill="#444b8c"/>
          <path id="Path_514" data-name="Path 514" d="M2396.931,1850.279a9.681,9.681,0,0,0-.6-7.975,9.5,9.5,0,0,0-5.2-3.953c-2.624-.775-3.939.221-4.767-.7-1.405-1.555.186-6.85,3.264-7.911,3.47-1.2,7.632,3.4,9.319,6.422a13.921,13.921,0,0,1,1.54,8.711,13.6,13.6,0,0,1-1.679,4.7Z" transform="translate(-2369.546 -1814.891)" fill="url(#linear-gradient-17)"/>
          <path id="Path_515" data-name="Path 515" d="M2182.789,1816.086c-3.1-.124-5.486-.075-6.835,1.273-1.425,1.424.015,3.032-.295,6.757-.474,5.7-4.108,7.1-4.382,12.883a14.78,14.78,0,0,0,.494,4.5,15.559,15.559,0,0,0,4.03,3.568c2.8,1.706,4.43,1.408,8.456,2.51,6.587,1.8,7.172,3.949,10.438,3.4,3.3-.553,6.2-3.33,5.846-4.856-.209-.914-1.54-.655-3.072-2.048-1.974-1.8-1.213-3.51-2.714-5.439-2.156-2.771-5.16-1.077-7-3.479-1.858-2.43-1.121-7.218.445-9.827,1.023-1.7,1.462-3.7,2.333-5.49a1.243,1.243,0,0,0,.119-.7c-.141-1.164-2.082-1.8-3.551-2.258A17.527,17.527,0,0,0,2182.789,1816.086Z" transform="translate(-2164.465 -1801.981)" fill="url(#linear-gradient-18)"/>
          <path id="Path_516" data-name="Path 516" d="M2372.647,1810.1l.611-.188s.16.827,2.124.93a2.935,2.935,0,0,0,1.8-.61l.418.3a3.211,3.211,0,0,1-2.372,1.115A2.922,2.922,0,0,1,2372.647,1810.1Z" transform="translate(-2356.932 -1796.125)" fill="url(#linear-gradient-19)"/>
          <g id="Group_214" data-name="Group 214" transform="translate(16.3 8.289)">
            <path id="Path_517" data-name="Path 517" d="M2386.5,1708.181a2.616,2.616,0,0,1,.992-1.615c.656-.521.79-.574,1.015-.617l.308-.047h.034a3.082,3.082,0,0,1,.818.291c.313.22.083,1.782-.868,3.724l-.112.494c.829.145,1.033.3,1.04.414.014.259-.893.588-1.733.61-1.055.027-2.174-.427-2.153-.765.009-.137.208-.306.973-.472l.359-.5A2.3,2.3,0,0,1,2386.5,1708.181Z" transform="translate(-2385.845 -1705.008)" fill="url(#linear-gradient-20)"/>
            <path id="Path_518" data-name="Path 518" d="M2419.59,1748.843c.239-.143.421.164.309.433a.531.531,0,0,1-.721.277C2418.949,1749.392,2419.269,1749.035,2419.59,1748.843Z" transform="translate(-2417.628 -1746.012)" fill="url(#linear-gradient-21)"/>
            <path id="Path_519" data-name="Path 519" d="M2437.937,1688.531c-3.148-3.415-10.472-2.479-14.534.264-1.887,1.275-2.856,2.78-5.086,2.907a7.28,7.28,0,0,1-5.814-2.378c-.179-.231-.9-1.2-1.969-2.426a2.889,2.889,0,0,0-1.676-1.16,1.215,1.215,0,0,0-1.524,1.559c.058.242.134.268.123.426-.03.445-.841.639-.8.863.032.16.454.1.527.3.079.22-.384.41-.583.964a2.331,2.331,0,0,0-.69,1.7,7.574,7.574,0,0,0,.235,2.965c1.115,3.6,1.913,6.18,3.844,7.619,2.557,1.905,4.859.146,11.362-.132,8.906-.381,11.126,2.638,14.327.573C2439.678,1700,2441.2,1692.077,2437.937,1688.531Z" transform="translate(-2404.979 -1685.705)" fill="url(#linear-gradient-22)"/>
          </g>
          <path id="Path_520" data-name="Path 520" d="M2020.308,1588.941a8.926,8.926,0,0,0,7.618,10.029c2.7.409,3.872-.757,4.817.037,1.6,1.348.752,6.812-2.153,8.283-3.274,1.659-8.026-2.326-10.109-5.087a13.923,13.923,0,0,1-2.717-8.418,13.591,13.591,0,0,1,1.021-4.887,2.413,2.413,0,0,1,1.522.043Z" transform="translate(-2017.762 -1584.798)" fill="url(#linear-gradient-23)"/>
          <path id="Path_521" data-name="Path 521" d="M2194.794,2152.94c-.791-.812.08-2.449-1.089-3.667-1.086-1.13-2.315-.216-4.063-1.189-2.242-1.247-1.624-3.529-3.765-4.757-1.54-.882-2.264.066-4.657-.4a9.693,9.693,0,0,1-6.739-5.053,8.689,8.689,0,0,1-.866-3.606,14.05,14.05,0,0,0-2.336,6.866,14.785,14.785,0,0,0,.494,4.5,15.55,15.55,0,0,0,4.03,3.567c2.8,1.706,4.43,1.408,8.456,2.51,6.587,1.8,7.172,3.949,10.438,3.4a8.844,8.844,0,0,0,5.086-2.878C2196.738,2153.6,2195.37,2153.53,2194.794,2152.94Z" transform="translate(-2164.465 -2106.119)" opacity="0.3" fill="url(#linear-gradient-24)" style="mix-blend-mode: multiply;isolation: isolate"/>
        </g>
      </g>
    </g>
  </g>
</svg>
