<svg xmlns="http://www.w3.org/2000/svg" xmlns:xlink="http://www.w3.org/1999/xlink" width="112.712" height="124.834" viewBox="0 0 112.712 124.834">
  <defs>
    <linearGradient id="linear-gradient" x1="0.709" y1="0.119" x2="0.198" y2="1.035" gradientUnits="objectBoundingBox">
      <stop offset="0" stop-color="#aa80f9"/>
      <stop offset="0.996" stop-color="#6165d7"/>
    </linearGradient>
    <clipPath id="clip-path">
      <path id="Path_287" data-name="Path 287" d="M1215.525,254.665c-6.453-1.07-12.921-29.251-1.41-40.911,4.8-4.865,10.311-4.4,14.177-11.093,3.45-5.976.591-8.992,3.245-15.914,3.731-9.733,15.09-18.652,23.124-15.982a12.664,12.664,0,0,1,8.119,11.005c.193,4.158-3.938,7.422-2.969,8.472.8.862,3.3-1.369,4.866-.5,2.314,1.283,2.35,9.169-1.293,14.965-6.237,9.923-19.288,7.408-21.55,15.057-1.442,4.876,3.367,7.567,1.38,12.479-1.748,4.322-6.267,4.209-13.047,8.528C1219.545,247.539,1218.984,255.239,1215.525,254.665Z" transform="translate(-1207.78 -170.286)"/>
    </clipPath>
    <linearGradient id="linear-gradient-2" x1="0.661" y1="0.338" x2="0.128" y2="0.95" gradientUnits="objectBoundingBox">
      <stop offset="0.004" stop-color="#e38ddd"/>
      <stop offset="1" stop-color="#9571f6"/>
    </linearGradient>
    <clipPath id="clip-path-2">
      <path id="Path_294" data-name="Path 294" d="M1405.12,1033.855a91.347,91.347,0,0,1,4.914-28.913c1.7-4.844,4.558-11.5,8.292-11.588,1.789-.041,2.47,1.459,4.356,1.334,3.561-.234,4.716-5.815,7.728-9.39,5.152-6.116,18-9.046,25.407-3.1,8.918,7.162,6.233,24.215-.31,28.2-3.876,2.358-9.416.315-10.225,2.479s4.638,4.672,4.236,8.365c-.416,3.823-6.782,5.951-7.167,6.075-7.693,2.482-12.121-2.847-20-2.666C1418.082,1024.746,1412.157,1026.48,1405.12,1033.855Z" transform="translate(-1405.12 -978.954)"/>
    </clipPath>
    <linearGradient id="linear-gradient-3" x1="-0.402" y1="0.553" x2="0.417" y2="0.514" gradientUnits="objectBoundingBox">
      <stop offset="0" stop-color="#ab316d"/>
      <stop offset="1" stop-color="#792d3d"/>
    </linearGradient>
    <linearGradient id="linear-gradient-4" y1="0.5" x2="1" y2="0.5" gradientUnits="objectBoundingBox">
      <stop offset="0" stop-color="#ff9085"/>
      <stop offset="1" stop-color="#fb6fbb"/>
    </linearGradient>
    <linearGradient id="linear-gradient-6" x1="0.372" y1="0.438" x2="0.975" y2="1.516" xlink:href="#linear-gradient-4"/>
    <linearGradient id="linear-gradient-7" x1="0.281" y1="0.33" x2="0.838" y2="1.577" xlink:href="#linear-gradient-4"/>
    <linearGradient id="linear-gradient-8" x1="0.618" y1="-0.27" x2="0.232" y2="2.961" xlink:href="#linear-gradient-3"/>
    <linearGradient id="linear-gradient-9" x1="5.839" y1="-8.957" x2="-2.105" y2="5.114" xlink:href="#linear-gradient-3"/>
    <linearGradient id="linear-gradient-10" x1="4.325" y1="-6.275" x2="-3.619" y2="7.796" xlink:href="#linear-gradient-3"/>
    <linearGradient id="linear-gradient-11" x1="4.927" y1="0.061" x2="3.961" y2="1.175" gradientUnits="objectBoundingBox">
      <stop offset="0" stop-color="#ffc444"/>
      <stop offset="0.314" stop-color="#fba94a"/>
      <stop offset="0.996" stop-color="#f36f56"/>
    </linearGradient>
    <linearGradient id="linear-gradient-12" x1="4.114" y1="0.072" x2="2.942" y2="1.087" xlink:href="#linear-gradient-11"/>
    <linearGradient id="linear-gradient-13" x1="9.92" y1="0.5" x2="10.92" y2="0.5" gradientUnits="objectBoundingBox">
      <stop offset="0" stop-color="#311944"/>
      <stop offset="1" stop-color="#6b3976"/>
    </linearGradient>
    <linearGradient id="linear-gradient-14" x1="60.156" y1="1.929" x2="68.318" y2="5.284" xlink:href="#linear-gradient-3"/>
    <linearGradient id="linear-gradient-15" x1="4.476" y1="0.686" x2="5.12" y2="0.525" gradientUnits="objectBoundingBox">
      <stop offset="0" stop-color="#40447e"/>
      <stop offset="0.996" stop-color="#3c3b6b"/>
    </linearGradient>
    <linearGradient id="linear-gradient-17" x1="5.588" y1="0.177" x2="6.5" y2="0.641" xlink:href="#linear-gradient"/>
    <linearGradient id="linear-gradient-18" x1="18.706" y1="1.888" x2="18.602" y2="4.82" xlink:href="#linear-gradient-3"/>
    <linearGradient id="linear-gradient-19" x1="4.459" y1="0.574" x2="4.763" y2="0.913" xlink:href="#linear-gradient-15"/>
    <linearGradient id="linear-gradient-20" x1="7.383" y1="0.256" x2="7.788" y2="0.624" xlink:href="#linear-gradient-15"/>
    <linearGradient id="linear-gradient-21" x1="4.195" y1="0.32" x2="5.39" y2="0.854" xlink:href="#linear-gradient"/>
    <linearGradient id="linear-gradient-22" x1="-10.102" y1="-23.517" x2="-10.391" y2="-23.043" gradientUnits="objectBoundingBox">
      <stop offset="0" stop-color="#ffc444"/>
      <stop offset="0.996" stop-color="#f36f56"/>
    </linearGradient>
    <linearGradient id="linear-gradient-23" x1="-11.359" y1="-23.91" x2="-9.728" y2="-23.91" xlink:href="#linear-gradient-22"/>
    <linearGradient id="linear-gradient-24" x1="-24.563" y1="-42.429" x2="-22.698" y2="-42.429" gradientUnits="objectBoundingBox">
      <stop offset="0" stop-color="#311944"/>
      <stop offset="1" stop-color="#a03976"/>
    </linearGradient>
    <linearGradient id="linear-gradient-25" x1="-9.096" y1="4.445" x2="-9.025" y2="2.95" gradientUnits="objectBoundingBox">
      <stop offset="0" stop-color="#311944"/>
      <stop offset="1" stop-color="#893976"/>
    </linearGradient>
    <linearGradient id="linear-gradient-26" x1="-10.616" y1="5.532" x2="-10.68" y2="3.647" xlink:href="#linear-gradient-24"/>
    <linearGradient id="linear-gradient-27" x1="4.817" y1="0.268" x2="6.234" y2="0.854" xlink:href="#linear-gradient"/>
    <linearGradient id="linear-gradient-28" x1="6.21" y1="0.431" x2="7.157" y2="0.917" xlink:href="#linear-gradient"/>
    <linearGradient id="linear-gradient-29" x1="-11.632" y1="0.155" x2="-11.355" y2="0.332" xlink:href="#linear-gradient"/>
    <linearGradient id="linear-gradient-30" x1="-11.313" y1="0.5" x2="-10.313" y2="0.5" xlink:href="#linear-gradient"/>
    <linearGradient id="linear-gradient-31" x1="-26.992" y1="0.5" x2="-25.993" y2="0.5" xlink:href="#linear-gradient-15"/>
    <linearGradient id="linear-gradient-32" x1="-0.925" y1="0.155" x2="-0.648" y2="0.332" xlink:href="#linear-gradient"/>
    <linearGradient id="linear-gradient-33" x1="-0.606" y1="0.5" x2="0.394" y2="0.5" xlink:href="#linear-gradient"/>
    <linearGradient id="linear-gradient-34" x1="-1.446" y1="0.5" x2="-0.446" y2="0.5" xlink:href="#linear-gradient-15"/>
    <linearGradient id="linear-gradient-35" x1="3.829" y1="0.5" x2="4.829" y2="0.5" xlink:href="#linear-gradient-15"/>
    <linearGradient id="linear-gradient-36" x1="-2.238" y1="0.155" x2="-1.961" y2="0.332" xlink:href="#linear-gradient"/>
    <linearGradient id="linear-gradient-37" x1="-1.919" y1="0.5" x2="-0.919" y2="0.5" xlink:href="#linear-gradient"/>
    <linearGradient id="linear-gradient-38" x1="-4.579" y1="0.5" x2="-3.58" y2="0.5" xlink:href="#linear-gradient-15"/>
    <linearGradient id="linear-gradient-39" x1="7.032" y1="0.155" x2="7.309" y2="0.332" xlink:href="#linear-gradient"/>
    <linearGradient id="linear-gradient-40" x1="7.351" y1="0.5" x2="8.351" y2="0.5" xlink:href="#linear-gradient"/>
    <linearGradient id="linear-gradient-41" x1="17.538" y1="0.5" x2="18.538" y2="0.5" xlink:href="#linear-gradient-15"/>
    <linearGradient id="linear-gradient-42" x1="14.992" y1="-0.743" x2="14.526" y2="0.406" xlink:href="#linear-gradient-24"/>
  </defs>
  <g id="e-commerce" transform="translate(-16.937 -170.28)">
    <g id="Group_106" data-name="Group 106" transform="translate(64.458 170.28)">
      <g id="Group_105" data-name="Group 105" transform="translate(0 0)">
        <path id="Path_282" data-name="Path 282" d="M1215.525,254.665c-6.453-1.07-12.921-29.251-1.41-40.911,4.8-4.865,10.311-4.4,14.177-11.093,3.45-5.976.591-8.992,3.245-15.914,3.731-9.733,15.09-18.652,23.124-15.982a12.664,12.664,0,0,1,8.119,11.005c.193,4.158-3.938,7.422-2.969,8.472.8.862,3.3-1.369,4.866-.5,2.314,1.283,2.35,9.169-1.293,14.965-6.237,9.923-19.288,7.408-21.55,15.057-1.442,4.876,3.367,7.567,1.38,12.479-1.748,4.322-6.267,4.209-13.047,8.528C1219.545,247.539,1218.984,255.239,1215.525,254.665Z" transform="translate(-1207.78 -170.286)" fill="url(#linear-gradient)"/>
        <g id="Group_104" data-name="Group 104" opacity="0.5" clip-path="url(#clip-path)">
          <path id="Path_283" data-name="Path 283" d="M1382.246,97.931a.327.327,0,0,1-.268-.539,14.09,14.09,0,0,0,.069-1.593c.073-4.212.266-15.4,6.242-31.939,7.516-20.8,21.27-42.25,40.879-63.752a.327.327,0,0,1,.483.44c-21.068,23.1-46.314,58.381-46.951,95.262-.029,1.668-.034,1.969-.352,2.1A.317.317,0,0,1,1382.246,97.931Z" transform="translate(-1374.136 -7.593)" fill="#fff"/>
          <path id="Path_284" data-name="Path 284" d="M1762.087,685.581a.327.327,0,0,1-.059-.65c14.751-1.733,23.96-4.824,29.087-7.112,5.552-2.478,7.644-4.571,7.665-4.592a.327.327,0,0,1,.467.457c-.086.088-2.166,2.18-7.8,4.7-5.173,2.316-14.462,5.444-29.338,7.191Z" transform="translate(-1737.042 -650.71)" fill="#fff"/>
          <path id="Path_285" data-name="Path 285" d="M1854.463,51.935a.323.323,0,0,1-.2-.051c-3.42-2.194-4.958-7.383-4.57-15.424a69.1,69.1,0,0,1,1.583-11.349.327.327,0,1,1,.635.153c-.051.211-5,21.127,2.706,26.07a.327.327,0,0,1-.156.6Z" transform="translate(-1821.021 -31.343)" fill="#fff"/>
          <path id="Path_286" data-name="Path 286" d="M1377.663,962.94a.326.326,0,0,1-.261-.1c-4.357-4.719-5.457-11.513-5.613-16.381a44.945,44.945,0,0,1,.708-9.5.327.327,0,0,1,.64.134,44.273,44.273,0,0,0-.694,9.363c.153,4.752,1.221,11.375,5.439,15.944a.326.326,0,0,1-.218.547Z" transform="translate(-1364.456 -902.524)" fill="#fff"/>
        </g>
      </g>
    </g>
    <g id="Group_110" data-name="Group 110" transform="translate(73.256 206.333)">
      <g id="Group_109" data-name="Group 109" transform="translate(0 0)">
        <path id="Path_288" data-name="Path 288" d="M1405.12,1033.855a91.347,91.347,0,0,1,4.914-28.913c1.7-4.844,4.558-11.5,8.292-11.588,1.789-.041,2.47,1.459,4.356,1.334,3.561-.234,4.716-5.815,7.728-9.39,5.152-6.116,18-9.046,25.407-3.1,8.918,7.162,6.233,24.215-.31,28.2-3.876,2.358-9.416.315-10.225,2.479s4.638,4.672,4.236,8.365c-.416,3.823-6.782,5.951-7.167,6.075-7.693,2.482-12.121-2.847-20-2.666C1418.082,1024.746,1412.157,1026.48,1405.12,1033.855Z" transform="translate(-1405.12 -978.954)" fill="url(#linear-gradient-2)"/>
        <g id="Group_108" data-name="Group 108" clip-path="url(#clip-path-2)">
          <g id="Group_107" data-name="Group 107" transform="translate(-3.667 2.18)">
            <path id="Path_289" data-name="Path 289" d="M1322.88,1172.572l.193.051c7.805-29.749,32.415-51.643,65.83-58.567l-.041-.2a92.546,92.546,0,0,0-41.642,20.025A76.579,76.579,0,0,0,1322.88,1172.572Z" transform="translate(-1322.88 -1110.026)" fill="#fcfdfe"/>
            <path id="Path_290" data-name="Path 290" d="M1334.42,1406.718c4.135,7.326,6.82,20.422,5.986,29.195l.2.019c.838-8.807-1.858-21.956-6.01-29.312Z" transform="translate(-1333.906 -1389.733)" fill="#fcfdfe"/>
            <path id="Path_291" data-name="Path 291" d="M1358.75,2116.581l.172.1c2.345-3.935,6.589-6.533,12.614-7.723a52.112,52.112,0,0,1,15.619-.323l.022-.2a52.345,52.345,0,0,0-15.68.325C1365.413,2109.965,1361.125,2112.6,1358.75,2116.581Z" transform="translate(-1357.151 -2059.857)" fill="#fcfdfe"/>
            <path id="Path_292" data-name="Path 292" d="M1906.35,1050.379l.167.111c4.8-7.19,4.656-16.28,3.689-22.64l-.2.03C1910.969,1034.205,1911.116,1043.242,1906.35,1050.379Z" transform="translate(-1880.337 -1027.85)" fill="#fcfdfe"/>
            <path id="Path_293" data-name="Path 293" d="M2279.09,1273.377l.053.193c9.389-2.591,18.877,1.216,23.7,3.716l.092-.178C2298.086,1274.6,2288.545,1270.769,2279.09,1273.377Z" transform="translate(-2236.459 -1261.596)" fill="#fcfdfe"/>
          </g>
        </g>
      </g>
    </g>
    <g id="Group_114" data-name="Group 114" transform="translate(24.371 173.09)">
      <path id="Path_295" data-name="Path 295" d="M736.593,266.353a.859.859,0,0,1-.829-.81,49.8,49.8,0,0,0-7.03-22c-3.37-5.284-7.381-8.438-10.733-8.438h-.011c-12.208.025-14.762,30.13-14.786,30.435a.853.853,0,0,1-.9.815.878.878,0,0,1-.759-.968c.1-1.309,2.718-32.043,16.444-32.072H718c3.96,0,8.372,3.359,12.108,9.217a51.7,51.7,0,0,1,7.314,22.846.881.881,0,0,1-.751.976C736.646,266.352,736.62,266.353,736.593,266.353Z" transform="translate(-684.022 -233.31)" fill="url(#linear-gradient-3)"/>
      <path id="Path_296" data-name="Path 296" d="M310.349,941.651l16.071,8.739,9.737-32.094L320.113,875.27l-4.549,1.2-6.9,61.793A3.415,3.415,0,0,0,310.349,941.651Z" transform="translate(-308.638 -846.649)" fill="url(#linear-gradient-4)"/>
      <path id="Path_297" data-name="Path 297" d="M495.361,918.3,479.316,875.27l-2.684.707a100.628,100.628,0,0,0,.044,13.915c1.075,14.649,4.647,18.726,2.917,28.945-1.439,8.5-4.581,9.651-4.306,15.367.3,6.227,4.342,11.441,9.15,15.541l1.186.645Z" transform="translate(-467.842 -846.649)" opacity="0.3" fill="url(#linear-gradient-4)"/>
      <path id="Path_298" data-name="Path 298" d="M566.01,875.27l60.52,3.295,19.233,65.468-73.445,6.356Z" transform="translate(-554.536 -846.649)" fill="url(#linear-gradient-6)"/>
      <g id="Group_111" data-name="Group 111" transform="translate(21.375 30.197)" opacity="0.3">
        <path id="Path_299" data-name="Path 299" d="M838.7,912.348l-31.561-1.718a8.586,8.586,0,0,0-1.37,3.942c-.777,10.293,20.462,13.625,22.365,26.259,1.449,9.619-7.465,20.718-15.419,25.662-8.38,5.21-14.058,2.572-19.726,8.356a20.333,20.333,0,0,0-4.908,9.013l69.852-6.045Z" transform="translate(-788.08 -910.63)" fill="url(#linear-gradient-7)"/>
      </g>
      <path id="Path_300" data-name="Path 300" d="M932.577,283.13a.849.849,0,0,1-.811-.691c-.17-.78-4.107-19.205,1.444-28.248a9.666,9.666,0,0,1,6.607-4.7c14.35-2.716,23.185,30.388,23.554,31.8a.905.905,0,0,1-.577,1.1.828.828,0,0,1-1.028-.62c-.087-.329-8.784-32.962-21.66-30.52a7.956,7.956,0,0,0-5.5,3.925c-5.16,8.406-1.253,26.67-1.213,26.854a.9.9,0,0,1-.621,1.076A.744.744,0,0,1,932.577,283.13Z" transform="translate(-902.539 -248.615)" fill="url(#linear-gradient-8)"/>
      <ellipse id="Ellipse_12" data-name="Ellipse 12" cx="2.329" cy="2.502" rx="2.329" ry="2.502" transform="translate(27.714 32.147)" fill="url(#linear-gradient-9)"/>
      <ellipse id="Ellipse_13" data-name="Ellipse 13" cx="2.329" cy="2.502" rx="2.329" ry="2.502" transform="translate(58.091 31.915)" fill="url(#linear-gradient-10)"/>
      <path id="Path_301" data-name="Path 301" d="M1359.95,1254.829l-18.789-18.322a1.318,1.318,0,0,0-1.459-.278l-10.027,4.377a1.546,1.546,0,0,0-.589,2.281l16.365,23.43a1.329,1.329,0,0,0,1.918.322l12.452-9.487A1.563,1.563,0,0,0,1359.95,1254.829Zm-21.486-11.88c-.633.457-1.631.053-2.229-.9a1.961,1.961,0,0,1,.064-2.557c.633-.457,1.631-.054,2.229.9A1.962,1.962,0,0,1,1338.464,1242.949Z" transform="translate(-1283.324 -1191.411)" fill="#d8dee8"/>
      <path id="Path_302" data-name="Path 302" d="M1359.95,1249.219l-18.789-18.322a1.318,1.318,0,0,0-1.459-.278L1329.675,1235a1.546,1.546,0,0,0-.589,2.281l16.365,23.43a1.329,1.329,0,0,0,1.918.322l12.452-9.487A1.563,1.563,0,0,0,1359.95,1249.219Zm-21.486-11.881c-.633.457-1.631.053-2.229-.9a1.962,1.962,0,0,1,.064-2.557c.633-.457,1.631-.053,2.229.9A1.962,1.962,0,0,1,1338.464,1237.338Z" transform="translate(-1283.324 -1186.051)" fill="#f4f7fa"/>
      <g id="Group_112" data-name="Group 112" transform="translate(27.743 32.001)">
        <path id="Path_303" data-name="Path 303" d="M954.4,965.876a.153.153,0,0,1-.142-.094,12.316,12.316,0,0,0-2.61-3.939c-2.961-2.958-6.784-3.423-10.482-3.873-3.68-.448-7.155-.87-9.231-3.8-.526-.741-1.342-2.081-.9-2.725a1.116,1.116,0,0,1,1.041-.353.154.154,0,1,1-.015.308c-.276-.013-.634.014-.772.218-.233.342.121,1.274.9,2.374,2,2.817,5.407,3.232,9.016,3.671,3.749.456,7.626.928,10.663,3.961a12.63,12.63,0,0,1,2.675,4.037.154.154,0,0,1-.082.2A.142.142,0,0,1,954.4,965.876Z" transform="translate(-930.911 -951.09)" fill="#26264f"/>
      </g>
      <g id="Group_113" data-name="Group 113" transform="translate(31.691 32.888)">
        <path id="Path_304" data-name="Path 304" d="M1040.6,987.986a.154.154,0,0,1-.109-.263,4.792,4.792,0,0,0,1.293-3.051,4.242,4.242,0,0,0-1.442-3.018c-2.022-1.985-7.385-4.284-12.116-6.312-2.888-1.238-5.616-2.408-7.407-3.416-.406-.229-.836-.446-1.277-.645a.154.154,0,0,1,.127-.281c.449.2.887.424,1.3.658,1.777,1,4.5,2.166,7.378,3.4,4.756,2.039,10.148,4.35,12.211,6.375a4.534,4.534,0,0,1,1.535,3.24,5.017,5.017,0,0,1-1.384,3.268A.154.154,0,0,1,1040.6,987.986Z" transform="translate(-1019.456 -970.986)" fill="#26264f"/>
      </g>
      <path id="Path_305" data-name="Path 305" d="M1574.291,1249.223,1555.5,1230.9a1.318,1.318,0,0,0-1.459-.278l-.893.39a13,13,0,0,0,1.116,2.788c2.775,5.089,7.329,4.87,8.381,8.4.932,3.13-2.2,4.81-2.607,9.2-.206,2.195.264,5.114,2.783,8.781l11.338-8.638A1.565,1.565,0,0,0,1574.291,1249.223Z" transform="translate(-1497.665 -1186.055)" fill="#fff"/>
      <path id="Path_306" data-name="Path 306" d="M1689.668,1640.005a.734.734,0,0,1-.638-.385.836.836,0,0,1,.25-1.1l9.048-5.9a.717.717,0,0,1,1.024.269.835.835,0,0,1-.25,1.1l-9.048,5.9A.7.7,0,0,1,1689.668,1640.005Z" transform="translate(-1627.384 -1570.123)" fill="#d8dee8"/>
    </g>
    <g id="Group_116" data-name="Group 116" transform="translate(81.139 245.132)">
      <path id="Path_307" data-name="Path 307" d="M1581.93,1881.539l23.2,1.632V1849.19l-23.2,1.632Z" transform="translate(-1581.93 -1849.19)" fill="url(#linear-gradient-11)"/>
      <path id="Path_308" data-name="Path 308" d="M2102.33,1883.171l17.426-2.325v-29.487l-17.426-2.169Z" transform="translate(-2079.129 -1849.19)" fill="url(#linear-gradient-12)"/>
      <path id="Path_309" data-name="Path 309" d="M1751.514,1862.14v13.788h-7.774v-13.241Z" transform="translate(-1736.526 -1861.563)" fill="#fff"/>
      <g id="Group_115" data-name="Group 115" transform="translate(26.202 0.7)" opacity="0.71">
        <path id="Path_310" data-name="Path 310" d="M2176.39,1881.8c-.79-4.219-3.788-6.342-4.349-11.9a17.574,17.574,0,0,1,.223-5l11.8,1.469v29.487l-14.426,1.925C2176.06,1890.654,2177.081,1885.484,2176.39,1881.8Z" transform="translate(-2169.64 -1864.9)" fill="#fff"/>
      </g>
    </g>
    <g id="Group_131" data-name="Group 131" transform="translate(16.937 213.703)">
      <g id="Group_121" data-name="Group 121" transform="translate(0 0)">
        <path id="Path_311" data-name="Path 311" d="M471.476,1149.017a3.779,3.779,0,0,1-1.322-1.094c-.479-.638-.992-1.764-.592-2.233.191-.225.453-.134,1-.228,1.144-.195,1.452-.832,2.187-1.094,1.615-.575,4.043,1.107,3.918,1.959-.052.355-.547.567-1.458.957-.934.4-1.311.35-2.1.684A6.029,6.029,0,0,0,471.476,1149.017Z" transform="translate(-454.817 -1144.252)" fill="url(#linear-gradient-13)"/>
        <g id="Group_120" data-name="Group 120" transform="translate(0 2.091)">
          <path id="Path_312" data-name="Path 312" d="M143.413,2375.247l-.157-.272a.276.276,0,0,0-.415.18,14.182,14.182,0,0,0-.93,3c.2.5.761.076.876-.261s.518-1.586.518-1.586Z" transform="translate(-141.91 -2322.157)" fill="url(#linear-gradient-14)"/>
          <path id="Path_313" data-name="Path 313" d="M172.792,1782.386c-.234,0-.468,0-.7-.013q-.646-.029-1.3-.094.109-.678.218-1.356.332-.127.65-.255c.108-.044.212-.087.317-.131s.2-.082.3-.123c.143-.061.282-.122.42-.183l.167-.073c.163-.073.321-.146.477-.219l.08-.037c.169-.08.333-.16.495-.239l.036-.017q.255-.126.5-.254l.007,0q.494-.259.938-.519h0c3.673-2.147,4.888-4.326,5.262-6.04,1.053-4.822-4.1-7.918-2.771-13.146,1-3.941,5.239-7.314,7.847-6.527,2.946.889,3.407,6.6,3.691,10.111.32,3.956.676,8.363-1.854,12.311-2.4,3.739-6.724,6.039-11.7,6.651h0c-.119.015-.24.021-.359.034-.289.031-.577.063-.87.082-.134.009-.27.01-.4.016-.285.014-.57.029-.858.033C173.177,1782.4,172.984,1782.389,172.792,1782.386Z" transform="translate(-169.502 -1727.993)" fill="url(#linear-gradient-15)"/>
          <path id="Path_314" data-name="Path 314" d="M172.792,1782.386c-.234,0-.468,0-.7-.013q-.646-.029-1.3-.094.109-.678.218-1.356.332-.127.65-.255c.108-.044.212-.087.317-.131s.2-.082.3-.123c.143-.061.282-.122.42-.183l.167-.073c.163-.073.321-.146.477-.219l.08-.037c.169-.08.333-.16.495-.239l.036-.017q.255-.126.5-.254l.007,0q.494-.259.938-.519h0c3.673-2.147,4.888-4.326,5.262-6.04,1.053-4.822-4.1-7.918-2.771-13.146,1-3.941,5.239-7.314,7.847-6.527,2.946.889,3.407,6.6,3.691,10.111.32,3.956.676,8.363-1.854,12.311-2.4,3.739-6.724,6.039-11.7,6.651h0c-.119.015-.24.021-.359.034-.289.031-.577.063-.87.082-.134.009-.27.01-.4.016-.285.014-.57.029-.858.033C173.177,1782.4,172.984,1782.389,172.792,1782.386Z" transform="translate(-169.502 -1727.993)" opacity="0.25" fill="url(#linear-gradient-15)"/>
          <path id="Path_315" data-name="Path 315" d="M517.292,1348.762c.563-.894-2.063-2.211-2.916-5.878-.721-3.1.75-3.88-.053-8.024a8.974,8.974,0,0,0-2.1-4.622c-.732-.8-1.684-1.844-2.542-1.708-2.69.427-5.877,12.663-.5,18C511.943,1349.271,516.612,1349.84,517.292,1348.762Z" transform="translate(-490.016 -1322.395)" fill="url(#linear-gradient-17)"/>
          <g id="Group_117" data-name="Group 117" transform="translate(2.797 20.26)">
            <path id="Path_316" data-name="Path 316" d="M436.6,2650.144c.122-.282.8.427,1.423,1.176q-.121,1.616-.243,3.233a2.674,2.674,0,0,1,.82-.37c.381-.088,1.039.05,1.089.231.312,1.123-2.489,1.368-2.8,1.016a1,1,0,0,1-.237-.766,9.995,9.995,0,0,0,.112-3.471C436.679,2650.661,436.537,2650.3,436.6,2650.144Z" transform="translate(-426.246 -2605.296)" fill="url(#linear-gradient-18)"/>
            <path id="Path_317" data-name="Path 317" d="M207.832,1654.291c1.6-2.357,3.156-4.74,4.718-7.121a3.921,3.921,0,0,0,.57-1.58,10.937,10.937,0,0,1,1.762,1.771c.44,2.205,1.119,5.52,2.015,9.538,2.277,10.21,3.235,12.766,3.719,15.978.743,4.941.48,12.221-4.428,21.97l-1.123.112c-.789-8.34-1.694-15.866-2.15-19.734a19.725,19.725,0,0,0-2.72-8.42c-.034-.051-3.153-4.316-4.229-6.02-.358-.567-.807-1.3-1.316-2.287A32.033,32.033,0,0,0,207.832,1654.291Z" transform="translate(-204.65 -1645.59)" fill="url(#linear-gradient-19)"/>
            <path id="Path_318" data-name="Path 318" d="M207.832,1654.291c1.6-2.357,3.156-4.74,4.718-7.121a3.921,3.921,0,0,0,.57-1.58,10.938,10.938,0,0,1,1.762,1.771c.7,2.7,1.194,5,1.542,6.766.965,4.891.91,6.244.219,7.458-.951,1.669-2.045,1.218-2.739,2.671-1.218,2.547,2.042,4.288,2.012,9.2-.016,2.724-.991,3.407-.547,5.908a14.474,14.474,0,0,1,.3,4.011c-.063.856-.132.669-.184,1.442-.149,2.2.376,4.227.148,5.6a3.246,3.246,0,0,1-.315.964,3.117,3.117,0,0,1-.525.727c-.715-7.179-1.469-13.465-1.873-16.887a19.728,19.728,0,0,0-2.72-8.42c-.034-.052-3.153-4.316-4.229-6.02-.358-.567-.807-1.3-1.316-2.287A32,32,0,0,0,207.832,1654.291Z" transform="translate(-204.65 -1645.59)" opacity="0.25" fill="url(#linear-gradient-20)"/>
          </g>
          <path id="Path_319" data-name="Path 319" d="M165.307,1282.342a7.379,7.379,0,0,1,.78,4.481,9.363,9.363,0,0,1-2.216,4.634c-1.588,2.041-2.827,6.078-.856,14.927a13.937,13.937,0,0,0-5.049.094c-5.4,1.125-7.55,5.132-10.139,4.4-.956-.27-2.254-1.265-3.159-4.982a24.5,24.5,0,0,1-.729-16.524,24.024,24.024,0,0,1,7.007-10.64c1.481-.5,6.1-1.847,10.5.283A7.989,7.989,0,0,1,165.307,1282.342Z" transform="translate(-142.788 -1273.987)" fill="url(#linear-gradient-21)"/>
          <g id="Group_118" data-name="Group 118" transform="translate(17.137 15.955)">
            <path id="Path_320" data-name="Path 320" d="M526.617,1552.851l4.127-1.457a.262.262,0,0,0,.165-.158l.684-1.862a.26.26,0,0,0-.3-.344l-3.878.839a.46.46,0,0,0-.347.242l-.768,2.271C526.232,1552.583,526.414,1552.917,526.617,1552.851Z" transform="translate(-526.287 -1549.024)" fill="url(#linear-gradient-22)"/>
            <path id="Path_321" data-name="Path 321" d="M527.845,1557.279l3.988-1.276a.26.26,0,0,0,.165-.158l.684-1.862a.26.26,0,0,0-.3-.344l-3.878.839a.261.261,0,0,0-.191.169l-.795,2.3A.26.26,0,0,0,527.845,1557.279Z" transform="translate(-527.451 -1553.428)" fill="url(#linear-gradient-23)"/>
          </g>
          <path id="Path_322" data-name="Path 322" d="M494.063,1584.956l.446-.212a8.288,8.288,0,0,1,1.173-.721.82.82,0,0,1,1.145.278c.292.436-.2.846-.629,1.206a1.988,1.988,0,0,1-1.236.215,3.5,3.5,0,0,0-.922.2Z" transform="translate(-478.341 -1566.396)" fill="url(#linear-gradient-24)"/>
          <g id="Group_119" data-name="Group 119" transform="translate(13.167)">
            <path id="Path_323" data-name="Path 323" d="M440.64,1214.82c0,.389-.014,2.474-.94,2.816a5.578,5.578,0,0,1-1.263.051c-.512.013-.929.041-1.2.061a6.564,6.564,0,0,0,.325,1.367c1.152,3.243,4.883,5.5,6.147,4.684.658-.422.709-1.691.73-2.217a4.424,4.424,0,0,0-.3-1.775q-.694-.5-1.42-1.01-.474-.33-.943-.647.031-.6.063-1.2Q441.241,1215.887,440.64,1214.82Z" transform="translate(-437.24 -1213.765)" fill="url(#linear-gradient-25)"/>
            <path id="Path_324" data-name="Path 324" d="M494.113,1192.978a2.551,2.551,0,0,0,1.365,2.273c1.226.5,2.835-2.379,2.35-3.314a1.746,1.746,0,0,0-1.115-.762c-.329-.059-1.7-.068-2.085,1.007-.115-.34-.345-.56-.582-.562a.449.449,0,0,0-.233.077C493.5,1191.921,493.59,1192.444,494.113,1192.978Z" transform="translate(-491.118 -1191.154)" fill="url(#linear-gradient-26)"/>
          </g>
          <path id="Path_325" data-name="Path 325" d="M143.935,1335.623a23.85,23.85,0,0,1,5.666-9.363c2.084,1.378,4.205,3.245,4.028,5.247-.2,2.278-3.245,3.219-2.96,4.66.412,2.088,7.041,1.3,7.814,3.595.912,2.708-6.948,7.8-6.528,8.376.3.413,3.916-2.5,8.019-1.822a5.658,5.658,0,0,1,2.145.851,43.735,43.735,0,0,0,.893,5.467,13.936,13.936,0,0,0-5.049.094c-5.4,1.125-7.55,5.132-10.139,4.4-.956-.27-2.254-1.265-3.159-4.982A24.49,24.49,0,0,1,143.935,1335.623Z" transform="translate(-142.784 -1320.236)" opacity="0.3" fill="url(#linear-gradient-27)"/>
          <path id="Path_326" data-name="Path 326" d="M156.606,1291.75c-1.253-.312-1.259-.72-2.935-.156-4.811,1.619-9.9,8.88-7.272,14.007,1.464,2.852,4.972,5.423,8.84,4.83a8.7,8.7,0,0,0,5.468-3.463q.274-1.094.547-2.187a5.871,5.871,0,0,1-4.465.911c-1.649-.428-2.015-1.609-4.739-2.642-1.061-.4-1.7-.487-1.732-.82-.067-.691,2.6-.921,4.283-2.369C155.827,1298.8,157.051,1296.652,156.606,1291.75Z" transform="translate(-145.513 -1286.848)" fill="url(#linear-gradient-28)"/>
        </g>
      </g>
      <g id="Group_130" data-name="Group 130" transform="translate(14.796 27.786)">
        <g id="Group_123" data-name="Group 123" transform="translate(55.615 42.461)">
          <g id="Group_122" data-name="Group 122" transform="translate(1.206 0.422)">
            <path id="Path_327" data-name="Path 327" d="M1758.81,2731.55a1.751,1.751,0,1,0,1.687-2.219A2.009,2.009,0,0,0,1758.81,2731.55Z" transform="translate(-1758.34 -2729.33)" fill="url(#linear-gradient-29)"/>
            <path id="Path_328" data-name="Path 328" d="M1748.27,2737.17a1.751,1.751,0,1,0,1.687-2.219A2.009,2.009,0,0,0,1748.27,2737.17Z" transform="translate(-1748.27 -2734.7)" fill="url(#linear-gradient-30)"/>
            <path id="Path_329" data-name="Path 329" d="M1770.26,2765.8a.734.734,0,1,0,.707-.93A.842.842,0,0,0,1770.26,2765.8Z" transform="translate(-1769.28 -2763.285)" fill="url(#linear-gradient-31)"/>
          </g>
          <path id="Path_330" data-name="Path 330" d="M1724.583,2720.052v2.437a.648.648,0,0,1-.648.648h0a.649.649,0,0,1-.523-.265l-2.192-3Z" transform="translate(-1721.22 -2719.87)" fill="#c2c2c2"/>
        </g>
        <g id="Group_125" data-name="Group 125" transform="translate(37.552 40.515)">
          <g id="Group_124" data-name="Group 124" transform="translate(1.206 0.421)">
            <path id="Path_331" data-name="Path 331" d="M1353.65,2687.889a1.751,1.751,0,1,0,1.687-2.219A2.009,2.009,0,0,0,1353.65,2687.889Z" transform="translate(-1353.18 -2685.67)" fill="url(#linear-gradient-32)"/>
            <path id="Path_332" data-name="Path 332" d="M1343.1,2693.519a1.751,1.751,0,1,0,1.687-2.219A2.009,2.009,0,0,0,1343.1,2693.519Z" transform="translate(-1343.1 -2691.049)" fill="url(#linear-gradient-33)"/>
            <path id="Path_333" data-name="Path 333" d="M1365.1,2722.15a.734.734,0,1,0,.707-.93A.842.842,0,0,0,1365.1,2722.15Z" transform="translate(-1364.119 -2719.635)" fill="url(#linear-gradient-34)"/>
          </g>
          <path id="Path_334" data-name="Path 334" d="M1319.423,2676.412v2.437a.648.648,0,0,1-.648.648h0a.649.649,0,0,1-.523-.266l-2.192-3Z" transform="translate(-1316.06 -2676.23)" fill="#c2c2c2"/>
        </g>
        <path id="Path_335" data-name="Path 335" d="M868.105,1822.231a.442.442,0,0,0,.049-.882l-21.392-2.411a3.107,3.107,0,0,1-2.449-2.251l-8.961-33.362a4.31,4.31,0,0,0-3.865-3.181l-6.507-.388a.443.443,0,0,0-.053.883l6.5.388a3.424,3.424,0,0,1,3.068,2.527l8.961,33.362a4,4,0,0,0,3.179,2.9l21.417,2.414Z" transform="translate(-808.875 -1779.209)" fill="#fff"/>
        <path id="Path_336" data-name="Path 336" d="M1459.007,2041.189a.443.443,0,0,0,.425-.321l5.037-17.627a.442.442,0,0,0-.851-.244l-5.038,17.626a.443.443,0,0,0,.425.564Z" transform="translate(-1414.659 -2011.301)" fill="#fff"/>
        <path id="Path_337" data-name="Path 337" d="M1343.408,2028.225a.442.442,0,0,0,.435-.364l3.107-17.461a.442.442,0,0,0-.871-.155l-3.107,17.46a.442.442,0,0,0,.358.513A.461.461,0,0,0,1343.408,2028.225Z" transform="translate(-1304.214 -1999.073)" fill="#fff"/>
        <path id="Path_338" data-name="Path 338" d="M1256.24,2019.334h.019a.442.442,0,0,0,.423-.461l-.717-17.276a.433.433,0,0,0-.461-.424.442.442,0,0,0-.424.46l.717,17.276A.443.443,0,0,0,1256.24,2019.334Z" transform="translate(-1220.248 -1990.755)" fill="#fff"/>
        <path id="Path_339" data-name="Path 339" d="M1616.666,2055.5a.443.443,0,0,0,.419-.3L1623,2037.56a.442.442,0,1,0-.839-.281l-5.914,17.634a.442.442,0,0,0,.42.583Z" transform="translate(-1565.29 -2024.963)" fill="#fff"/>
        <path id="Path_340" data-name="Path 340" d="M474.666,1770.456c.025,0,.049,0,.074,0l14.558-1.2a.885.885,0,1,0-.145-1.764l-14.558,1.2a.885.885,0,0,0,.072,1.767Z" transform="translate(-473.782 -1767.489)" fill="url(#linear-gradient-35)"/>
        <g id="Group_127" data-name="Group 127" transform="translate(39.767 48.514)">
          <g id="Group_126" data-name="Group 126" transform="translate(1.206 0.422)">
            <path id="Path_341" data-name="Path 341" d="M1403.34,2867.32a1.751,1.751,0,1,0,1.687-2.219A2.009,2.009,0,0,0,1403.34,2867.32Z" transform="translate(-1402.87 -2865.1)" fill="url(#linear-gradient-36)"/>
            <path id="Path_342" data-name="Path 342" d="M1392.8,2872.939a1.751,1.751,0,1,0,1.687-2.219A2.009,2.009,0,0,0,1392.8,2872.939Z" transform="translate(-1392.8 -2870.47)" fill="url(#linear-gradient-37)"/>
            <path id="Path_343" data-name="Path 343" d="M1414.79,2901.57a.734.734,0,1,0,.707-.93A.842.842,0,0,0,1414.79,2901.57Z" transform="translate(-1413.81 -2899.055)" fill="url(#linear-gradient-38)"/>
          </g>
          <path id="Path_344" data-name="Path 344" d="M1369.113,2855.822v2.437a.648.648,0,0,1-.648.648h0a.649.649,0,0,1-.523-.266l-2.192-3Z" transform="translate(-1365.75 -2855.639)" fill="#d5dbe2"/>
        </g>
        <g id="Group_129" data-name="Group 129" transform="translate(24.128 46.948)">
          <g id="Group_128" data-name="Group 128" transform="translate(1.206 0.421)">
            <path id="Path_345" data-name="Path 345" d="M1052.56,2832.2a1.751,1.751,0,1,0,1.687-2.219A2.009,2.009,0,0,0,1052.56,2832.2Z" transform="translate(-1052.09 -2829.98)" fill="url(#linear-gradient-39)"/>
            <path id="Path_346" data-name="Path 346" d="M1042.01,2837.819a1.751,1.751,0,1,0,1.687-2.22A2.009,2.009,0,0,0,1042.01,2837.819Z" transform="translate(-1042.01 -2835.349)" fill="url(#linear-gradient-40)"/>
            <path id="Path_347" data-name="Path 347" d="M1064,2866.45a.734.734,0,1,0,.707-.93A.842.842,0,0,0,1064,2866.45Z" transform="translate(-1063.02 -2863.935)" fill="url(#linear-gradient-41)"/>
          </g>
          <path id="Path_348" data-name="Path 348" d="M1018.333,2820.712v2.438a.647.647,0,0,1-.648.647h0a.649.649,0,0,1-.523-.266l-2.192-3Z" transform="translate(-1014.97 -2820.53)" fill="#d5dbe2"/>
        </g>
        <path id="Path_349" data-name="Path 349" d="M787.642,1988.159a.442.442,0,0,0,.031-.884l-38.1-2.742a.468.468,0,0,0-.106.005l-15.772,2.687a.442.442,0,1,0,.148.872l15.72-2.677,38.045,2.739Z" transform="translate(-721.756 -1974.855)" fill="#fff"/>
        <path id="Path_350" data-name="Path 350" d="M774.7,2049.643a.44.44,0,0,0,.128-.019l12.945-3.931a.442.442,0,0,0-.257-.847l-12.861,3.905-40.838-3.978a.442.442,0,0,0-.086.881l40.926,3.986A.327.327,0,0,0,774.7,2049.643Z" transform="translate(-721.761 -2032.409)" fill="#d5dbe2"/>
        <path id="Path_351" data-name="Path 351" d="M844.316,2395.777a.428.428,0,0,0,.068-.005l15.52-2.381,23.612,2.273a.442.442,0,1,0,.085-.881l-23.667-2.278a.446.446,0,0,0-.11,0l-15.575,2.39a.443.443,0,0,0,.067.88Z" transform="translate(-827.374 -2364.638)" fill="#c2c2c2"/>
        <path id="Path_352" data-name="Path 352" d="M872.458,2151.661a.443.443,0,0,0,.4-.253l7.857-16.582a.443.443,0,0,0-.8-.379l-7.724,16.3-27.832-2.646a.443.443,0,0,0-.084.881l28.141,2.675Z" transform="translate(-827.374 -2117.845)" fill="#d5dbe2"/>
        <path id="Path_353" data-name="Path 353" d="M1475.522,2067.432a.459.459,0,0,0,.108-.013l11.1-2.788a.441.441,0,0,0,.28-.217l9.7-17.724a.443.443,0,0,0-.776-.425l-9.607,17.555-10.914,2.74a.443.443,0,0,0,.107.872Z" transform="translate(-1430.439 -2033.617)" fill="#d5dbe2"/>
        <path id="Path_354" data-name="Path 354" d="M814.367,2193.782a.446.446,0,0,0,.124-.018l12.192-3.573a.442.442,0,1,0-.249-.848l-12.112,3.549-36-3.139a.438.438,0,0,0-.479.4.442.442,0,0,0,.4.479l36.084,3.147Z" transform="translate(-764.285 -2170.517)" fill="#d5dbe2"/>
        <path id="Path_355" data-name="Path 355" d="M849.176,2341.232a.429.429,0,0,0,.119-.016l11.68-3.272a.442.442,0,1,0-.238-.852l-11.6,3.25-31.262-2.735a.442.442,0,1,0-.077.881l31.342,2.742Z" transform="translate(-802.072 -2311.681)" fill="#d5dbe2"/>
        <path id="Path_356" data-name="Path 356" d="M1346.615,2134.507a.443.443,0,0,0,.424-.316l5.01-16.81a.443.443,0,0,0-.849-.253l-5.01,16.81a.443.443,0,0,0,.424.569Z" transform="translate(-1307.278 -2101.238)" fill="#d5dbe2"/>
        <path id="Path_357" data-name="Path 357" d="M1222.3,2117.976a.442.442,0,0,0,.435-.365l3-17.031a.443.443,0,0,0-.872-.154l-3,17.03a.443.443,0,0,0,.359.513A.5.5,0,0,0,1222.3,2117.976Z" transform="translate(-1188.506 -2085.234)" fill="#d5dbe2"/>
        <path id="Path_358" data-name="Path 358" d="M1082.1,2104.587a.442.442,0,0,0,.442-.418l.947-16.91a.443.443,0,0,0-.884-.05l-.947,16.91a.442.442,0,0,0,.417.466Z" transform="translate(-1054.553 -2072.557)" fill="#d5dbe2"/>
        <path id="Path_359" data-name="Path 359" d="M929.959,2083.941h.024a.443.443,0,0,0,.419-.465l-.9-17.18a.442.442,0,1,0-.883.046l.9,17.18A.443.443,0,0,0,929.959,2083.941Z" transform="translate(-908.338 -2052.574)" fill="#d5dbe2"/>
        <path id="Path_360" data-name="Path 360" d="M1550.817,2127.405a.443.443,0,0,0,.4-.251l8.1-16.831a.442.442,0,0,0-.8-.384l-8.1,16.831a.442.442,0,0,0,.4.634Z" transform="translate(-1502.376 -2094.433)" fill="#d5dbe2"/>
        <path id="Path_361" data-name="Path 361" d="M1651.733,2093.751a.443.443,0,0,0,.4-.245l8.6-17.218a.442.442,0,0,0-.791-.4l-8.6,17.219a.442.442,0,0,0,.2.594A.434.434,0,0,0,1651.733,2093.751Z" transform="translate(-1598.794 -2061.908)" fill="#d5dbe2"/>
        <path id="Path_362" data-name="Path 362" d="M526.486,1852a.448.448,0,0,0,.163-.031l16.015-6.356a.442.442,0,0,0-.326-.823l-15.91,6.314-19.319-2.36a3.393,3.393,0,0,1-2.869-2.475l-10.59-38.446a4.317,4.317,0,0,0-3.843-3.153l-5.619-.408a.443.443,0,0,0-.064.883l5.619.407a3.43,3.43,0,0,1,3.054,2.506l10.59,38.446a4.276,4.276,0,0,0,3.615,3.119l19.43,2.374A.49.49,0,0,0,526.486,1852Z" transform="translate(-483.272 -1802.623)" fill="#d5dbe2"/>
      </g>
      <path id="Path_363" data-name="Path 363" d="M723.54,1762.826c.14,0,2.089-.06,2.274.517a.617.617,0,0,1,0,.326c-.1.344-.53.462-.592.478a1.4,1.4,0,0,0,1.823-.16,1.178,1.178,0,0,0,.131-1.242,1.272,1.272,0,0,0-.769-.58A3.424,3.424,0,0,0,723.54,1762.826Z" transform="translate(-697.609 -1734.505)" fill="url(#linear-gradient-42)"/>
    </g>
  </g>
</svg>
