<svg id="Capa_1" enable-background="new 0 0 512 512" height="512" viewBox="0 0 512 512" width="512" xmlns="http://www.w3.org/2000/svg" xmlns:xlink="http://www.w3.org/1999/xlink"><linearGradient id="lg1"><stop offset="0" stop-color="#fd5900"/><stop offset="1" stop-color="#ffffd5"/></linearGradient><linearGradient id="SVGID_1_" gradientUnits="userSpaceOnUse" x1="256" x2="256" xlink:href="#lg1" y1="512" y2="422"/><linearGradient id="SVGID_2_" gradientUnits="userSpaceOnUse" x1="256" x2="256" xlink:href="#lg1" y1="93.001" y2="0"/><linearGradient id="SVGID_3_" gradientUnits="userSpaceOnUse" x1="256" x2="256" y1="452" y2="59.988"><stop offset="0" stop-color="#ffe59a"/><stop offset="1" stop-color="#ffde00"/></linearGradient><g><path d="m316 422h-120c-8.284 0-15 6.716-15 15 0 41.355 33.645 75 75 75s75-33.645 75-75c0-8.284-6.716-15-15-15z" fill="url(#SVGID_1_)"/><path d="m256 0c-24.813 0-45 20.187-45 45v33.001c0 8.284 6.716 15 15 15h60c8.284 0 15-6.716 15-15v-33.001c0-24.813-20.187-45-45-45z" fill="url(#SVGID_2_)"/><path d="m466 422c-24.813 0-45-20.187-45-45v-145.553c0-90.031-69.456-171.889-166-171.458-92.424.414-164 76.193-164 165.011v152c0 24.813-20.187 45-45 45-8.284 0-15 6.716-15 15s6.716 15 15 15h420c8.284 0 15-6.716 15-15s-6.716-15-15-15z" fill="url(#SVGID_3_)"/></g></svg>