<svg xmlns="http://www.w3.org/2000/svg" xmlns:xlink="http://www.w3.org/1999/xlink" width="127.738" height="120.898" viewBox="0 0 127.738 120.898">
  <defs>
    <linearGradient id="linear-gradient" x1="0.481" y1="0.042" x2="0.536" y2="1.062" gradientUnits="objectBoundingBox">
      <stop offset="0.004" stop-color="#e38ddd"/>
      <stop offset="1" stop-color="#9571f6"/>
    </linearGradient>
    <linearGradient id="linear-gradient-2" x1="0.785" y1="-0.467" x2="0.662" y2="0.482" gradientUnits="objectBoundingBox">
      <stop offset="0" stop-color="#aa80f9"/>
      <stop offset="0.996" stop-color="#6165d7"/>
    </linearGradient>
    <linearGradient id="linear-gradient-3" x1="-0.199" y1="0.297" x2="0.071" y2="1.202" xlink:href="#linear-gradient-2"/>
    <linearGradient id="linear-gradient-4" x1="-127.276" y1="-768.848" x2="-97.444" y2="290.34" gradientUnits="objectBoundingBox">
      <stop offset="0" stop-color="#ffc444"/>
      <stop offset="0.996" stop-color="#f36f56"/>
    </linearGradient>
    <linearGradient id="linear-gradient-5" x1="-46.107" y1="-274.119" x2="-35.241" y2="103.704" xlink:href="#linear-gradient-4"/>
    <linearGradient id="linear-gradient-6" x1="-14.282" y1="-22.164" x2="-10.732" y2="10.19" xlink:href="#linear-gradient-4"/>
    <linearGradient id="linear-gradient-7" x1="-176.216" y1="-946.985" x2="-134.969" y2="356.471" xlink:href="#linear-gradient-4"/>
    <linearGradient id="linear-gradient-8" x1="-117.76" y1="-488.474" x2="-90.089" y2="185.994" xlink:href="#linear-gradient-4"/>
    <linearGradient id="linear-gradient-9" x1="-131.345" y1="-599.472" x2="-100.54" y2="226.431" xlink:href="#linear-gradient-4"/>
    <linearGradient id="linear-gradient-10" x1="-490.405" y1="-2553.304" x2="-375.761" y2="959.517" xlink:href="#linear-gradient-4"/>
    <linearGradient id="linear-gradient-11" x1="-36.39" y1="-111.392" x2="-27.731" y2="43.592" xlink:href="#linear-gradient-4"/>
    <linearGradient id="linear-gradient-12" x1="-384.743" y1="-1510.233" x2="-294.838" y2="568.463" xlink:href="#linear-gradient-4"/>
    <linearGradient id="linear-gradient-13" x1="-2678.255" y1="-10976.682" x2="-2127.237" y2="2341.45" xlink:href="#linear-gradient-4"/>
    <linearGradient id="linear-gradient-14" x1="-178.78" y1="-589.671" x2="-136.933" y2="221.72" xlink:href="#linear-gradient-4"/>
    <linearGradient id="linear-gradient-15" x1="-178.17" y1="-1024.807" x2="-136.442" y2="386.908" xlink:href="#linear-gradient-4"/>
    <linearGradient id="linear-gradient-16" x1="-0.25" y1="-0.51" x2="0.557" y2="0.6" gradientUnits="objectBoundingBox">
      <stop offset="0" stop-color="#40447e"/>
      <stop offset="0.996" stop-color="#3c3b6b"/>
    </linearGradient>
    <linearGradient id="linear-gradient-17" x1="0" y1="0.5" x2="1" y2="0.5" xlink:href="#linear-gradient-16"/>
    <linearGradient id="linear-gradient-18" x1="0.423" y1="0.267" x2="0.627" y2="0.902" gradientUnits="objectBoundingBox">
      <stop offset="0" stop-color="#fff"/>
      <stop offset="0.996" stop-color="#d8dee8"/>
    </linearGradient>
    <linearGradient id="linear-gradient-19" y1="0.5" x2="1" y2="0.5" gradientUnits="objectBoundingBox">
      <stop offset="0" stop-color="#311944"/>
      <stop offset="1" stop-color="#893976"/>
    </linearGradient>
    <linearGradient id="linear-gradient-20" x1="0.893" y1="0.422" x2="0.354" y2="0.529" xlink:href="#linear-gradient-19"/>
    <linearGradient id="linear-gradient-21" x1="0.062" y1="1.233" x2="0.848" y2="-0.085" xlink:href="#linear-gradient-19"/>
    <linearGradient id="linear-gradient-22" x1="3.263" y1="-1.725" x2="0.235" y2="0.714" gradientUnits="objectBoundingBox">
      <stop offset="0" stop-color="#ff9085"/>
      <stop offset="1" stop-color="#fb6fbb"/>
    </linearGradient>
    <linearGradient id="linear-gradient-23" x1="1.094" y1="3.939" x2="1.225" y2="4.695" xlink:href="#linear-gradient-19"/>
    <linearGradient id="linear-gradient-24" x1="1.291" y1="4.694" x2="1.421" y2="5.386" xlink:href="#linear-gradient-19"/>
    <linearGradient id="linear-gradient-25" x1="1.03" y1="3.554" x2="1.165" y2="4.333" xlink:href="#linear-gradient-19"/>
    <linearGradient id="linear-gradient-26" x1="0.906" y1="2.809" x2="1.036" y2="3.552" xlink:href="#linear-gradient-19"/>
    <linearGradient id="linear-gradient-27" x1="1.153" y1="4.312" x2="1.279" y2="5.045" xlink:href="#linear-gradient-19"/>
    <linearGradient id="linear-gradient-28" x1="0.708" y1="1.548" x2="0.839" y2="2.205" xlink:href="#linear-gradient-19"/>
    <linearGradient id="linear-gradient-29" x1="0.766" y1="1.876" x2="0.89" y2="2.51" xlink:href="#linear-gradient-19"/>
    <linearGradient id="linear-gradient-30" x1="1.354" y1="5.056" x2="1.481" y2="5.732" xlink:href="#linear-gradient-19"/>
    <linearGradient id="linear-gradient-31" x1="0.645" y1="1.21" x2="0.783" y2="1.891" xlink:href="#linear-gradient-19"/>
    <linearGradient id="linear-gradient-32" x1="0.844" y1="2.427" x2="0.98" y2="3.194" xlink:href="#linear-gradient-19"/>
    <linearGradient id="linear-gradient-33" x1="1.222" y1="4.322" x2="1.356" y2="5.03" xlink:href="#linear-gradient-19"/>
    <linearGradient id="linear-gradient-34" x1="0.963" y1="3.18" x2="1.088" y2="3.9" xlink:href="#linear-gradient-19"/>
    <linearGradient id="linear-gradient-35" x1="1.513" y1="-1.47" x2="-1.701" y2="4.75" xlink:href="#linear-gradient-16"/>
    <linearGradient id="linear-gradient-36" x1="1.158" y1="-0.674" x2="-2.053" y2="5.019" xlink:href="#linear-gradient-16"/>
    <linearGradient id="linear-gradient-37" x1="1.043" y1="-0.533" x2="-2.277" y2="5.877" xlink:href="#linear-gradient-16"/>
    <linearGradient id="linear-gradient-38" x1="1.852" y1="-2.081" x2="-1.363" y2="4.034" xlink:href="#linear-gradient-16"/>
    <linearGradient id="linear-gradient-39" x1="1.964" y1="-2.375" x2="-1.136" y2="3.657" xlink:href="#linear-gradient-16"/>
    <linearGradient id="linear-gradient-40" x1="2.206" y1="-2.382" x2="-1.007" y2="3.028" xlink:href="#linear-gradient-16"/>
    <linearGradient id="linear-gradient-41" x1="2.614" y1="-3.149" x2="-0.428" y2="2.066" xlink:href="#linear-gradient-16"/>
    <linearGradient id="linear-gradient-42" x1="1.627" y1="-1.512" x2="-1.5" y2="4.049" xlink:href="#linear-gradient-16"/>
    <linearGradient id="linear-gradient-43" x1="1.762" y1="-1.6" x2="-1.621" y2="4.004" xlink:href="#linear-gradient-16"/>
    <linearGradient id="linear-gradient-44" x1="1.394" y1="-1.169" x2="-1.956" y2="5.137" xlink:href="#linear-gradient-16"/>
    <linearGradient id="linear-gradient-45" x1="0.681" y1="0.194" x2="-2.604" y2="6.023" xlink:href="#linear-gradient-16"/>
    <linearGradient id="linear-gradient-46" x1="2.285" y1="-2.967" x2="-0.787" y2="2.956" xlink:href="#linear-gradient-16"/>
    <linearGradient id="linear-gradient-47" x1="-0.085" y1="0.5" x2="1.065" y2="0.5" gradientUnits="objectBoundingBox">
      <stop offset="0" stop-color="#f57e53"/>
      <stop offset="0.005" stop-color="#f58152"/>
      <stop offset="0.042" stop-color="#f8994d"/>
      <stop offset="0.084" stop-color="#fbac49"/>
      <stop offset="0.133" stop-color="#fdb946"/>
      <stop offset="0.196" stop-color="#fec144"/>
      <stop offset="0.318" stop-color="#ffc444"/>
      <stop offset="0.455" stop-color="#fdb946"/>
      <stop offset="0.694" stop-color="#f99c4c"/>
      <stop offset="0.996" stop-color="#f36f56"/>
    </linearGradient>
    <linearGradient id="linear-gradient-48" x1="0.495" y1="0.179" x2="0.556" y2="4.091" gradientUnits="objectBoundingBox">
      <stop offset="0" stop-color="#ffdb44"/>
      <stop offset="1" stop-color="#feef06"/>
    </linearGradient>
    <linearGradient id="linear-gradient-49" x1="0.492" y1="-0.777" x2="0.511" y2="1.295" xlink:href="#linear-gradient-48"/>
    <linearGradient id="linear-gradient-50" x1="-0.333" y1="-38.577" x2="-0.314" y2="-36.145" gradientUnits="objectBoundingBox">
      <stop offset="0.004" stop-color="#f36f56"/>
      <stop offset="0.306" stop-color="#f99c4c"/>
      <stop offset="0.545" stop-color="#fdb946"/>
      <stop offset="0.682" stop-color="#ffc444"/>
      <stop offset="0.804" stop-color="#fec144"/>
      <stop offset="0.867" stop-color="#fdb946"/>
      <stop offset="0.916" stop-color="#fbac49"/>
      <stop offset="0.958" stop-color="#f8994d"/>
      <stop offset="0.995" stop-color="#f58152"/>
      <stop offset="1" stop-color="#f57e53"/>
    </linearGradient>
    <linearGradient id="linear-gradient-54" x1="-0.051" y1="-34.93" x2="-0.032" y2="-32.498" xlink:href="#linear-gradient-50"/>
    <linearGradient id="linear-gradient-58" x1="-0.294" y1="-31.295" x2="-0.276" y2="-28.864" xlink:href="#linear-gradient-50"/>
    <linearGradient id="linear-gradient-62" x1="-0.442" y1="-27.649" x2="-0.423" y2="-25.217" xlink:href="#linear-gradient-50"/>
    <linearGradient id="linear-gradient-66" x1="-0.333" y1="-23.716" x2="-0.314" y2="-21.284" xlink:href="#linear-gradient-50"/>
    <linearGradient id="linear-gradient-70" x1="-0.051" y1="-20.07" x2="-0.032" y2="-17.638" xlink:href="#linear-gradient-50"/>
    <linearGradient id="linear-gradient-74" x1="-0.294" y1="-16.435" x2="-0.276" y2="-14.003" xlink:href="#linear-gradient-50"/>
    <linearGradient id="linear-gradient-78" x1="-0.168" y1="-12.789" x2="-0.149" y2="-10.357" xlink:href="#linear-gradient-50"/>
    <linearGradient id="linear-gradient-79" x1="0.419" y1="-0.476" x2="2.124" y2="-0.476" xlink:href="#linear-gradient-47"/>
    <linearGradient id="linear-gradient-80" x1="1.312" y1="-0.669" x2="1.415" y2="-0.049" xlink:href="#linear-gradient-48"/>
    <linearGradient id="linear-gradient-81" x1="1.31" y1="-0.695" x2="1.341" y2="-0.505" xlink:href="#linear-gradient-48"/>
    <linearGradient id="linear-gradient-82" x1="-4.75" y1="-0.659" x2="-4.718" y2="-0.466" xlink:href="#linear-gradient-50"/>
    <linearGradient id="linear-gradient-83" x1="1.104" y1="0.5" x2="-0.07" y2="0.351" xlink:href="#linear-gradient-19"/>
    <linearGradient id="linear-gradient-84" x1="0.057" y1="0.411" x2="1.601" y2="0.491" xlink:href="#linear-gradient-22"/>
    <linearGradient id="linear-gradient-85" x1="-1.639" y1="-0.961" x2="2.581" y2="1.398" xlink:href="#linear-gradient-47"/>
    <linearGradient id="linear-gradient-86" x1="-0.213" y1="-0.01" x2="0.726" y2="-0.01" xlink:href="#linear-gradient-22"/>
    <linearGradient id="linear-gradient-87" x1="-0.309" y1="-2.745" x2="0.693" y2="-2.745" xlink:href="#linear-gradient-22"/>
    <linearGradient id="linear-gradient-88" x1="-0.282" y1="-2.813" x2="0.72" y2="-2.813" xlink:href="#linear-gradient-22"/>
    <linearGradient id="linear-gradient-89" x1="-0.254" y1="-2.886" x2="0.747" y2="-2.886" xlink:href="#linear-gradient-22"/>
    <linearGradient id="linear-gradient-90" x1="-0.377" y1="-0.166" x2="0.526" y2="-0.166" xlink:href="#linear-gradient-22"/>
    <linearGradient id="linear-gradient-91" x1="0.066" y1="0.324" x2="1.674" y2="0.496" gradientUnits="objectBoundingBox">
      <stop offset="0" stop-color="#fb6fbb"/>
      <stop offset="1" stop-color="#ff9085"/>
    </linearGradient>
    <linearGradient id="linear-gradient-92" x1="0.041" y1="-0.486" x2="1.025" y2="-0.486" xlink:href="#linear-gradient-91"/>
    <linearGradient id="linear-gradient-93" x1="0.036" y1="-1.101" x2="1.024" y2="-1.101" xlink:href="#linear-gradient-91"/>
    <linearGradient id="linear-gradient-94" x1="0" y1="0.5" x2="1" y2="0.5" xlink:href="#linear-gradient-22"/>
    <linearGradient id="linear-gradient-95" x1="0" y1="0.5" x2="1" y2="0.5" xlink:href="#linear-gradient-4"/>
    <linearGradient id="linear-gradient-96" x1="0.652" y1="1.15" x2="0.583" y2="0.767" xlink:href="#linear-gradient-16"/>
    <linearGradient id="linear-gradient-98" x1="0.67" y1="1.165" x2="0.59" y2="0.776" xlink:href="#linear-gradient-16"/>
    <linearGradient id="linear-gradient-100" x1="0.565" y1="0.4" x2="0.146" y2="1.688" xlink:href="#linear-gradient-47"/>
    <linearGradient id="linear-gradient-101" x1="0.589" y1="-0.167" x2="0.44" y2="0.919" xlink:href="#linear-gradient-47"/>
    <linearGradient id="linear-gradient-102" x1="0.214" y1="-0.004" x2="1.029" y2="2.147" xlink:href="#linear-gradient-4"/>
    <linearGradient id="linear-gradient-103" x1="0.388" y1="0.139" x2="0.979" y2="3.2" xlink:href="#linear-gradient-4"/>
    <linearGradient id="linear-gradient-105" x1="0.203" y1="0.366" x2="1.677" y2="0.83" xlink:href="#linear-gradient-4"/>
    <linearGradient id="linear-gradient-106" x1="-1.133" y1="-0.007" x2="5.535" y2="2.147" xlink:href="#linear-gradient-4"/>
  </defs>
  <g id="spend_Icon" data-name="spend Icon" transform="translate(-479.194 -419.114)">
    <g id="Group_1" data-name="Group 1" transform="translate(540.693 419.114)">
      <path id="Path_2" data-name="Path 2" d="M1865.92,588.276c1.748-7.005.555-11.289-.889-13.921-1.972-3.592-6.2-7.357-9.384-10.2-3.085-2.751-5.773-4.714-5.363-6.922a3.255,3.255,0,0,1,1.887-2.272c1.925-.813,4.2.811,5.281,1.579,3.431,2.446,4.384,5.674,5.366,5.378.534-.161.742-1.265.709-2.1-.126-3.152-3.779-5.444-7.018-7.421-4.648-2.836-6.891-2.892-8.975-5.865-.465-.662-1.9-2.711-1.16-4.005.732-1.278,3.17-1.093,3.689-1.054,4.441.336,7.21,4.255,7.537,3.953.287-.266-1.528-3.593-5.112-6.9-3.436-3.174-6.008-4.031-5.852-5.744a3.342,3.342,0,0,1,2.813-2.5c1.364-.2,2.052.721,5.439,2.479,1.8.936,3.505,1.819,3.818,1.439.447-.542-2.156-3.379-2.305-3.54-2.978-3.222-5.232-3.752-5.108-4.89.131-1.2,2.788-2.123,5.006-2.187a12.509,12.509,0,0,1,9.095,4.012c1.4,1.526,2.374,3.418,4.183,3.479.212.007.94.031,1.146-.352.462-.862-2.452-2.4-2.674-5.258a2.075,2.075,0,0,1,.34-1.693c1.081-1.027,4.467.4,6.655,2.313a15.035,15.035,0,0,1,3.9,5.9c.887,2.378.95,4.308,1.861,4.451.526.082,1.162-.458,1.44-1.053,1.015-2.17-2.712-5.128-1.931-6.244.524-.747,2.78-.254,4.387.6a9.871,9.871,0,0,1,4.886,6.622c.733,3.642-1.1,5.882.635,8.484.413.621.98,1.191,1.343,1.07.731-.244-.159-3.033,1.293-4.3a2.269,2.269,0,0,1,1.58-.568c2.3.284,3.778,8.334,3.689,14.441-.062,4.24-.228,15.684-9.487,24.454C1879.507,588.594,1868.151,588.366,1865.92,588.276Z" transform="translate(-1846.165 -523.423)" fill="url(#linear-gradient)"/>
      <path id="Path_3" data-name="Path 3" d="M2354.032,532.638c.181,2.174-1.354,2.706-1.107,4.743.293,2.417,2.6,2.835,4.743,5.534,1.362,1.713,1.583,2.988,3.145,10.1,1.8,8.21,2.115,9.271,2.23,9.983.835,5.13-5.013,13.659-15.125,23.4a33.39,33.39,0,0,1,3.531-.948,14.63,14.63,0,0,0,6.347-2.565c1.508-1.135,2.5-2.422,5.458-7.87,2.864-5.268,4.3-7.9,4.6-9.352.913-4.326.012-8.105-.7-11.1-1.342-5.626-2.96-6.166-2.635-9.7.3-3.31,1.874-4.444,1.159-7.168-.449-1.71-1.312-2.192-3.017-4.769a31.623,31.623,0,0,1-2.261-4.031c-.921-.183-1.712-.142-2,.262-.782,1.116,2.945,4.074,1.93,6.244-.278.594-.914,1.135-1.44,1.053-.912-.142-.974-2.073-1.861-4.451a15.033,15.033,0,0,0-3.9-5.9c-1.968-1.723-4.9-3.046-6.26-2.549,1.047,1.251,1.978,2.278,2.729,3.076C2352.428,529.628,2353.865,530.625,2354.032,532.638Z" transform="translate(-2324.257 -523.446)" fill="#fff" opacity="0.26" style="mix-blend-mode: soft-light;isolation: isolate"/>
      <path id="Path_4" data-name="Path 4" d="M1887.38,558.05c4.273,3.719,6.174,2.564,10.119,5.692,4.14,3.282,3.666,5.838,8.749,9.17,1.994,1.307,2.246,1.032,3.373,2,3.955,3.409,3.971,9.5,3.979,12.334.019,7.118-3.941,15.662-7.884,22.4-.445.935-.9,1.809-1.36,2.617l.238-.1c6.712-9.607,10.693-17.88,11.667-23.343.541-3.029,1.251-7.008-.746-10.761-1.4-2.639-2.846-2.724-4.419-6-1.9-3.948-.621-5.535-2.53-8.011-1.8-2.333-3.273-1.369-6.6-3.824-3.97-2.931-3.522-5.525-6.893-8.192a13.265,13.265,0,0,0-5.575-2.532,1.759,1.759,0,0,0-1,1.164c-.125,1.138,2.129,1.667,5.108,4.89.149.161,2.752,3,2.305,3.54-.313.38-2.014-.5-3.818-1.439-3.388-1.758-4.076-2.676-5.439-2.479a3.715,3.715,0,0,0-1.524.621A23.117,23.117,0,0,0,1887.38,558.05Z" transform="translate(-1883.376 -548.332)" fill="#fff" opacity="0.26" style="mix-blend-mode: soft-light;isolation: isolate"/>
      <path id="Path_5" data-name="Path 5" d="M1868.533,989.773a35.552,35.552,0,0,0,3.589-16.605c-.131-3.484-.325-8.682-3.9-13.281a24,24,0,0,0-10.33-7.168c-3.731-1.311-5.609-.858-8.644-2.741a14.4,14.4,0,0,1-2.878-2.362c-.663,1.3.734,3.291,1.191,3.943,2.084,2.972,4.326,3.028,8.975,5.865,3.24,1.977,6.893,4.269,7.019,7.421.033.839-.175,1.943-.709,2.1-.982.3-1.935-2.932-5.365-5.378-1.078-.769-3.356-2.393-5.281-1.579a3.224,3.224,0,0,0-.861.549,20.43,20.43,0,0,1,3.706,2.613c3.062,2.72,2.928,4.283,6.026,6.74,3.4,2.694,5,1.957,6.834,4.222,2.2,2.718,1.946,6.3,1.792,8.432a19.855,19.855,0,0,1-3.5,9.684q-.068.314-.143.635c.276-.123.548-.239.816-.351C1867.418,991.644,1867.975,990.727,1868.533,989.773Z" transform="translate(-1846.195 -928.455)" fill="#fff" opacity="0.26" style="mix-blend-mode: soft-light;isolation: isolate"/>
    </g>
    <g id="Group_2" data-name="Group 2" transform="translate(542.225 459.025)">
      <path id="Path_6" data-name="Path 6" d="M1880.072,1461.441c10.107-4.673,14.145-10.255,15.965-14.478,1.4-3.24,5.55-15.092,5.522-25.041,0-1.33-.089-5.093,1.948-6.2a2.907,2.907,0,0,1,3.129.213c1.3,1.169.012,3.365-.713,10.145a18.449,18.449,0,0,0,.581,7.972c.071.222.728,2.263,1.086,2.195.478-.091-.047-3.843-.235-9.833-.219-6.96.229-10.156,2.095-12.874.424-.618,1.487-2.166,2.389-1.96,1.312.3,1.767,4.194,1.542,7.115-.217,2.814-1,3.828-1.356,8.09-.257,3.036.052,3.538.342,3.654.656.261,2-1.132,2.75-2.469,1.711-3.061.156-5.6-.368-12.559-.329-4.37-.5-7.135,1.044-8.119s4.206.163,5.769,1.523c2.7,2.353,2.876,6.039,3.048,9.744.127,2.743.422,9.091-1.412,13.11-.413.905-.619,2.183-.387,2.288.385.173,2.424-2.716,3.543-5.959a20.061,20.061,0,0,0,.761-9.662c-.84-4.88-3.133-7.093-2.158-8.136.871-.932,3.677-.209,5.5,1.306,3.255,2.7,3.06,7.621,2.893,11.853-.128,3.239-.537,13.577-5.87,17.35-.712.5-2.692,1.726-2.545,3.108a1.894,1.894,0,0,0,1.426,1.59c2.563.37,5.729-8.034,6.146-9.165,1.851-5.018.242-8.423,2.066-9.343,1.243-.626,3.262.138,4.351,1.383,3.257,3.727.345,14.246-6.258,19.909-7.135,6.12-17.628,5.752-17.488,6.964.061.526,2.049.692,2.885.761.972.081,10.4.718,16.26-6.131,2.614-3.057,3.115-5.968,4.292-5.782s2.1,3.306,1.738,5.613c-1.15,7.354-16.014,10.685-22.094,12.048C1910.243,1463.457,1897.118,1465.109,1880.072,1461.441Z" transform="translate(-1880.072 -1406.921)" fill="url(#linear-gradient-2)"/>
      <path id="Path_7" data-name="Path 7" d="M1930.461,1417.177c.939,4.02-1.392,5.249-2.1,11.631-.579,5.218.858,5.482.183,8.8-.972,4.778-4.623,7.534-10.976,12.329-4.218,3.184-9.285,6.936-17.159,9.322a48.063,48.063,0,0,1-9.785,1.883q-.283.076-.571.15a71.044,71.044,0,0,0,12.907-.43,23.19,23.19,0,0,0,7.521-1.921c2.93-1.387,3.292-2.452,8.264-6.166,5.354-4,5.568-3.237,7.5-5.371,3.248-3.592,2.291-5.362,5.575-8.138,2.587-2.187,4.06-1.83,5.553-4.035,1-1.471.905-2.464,1.408-6.544,1.1-8.893,2.2-9.572,1.155-11.724-1.154-2.385-3-2.573-4.026-5.647a9.567,9.567,0,0,1-.369-1.5,1.545,1.545,0,0,0-1.051.407c-.975,1.043,1.318,3.257,2.158,8.136a20.064,20.064,0,0,1-.761,9.662c-1.119,3.243-3.158,6.132-3.543,5.959-.232-.1-.026-1.382.387-2.288,1.834-4.019,1.539-10.367,1.411-13.11-.172-3.705-.343-7.391-3.048-9.744-1.49-1.3-3.985-2.393-5.546-1.645.465.889,1,1.921,1.587,3.068A60.053,60.053,0,0,1,1930.461,1417.177Z" transform="translate(-1889.601 -1406.948)" fill="#fff" opacity="0.26" style="mix-blend-mode: soft-light;isolation: isolate"/>
      <path id="Path_8" data-name="Path 8" d="M1938.621,1862.633c-1.178-.185-1.679,2.725-4.292,5.782-5.856,6.848-15.288,6.212-16.26,6.131-.835-.07-2.824-.235-2.885-.761-.14-1.212,10.353-.845,17.488-6.965,6.6-5.663,9.514-16.181,6.258-19.909a4.962,4.962,0,0,0-2.726-1.551c-.017,1.209,0,2.608.083,4.155.226,4.219.729,5.518.191,7.751a12.781,12.781,0,0,1-4.357,6.54c-2.927,2.532-4.33,1.773-11.678,5.054a36.582,36.582,0,0,0-7.471,4.132,28.481,28.481,0,0,0-5.235,5.219c-2.255,2.726-8.854,4.68-27.511,1.791l-.152.072c17.046,3.669,30.171,2.016,38.193.218,6.08-1.363,20.943-4.694,22.094-12.048C1940.72,1865.939,1939.8,1862.818,1938.621,1862.633Z" transform="translate(-1880.072 -1825.555)" fill="#fff" opacity="0.26" style="mix-blend-mode: soft-light;isolation: isolate"/>
      <path id="Path_9" data-name="Path 9" d="M1918.646,1526.4c-.372,3.872-1.708,3.83-1.767,7.272-.066,3.934,1.662,4.967.72,7.231-.813,1.951-2.356,1.8-4.624,4.318a16,16,0,0,0-3.123,5.516c-1.006,2.446-4.4,5.719-14.448,9.678l.33-.027a35.021,35.021,0,0,0,10.681-4.8c2.693-1.829,3.012-2.644,8.058-6.206,5.168-3.649,6.56-4.012,8.366-6.431.809-1.083,3.557-4.763,3.21-9.326-.294-3.867-2.547-4.886-1.941-8.4.385-2.234,1.4-2.45,1.75-5.174.295-2.31-.321-3.071-.311-5.568a15.547,15.547,0,0,1,.444-3.589c-.769.271-1.552,1.409-1.9,1.918-1.866,2.717-2.314,5.913-2.1,12.874.188,5.99.713,9.742.235,9.833-.358.068-1.014-1.972-1.086-2.194a18.452,18.452,0,0,1-.581-7.972c.725-6.78,2.009-8.976.713-10.145a2.543,2.543,0,0,0-1.846-.56,11.021,11.021,0,0,0-1.193,3.316C1917.638,1521.222,1919.039,1522.3,1918.646,1526.4Z" transform="translate(-1894.711 -1506.192)" fill="#fff" opacity="0.26" style="mix-blend-mode: soft-light;isolation: isolate"/>
    </g>
    <g id="Group_4" data-name="Group 4" transform="translate(479.194 432.613)">
      <path id="Path_10" data-name="Path 10" d="M522.016,888.491a28.12,28.12,0,0,1-18.937,2.517c-6.184-1.469-14.064-5.79-16.317-12.671-.654-2-1.391-5.918-.057-6.682.931-.534,2.552.652,2.867.882,2.695,1.971,1.951,4.691,4.663,6.937,1.054.873,2.573,1.626,2.9,1.287.732-.767-5.836-5.892-9.535-14.475-3.026-7.022-4.227-16.577-.552-19.12.138-.1,1.593-1.076,2.661-.551,2.246,1.105-.435,7.291,3.051,12.492.819,1.222,2.038,2.479,2.466,2.253.911-.483-2.772-7.134-4.314-17.084-1.348-8.7.633-12.36,2.053-14.111.382-.471,2.192-2.613,3.33-2.174,1.074.414,1.036,2.927,1.007,4.926-.07,4.741-1.357,6.151-.78,9.075.5,2.539,1.871,4.679,2.313,4.55.547-.16-.625-3.708-.685-8.8-.03-2.56-.138-11.924,4.867-14.727,1.079-.6,2.778-1.118,3.5-.443.745.7.061,2.3-1.418,6.652a57.12,57.12,0,0,0-2.625,10.115c-.466,3.116-.279,4.293.322,4.595.5.253,1.277-.122,1.749-.531,2.344-2.032-.922-6.486,1.191-11.611.639-1.549,2.051-3.844,3.342-3.693,2.242.263,2.991,7.771,3.072,8.643.335,3.573.812,8.662-1.67,13.988-1.266,2.716-3.169,5.21-2.146,6.774a1.681,1.681,0,0,0,1.414.832c1.343-.158,1.384-3.164,3.651-7.067.943-1.623,1.964-3.382,3.056-3.272,1.236.125,2.129,2.6,2.384,4.507.72,5.385-3.147,9.987-2.07,10.787a3.718,3.718,0,0,0,1.281-.026c1.774-.148,2.2-.418,2.784-.3,1.353.274,2.008,2.3,2.074,2.514,1.085,3.5-3.4,5.869-5.682,13.284-1.179,3.826-.653,5.36-.316,6.073C518.095,887.354,520.985,888.23,522.016,888.491Z" transform="translate(-484.766 -822.254)" fill="url(#linear-gradient-3)"/>
      <g id="Group_3" data-name="Group 3" transform="translate(1.195 0.001)" style="mix-blend-mode: soft-light;isolation: isolate">
        <path id="Path_11" data-name="Path 11" d="M1306.688,2287.031l-.347.033.1.026Z" transform="translate(-1270.422 -2220.863)" fill="url(#linear-gradient-4)"/>
        <path id="Path_12" data-name="Path 12" d="M1308.582,2285.424l-.037.019q.468-.072.954-.166c-.242.031-.476.056-.706.08l-.247.059Z" transform="translate(-1272.526 -2219.187)" fill="url(#linear-gradient-5)"/>
        <path id="Path_13" data-name="Path 13" d="M1215.193,2236.054a7.7,7.7,0,0,0,2.92,1.942A14.12,14.12,0,0,1,1215.193,2236.054Z" transform="translate(-1183.391 -2172.188)" fill="url(#linear-gradient-6)"/>
        <path id="Path_14" data-name="Path 14" d="M1302.627,2288.793l.239-.036-.062-.012-.189.043Z" transform="translate(-1266.864 -2222.5)" fill="url(#linear-gradient-7)"/>
        <path id="Path_15" data-name="Path 15" d="M551.17,981.74c.205,4.081,2.82,5.148,6.055,11.516,1.953,3.844,1.326,4.1,2.828,7.109.827,1.659,6.236,12.053,17.318,14.4a22.068,22.068,0,0,0,7.654.237l.078-.018-.147-.063c-4.49.322-6.809-.854-8.11-2.1-1.728-1.657-1.28-3.3-3.857-6.076-2.665-2.866-4.015-2.557-5.375-4.6-2.567-3.847,1.016-6.783-.931-11.853-1.728-4.5-5.246-4.005-6.508-8.677-.832-3.079.622-3.57-.128-7.74-.8-4.473-2.6-4.587-2.872-8.235-.249-3.334,1.182-4.144,1.349-8.284a18.652,18.652,0,0,0-.087-2.683,9.1,9.1,0,0,0-2.083,1.931c-1.42,1.751-3.4,5.414-2.053,14.111,1.542,9.95,5.225,16.6,4.314,17.084-.427.227-1.647-1.031-2.466-2.253-3.486-5.2-.8-11.387-3.051-12.492a2.128,2.128,0,0,0-1.645.03,16.893,16.893,0,0,1,.291,1.972C552.043,978.485,551.039,979.143,551.17,981.74Z" transform="translate(-549.353 -948.697)" fill="#fff" opacity="0.8" style="mix-blend-mode: soft-light;isolation: isolate"/>
        <path id="Path_16" data-name="Path 16" d="M1295.152,2286.319c-.123-.025-.247-.051-.375-.08l.207.093Z" transform="translate(-1259.38 -2220.107)" fill="url(#linear-gradient-8)"/>
        <path id="Path_17" data-name="Path 17" d="M1299.505,2288.09l.189-.043-.169-.033-.168.013Z" transform="translate(-1263.755 -2221.801)" fill="url(#linear-gradient-9)"/>
        <path id="Path_18" data-name="Path 18" d="M1300.877,2289.716l.09-.013-.012-.005Z" transform="translate(-1265.205 -2223.409)" fill="url(#linear-gradient-10)"/>
        <path id="Path_19" data-name="Path 19" d="M546.881,1929.9a43.685,43.685,0,0,1-10.619,1.086c-4.664-.1-9.7-.287-12.731-3.607a26.618,26.618,0,0,0-2.45-2.92c-2.907-2.706-4.854-2.4-6.407-4.594-1.06-1.5-.542-2.2-1.379-4.888a17.1,17.1,0,0,0-.818-2.116,1.1,1.1,0,0,0-.524.135c-1.334.764-.6,4.683.057,6.682,2.252,6.881,10.132,11.2,16.317,12.671a28.055,28.055,0,0,0,18.74-2.418l-.1-.041Z" transform="translate(-511.209 -1863.596)" fill="#fff" opacity="0.8" style="mix-blend-mode: soft-light;isolation: isolate"/>
        <path id="Path_20" data-name="Path 20" d="M841.569,848.019c-1.092-.11-2.113,1.649-3.056,3.272-2.267,3.9-2.308,6.909-3.651,7.067a1.68,1.68,0,0,1-1.414-.832c-1.023-1.564.88-4.059,2.146-6.774,2.482-5.326,2.005-10.416,1.67-13.988-.082-.872-.831-8.381-3.073-8.643-1.291-.151-2.7,2.144-3.342,3.693-2.113,5.125,1.152,9.579-1.191,11.611-.472.41-1.246.784-1.75.531-.6-.3-.788-1.479-.322-4.595a57.124,57.124,0,0,1,2.625-10.115c1.479-4.352,2.163-5.956,1.418-6.652a2.01,2.01,0,0,0-1.785-.222,8.014,8.014,0,0,1-.222,1.891c-.561,2.314-1.757,2.62-2.409,5.2-.582,2.305.211,2.693-.247,5.614-.465,2.963-1.334,2.9-1.635,5.2-.422,3.221,1.241,3.677,1.55,7.908.285,3.905-1.058,4.531-.205,7.057.883,2.617,2.431,2.261,4.173,5.189,2.37,3.986.135,5.708,2.49,9.553,1.753,2.862,3.773,3.184,4.2,5.95.252,1.62-.353,2.069-.066,3.9a9.778,9.778,0,0,0,2.83,5.187,12.188,12.188,0,0,0,6.166,3.384q-.345-.157-.675-.325a7.709,7.709,0,0,1-2.92-1.942,9.14,9.14,0,0,1-2.335-3.029,10.685,10.685,0,0,1-1.037-4.124c.032-3.709,2.658-5.135,1.914-7.275s-3.811-2.019-4-3.832c-.141-1.328,1.48-1.612,2.227-3.746.838-2.392-.75-3.316-.338-6.155.405-2.8,2.117-3.084,2.883-5.873a8.652,8.652,0,0,0,.17-3.668A1.339,1.339,0,0,0,841.569,848.019Z" transform="translate(-811.077 -822.276)" fill="#fff" opacity="0.8" style="mix-blend-mode: soft-light;isolation: isolate"/>
        <path id="Path_21" data-name="Path 21" d="M1280.887,2279.446l.148-.012a10.874,10.874,0,0,1-1.2-.394q.331.168.675.325C1280.64,2279.395,1280.765,2279.421,1280.887,2279.446Z" transform="translate(-1245.116 -2213.233)" fill="url(#linear-gradient-11)"/>
        <path id="Path_22" data-name="Path 22" d="M1306.887,2288.344l-.079.018.062.012.017,0,.037-.019Z" transform="translate(-1270.868 -2222.117)" fill="url(#linear-gradient-12)"/>
        <path id="Path_23" data-name="Path 23" d="M1308.186,2288.961l.009,0-.017,0Z" transform="translate(-1272.176 -2222.702)" fill="url(#linear-gradient-13)"/>
        <path id="Path_24" data-name="Path 24" d="M1302.879,2289.049l.1.041.151-.076-.008,0Z" transform="translate(-1267.117 -2222.755)" fill="url(#linear-gradient-14)"/>
        <path id="Path_25" data-name="Path 25" d="M1303.239,2287.8l.08-.018-.1-.027-.148.012Z" transform="translate(-1267.299 -2221.559)" fill="url(#linear-gradient-15)"/>
      </g>
    </g>
    <g id="Group_10" data-name="Group 10" transform="translate(501.498 431.749)">
      <path id="Path_26" data-name="Path 26" d="M1149.854,804.408l4.959-.333.259,5.269H1146.9l1.779-4.036A1.535,1.535,0,0,1,1149.854,804.408Z" transform="translate(-1139.292 -804.032)" fill="url(#linear-gradient-16)"/>
      <path id="Path_27" data-name="Path 27" d="M1267.131,803.8a1.142,1.142,0,0,1,1.093-.684l40.934,1.643a1.535,1.535,0,0,1,1.294.814l2.211,4.166-47.362-1.749Z" transform="translate(-1252.345 -803.117)" fill="url(#linear-gradient-17)"/>
      <path id="Path_28" data-name="Path 28" d="M978.524,880.085v79.1a3.779,3.779,0,0,0,2.906,3.677L990,964.9l9.385-64.584-9.115-25.062-8.447,1.084A3.779,3.779,0,0,0,978.524,880.085Z" transform="translate(-978.524 -871.993)" fill="#d8dee8"/>
      <path id="Path_29" data-name="Path 29" d="M1179.563,878.544v83.013c0,1.912,1.623,3.422,4.011,4.378l50.944-3.7c1.24-1.22,2.573-2.653,2.573-4.378V880.783a3.292,3.292,0,0,0-3.147-3.289L1183,875.255A3.292,3.292,0,0,0,1179.563,878.544Z" transform="translate(-1170.481 -871.994)" fill="url(#linear-gradient-18)"/>
      <g id="Group_6" data-name="Group 6" transform="translate(3.805 3.79)">
        <g id="Group_5" data-name="Group 5">
          <path id="Path_30" data-name="Path 30" d="M1064.174,971.992V890.481a4.125,4.125,0,0,1,2.388-3.466l-1.514.194a3.487,3.487,0,0,0-2.287,3.272v81.511a3.486,3.486,0,0,0,1.153,2.59l2.149.51A3.489,3.489,0,0,1,1064.174,971.992Z" transform="translate(-1062.761 -887.015)" fill="url(#linear-gradient-19)"/>
        </g>
      </g>
      <path id="Path_31" data-name="Path 31" d="M1483.014,885.318l-42.6-1.872c.012.508.046,1.024.109,1.549,1.145,9.528,10.033,11.05,13.455,21.662,3.135,9.724-3.171,12.034.538,20.586,3.475,8.014,9.965,8.182,13.858,18.3,1.708,4.439.846,5.414,2.288,10.091a35.788,35.788,0,0,0,8.028,13.655l4.414-.32a3.292,3.292,0,0,0,3.054-3.283V888.607A3.292,3.292,0,0,0,1483.014,885.318Z" transform="translate(-1419.552 -879.817)" fill="#f4f7fa"/>
      <path id="Path_32" data-name="Path 32" d="M1353.165,1076.3v22.449a2.885,2.885,0,0,0,2.885,2.885h37.623a2.885,2.885,0,0,0,2.885-2.885v-20.7a2.885,2.885,0,0,0-2.751-2.882l-37.623-1.75A2.885,2.885,0,0,0,1353.165,1076.3Z" transform="translate(-1336.241 -1061.208)" fill="url(#linear-gradient-20)"/>
      <path id="Path_33" data-name="Path 33" d="M1395.253,1099.521v-20.7a2.885,2.885,0,0,0-2.751-2.882l-36.909-1.717a2.886,2.886,0,0,0-2.428,2.849v22.449a2.885,2.885,0,0,0,2.885,2.885h36.318A2.885,2.885,0,0,0,1395.253,1099.521Z" transform="translate(-1336.241 -1061.976)" fill="url(#linear-gradient-21)"/>
      <path id="Path_34" data-name="Path 34" d="M1989.076,1157.253v1.354a1.088,1.088,0,0,0,1.048,1.088l8.856.324a1.089,1.089,0,0,0,1.128-1.088v-1.354a1.089,1.089,0,0,0-1.049-1.087l-8.856-.324A1.088,1.088,0,0,0,1989.076,1157.253Z" transform="translate(-1943.426 -1140.216)" fill="#f4f7fa" opacity="0.7" style="mix-blend-mode: soft-light;isolation: isolate"/>
      <path id="Path_35" data-name="Path 35" d="M2329.492,986.872a1.192,1.192,0,1,1-1.177-1.379A1.29,1.29,0,0,1,2329.492,986.872Z" transform="translate(-2266.215 -977.254)" fill="url(#linear-gradient-22)"/>
      <g id="Group_7" data-name="Group 7" transform="translate(16.924 45.778)">
        <path id="Path_36" data-name="Path 36" d="M1708.738,2044.363l-.045-3.346a2.113,2.113,0,0,0-2.14-2.084l-9.125.121a2.113,2.113,0,0,0-2.084,2.141l.046,3.485a2.112,2.112,0,0,0,2.173,2.084l9.123-.26A2.113,2.113,0,0,0,1708.738,2044.363Z" transform="translate(-1679.886 -2028.884)" fill="url(#linear-gradient-23)"/>
        <path id="Path_37" data-name="Path 37" d="M1692.355,1818.637l.057,4.33a2.113,2.113,0,0,0,2.14,2.084l9.125-.121a2.112,2.112,0,0,0,2.084-2.14l-.056-4.209a2.113,2.113,0,0,0-2.113-2.084h-9.126A2.112,2.112,0,0,0,1692.355,1818.637Z" transform="translate(-1677.032 -1816.496)" fill="url(#linear-gradient-24)"/>
        <path id="Path_38" data-name="Path 38" d="M2026.641,2040.16a2.113,2.113,0,0,0,2.173,2.084l9.31-.265a1.471,1.471,0,0,0,1.429-1.464c.007-1.534.016-3.757.016-3.757a2.112,2.112,0,0,0-2.141-2.112l-8.746.116a2.112,2.112,0,0,0-2.084,2.14Z" transform="translate(-1996.177 -2024.791)" fill="url(#linear-gradient-25)"/>
        <path id="Path_39" data-name="Path 39" d="M1698.085,2244.688l.046,3.48a2.113,2.113,0,0,0,2.2,2.083l9.121-.4a2.113,2.113,0,0,0,2.02-2.139l-.044-3.342a2.112,2.112,0,0,0-2.173-2.083l-9.123.26A2.113,2.113,0,0,0,1698.085,2244.688Z" transform="translate(-1682.503 -2223.053)" fill="url(#linear-gradient-26)"/>
        <path id="Path_40" data-name="Path 40" d="M1353.165,2049.291a2.113,2.113,0,0,0,2.173,2.112l9.666-.276a2.112,2.112,0,0,0,2.052-2.14l-.047-3.574a2.113,2.113,0,0,0-2.141-2.084l-10.1.134a1.619,1.619,0,0,0-1.6,1.616C1353.168,2046.8,1353.165,2049.291,1353.165,2049.291Z" transform="translate(-1353.165 -2033.082)" fill="url(#linear-gradient-27)"/>
        <path id="Path_41" data-name="Path 41" d="M1714.227,2451.873l-.056-4.207a2.113,2.113,0,0,0-2.2-2.083l-9.121.4a2.112,2.112,0,0,0-2.02,2.138l.058,4.38a2.113,2.113,0,0,0,2.245,2.081l9.119-.573A2.113,2.113,0,0,0,1714.227,2451.873Z" transform="translate(-1685.12 -2417.164)" fill="url(#linear-gradient-28)"/>
        <path id="Path_42" data-name="Path 42" d="M1367.258,2462.136a2.112,2.112,0,0,0-2.2-2.082l-10.313.45a1.619,1.619,0,0,0-1.549,1.609c-.01,1.98-.026,5.165-.026,5.165a2.112,2.112,0,0,0,2.245,2.108l9.928-.623a2.113,2.113,0,0,0,1.98-2.136Z" transform="translate(-1353.165 -2430.98)" fill="url(#linear-gradient-29)"/>
        <path id="Path_43" data-name="Path 43" d="M1366.931,1822.988l-.058-4.407a2.113,2.113,0,0,0-2.113-2.084h-9.482a2.112,2.112,0,0,0-2.113,2.113v4.534a2.113,2.113,0,0,0,2.141,2.113l9.541-.127A2.112,2.112,0,0,0,1366.931,1822.988Z" transform="translate(-1353.165 -1816.496)" fill="url(#linear-gradient-30)"/>
        <path id="Path_44" data-name="Path 44" d="M2031.945,2434.221l.054,4.095a2.113,2.113,0,0,0,2.245,2.081l8.45-.531a2.113,2.113,0,0,0,1.98-2.108v-3.936a2.113,2.113,0,0,0-2.2-2.11l-8.5.372A2.113,2.113,0,0,0,2031.945,2434.221Z" transform="translate(-2001.281 -2403.917)" fill="url(#linear-gradient-31)"/>
        <path id="Path_45" data-name="Path 45" d="M2042.122,2235.278a2.113,2.113,0,0,0-2.173-2.112l-8.625.246a2.113,2.113,0,0,0-2.052,2.14l.043,3.253a2.112,2.112,0,0,0,2.2,2.082l9.171-.4a1.47,1.47,0,0,0,1.407-1.459C2042.108,2237.5,2042.122,2235.278,2042.122,2235.278Z" transform="translate(-1998.729 -2214.343)" fill="url(#linear-gradient-32)"/>
        <path id="Path_46" data-name="Path 46" d="M2023.723,1822.768a2.113,2.113,0,0,0,2.14,2.084l9.45-.125a1.47,1.47,0,0,0,1.452-1.467c0-1.8.006-4.651.006-4.651a2.112,2.112,0,0,0-2.113-2.113h-8.878a2.112,2.112,0,0,0-2.112,2.14Z" transform="translate(-1993.379 -1816.496)" fill="url(#linear-gradient-33)"/>
        <path id="Path_47" data-name="Path 47" d="M1367.133,2253.807a2.113,2.113,0,0,0-2.173-2.084l-10.206.291a1.62,1.62,0,0,0-1.574,1.613c-.007,1.71-.016,4.206-.016,4.206a2.113,2.113,0,0,0,2.2,2.11l9.791-.428a2.113,2.113,0,0,0,2.02-2.138Z" transform="translate(-1353.165 -2232.062)" fill="url(#linear-gradient-34)"/>
      </g>
      <g id="Group_8" data-name="Group 8" transform="translate(17.634 45.829)">
        <path id="Path_48" data-name="Path 48" d="M1724.453,2045.5l-.044-3.346a2.112,2.112,0,0,0-2.14-2.084l-9.125.121a2.113,2.113,0,0,0-2.084,2.14l.047,3.485a2.112,2.112,0,0,0,2.173,2.084l9.123-.26A2.113,2.113,0,0,0,1724.453,2045.5Z" transform="translate(-1695.601 -2030.018)" fill="url(#linear-gradient-35)"/>
        <path id="Path_49" data-name="Path 49" d="M1708.07,1819.77l.058,4.33a2.112,2.112,0,0,0,2.14,2.084l9.125-.121a2.113,2.113,0,0,0,2.084-2.14l-.056-4.209a2.113,2.113,0,0,0-2.113-2.085h-9.126A2.113,2.113,0,0,0,1708.07,1819.77Z" transform="translate(-1692.747 -1817.629)" fill="url(#linear-gradient-36)"/>
        <path id="Path_50" data-name="Path 50" d="M2042.355,2041.294a2.113,2.113,0,0,0,2.173,2.084l9.31-.265a1.471,1.471,0,0,0,1.429-1.464c.007-1.533.016-3.756.016-3.756a2.113,2.113,0,0,0-2.14-2.113l-8.746.116a2.113,2.113,0,0,0-2.084,2.141Z" transform="translate(-2011.891 -2025.925)" fill="url(#linear-gradient-37)"/>
        <path id="Path_51" data-name="Path 51" d="M1713.8,2245.821l.046,3.48a2.112,2.112,0,0,0,2.2,2.083l9.121-.4a2.113,2.113,0,0,0,2.02-2.139l-.044-3.341a2.113,2.113,0,0,0-2.173-2.084l-9.123.26A2.113,2.113,0,0,0,1713.8,2245.821Z" transform="translate(-1698.219 -2224.186)" fill="url(#linear-gradient-38)"/>
        <path id="Path_52" data-name="Path 52" d="M1368.88,2050.425a2.113,2.113,0,0,0,2.173,2.112l9.666-.275a2.113,2.113,0,0,0,2.052-2.14l-.047-3.574a2.113,2.113,0,0,0-2.141-2.084l-10.1.134a1.619,1.619,0,0,0-1.6,1.616C1368.883,2047.932,1368.88,2050.425,1368.88,2050.425Z" transform="translate(-1368.88 -2034.216)" fill="url(#linear-gradient-39)"/>
        <path id="Path_53" data-name="Path 53" d="M1729.94,2453.006l-.056-4.206a2.112,2.112,0,0,0-2.2-2.083l-9.121.4a2.113,2.113,0,0,0-2.02,2.139l.058,4.38a2.113,2.113,0,0,0,2.245,2.081l9.119-.573A2.112,2.112,0,0,0,1729.94,2453.006Z" transform="translate(-1700.834 -2418.298)" fill="url(#linear-gradient-40)"/>
        <path id="Path_54" data-name="Path 54" d="M1382.973,2463.27a2.112,2.112,0,0,0-2.2-2.082l-10.313.45a1.62,1.62,0,0,0-1.549,1.61c-.01,1.981-.026,5.165-.026,5.165a2.113,2.113,0,0,0,2.245,2.109l9.928-.624a2.112,2.112,0,0,0,1.98-2.136Z" transform="translate(-1368.88 -2432.114)" fill="url(#linear-gradient-41)"/>
        <path id="Path_55" data-name="Path 55" d="M1382.646,1824.121l-.058-4.408a2.113,2.113,0,0,0-2.113-2.085h-9.482a2.113,2.113,0,0,0-2.113,2.113v4.534a2.113,2.113,0,0,0,2.141,2.113l9.541-.127A2.113,2.113,0,0,0,1382.646,1824.121Z" transform="translate(-1368.88 -1817.629)" fill="url(#linear-gradient-42)"/>
        <path id="Path_56" data-name="Path 56" d="M2047.66,2435.354l.054,4.095a2.113,2.113,0,0,0,2.245,2.081l8.45-.531a2.113,2.113,0,0,0,1.98-2.108v-3.936a2.113,2.113,0,0,0-2.2-2.11l-8.5.372A2.113,2.113,0,0,0,2047.66,2435.354Z" transform="translate(-2016.996 -2405.05)" fill="url(#linear-gradient-43)"/>
        <path id="Path_57" data-name="Path 57" d="M2057.836,2236.412a2.112,2.112,0,0,0-2.173-2.111l-8.625.246a2.113,2.113,0,0,0-2.052,2.14l.043,3.253a2.113,2.113,0,0,0,2.2,2.083l9.171-.4a1.47,1.47,0,0,0,1.406-1.458C2057.823,2238.635,2057.836,2236.412,2057.836,2236.412Z" transform="translate(-2014.443 -2215.478)" fill="url(#linear-gradient-44)"/>
        <path id="Path_58" data-name="Path 58" d="M2039.437,1823.9a2.113,2.113,0,0,0,2.141,2.084l9.45-.125a1.47,1.47,0,0,0,1.451-1.467c0-1.8.007-4.652.007-4.652a2.113,2.113,0,0,0-2.113-2.113h-8.878a2.113,2.113,0,0,0-2.113,2.141Z" transform="translate(-2009.093 -1817.629)" fill="url(#linear-gradient-45)"/>
        <path id="Path_59" data-name="Path 59" d="M1382.848,2254.941a2.113,2.113,0,0,0-2.173-2.083l-10.206.291a1.619,1.619,0,0,0-1.574,1.612c-.007,1.71-.016,4.206-.016,4.206a2.112,2.112,0,0,0,2.2,2.11l9.791-.428a2.112,2.112,0,0,0,2.02-2.138Z" transform="translate(-1368.88 -2233.196)" fill="url(#linear-gradient-46)"/>
      </g>
      <g id="Group_9" data-name="Group 9" transform="translate(34.4 45.829)" opacity="0.3" style="mix-blend-mode: soft-light;isolation: isolate">
        <path id="Path_60" data-name="Path 60" d="M2050.373,1817.629h-8.878a2.113,2.113,0,0,0-2.113,2.141l.055,4.132a2.113,2.113,0,0,0,2.141,2.084l9.45-.125a1.47,1.47,0,0,0,1.451-1.467c0-1.8.007-4.652.007-4.652A2.113,2.113,0,0,0,2050.373,1817.629Z" transform="translate(-2025.86 -1817.629)" fill="#f4f7fa"/>
        <path id="Path_61" data-name="Path 61" d="M2053.143,2035.78l-8.746.116a2.113,2.113,0,0,0-2.084,2.141l.043,3.258a2.113,2.113,0,0,0,2.173,2.084l9.31-.265a1.47,1.47,0,0,0,1.429-1.464c.007-1.533.017-3.756.017-3.756A2.113,2.113,0,0,0,2053.143,2035.78Z" transform="translate(-2028.658 -2025.925)" fill="#f4f7fa"/>
        <path id="Path_62" data-name="Path 62" d="M2109.389,2438.891v-3.936a2.113,2.113,0,0,0-2.2-2.111l-8.207.359c.127.548.288,1.151.5,1.835a32.9,32.9,0,0,0,2.689,6.291l5.243-.33A2.112,2.112,0,0,0,2109.389,2438.891Z" transform="translate(-2082.763 -2405.051)" fill="#f4f7fa"/>
        <path id="Path_63" data-name="Path 63" d="M2059.427,2242.021c.041,0,.082,0,.123,0l9.171-.4a1.471,1.471,0,0,0,1.407-1.458c.01-1.528.024-3.75.024-3.75a2.112,2.112,0,0,0-2.173-2.111l-8.625.246a2.105,2.105,0,0,0-1.469.656c.022.057.045.113.067.171A24.546,24.546,0,0,1,2059.427,2242.021Z" transform="translate(-2043.527 -2215.478)" fill="#f4f7fa"/>
        <path id="Path_64" data-name="Path 64" d="M1907.935,2040.065l-2.425.032a26.491,26.491,0,0,1,4.607,5.184l-.042-3.131A2.113,2.113,0,0,0,1907.935,2040.065Z" transform="translate(-1898.035 -2030.017)" fill="#f4f7fa"/>
        <path id="Path_65" data-name="Path 65" d="M1752,1823.923l-.056-4.209a2.112,2.112,0,0,0-2.112-2.085h-9.126a2.111,2.111,0,0,0-.669.11c.155.475.343.97.567,1.487a19.5,19.5,0,0,0,5.154,6.892l4.158-.055A2.113,2.113,0,0,0,1752,1823.923Z" transform="translate(-1740.039 -1817.629)" fill="#f4f7fa"/>
      </g>
      <path id="Path_66" data-name="Path 66" d="M1534.13,1326.09h-27.173a1.426,1.426,0,0,1-1.426-1.426v-10.522a1.425,1.425,0,0,1,1.473-1.425l27.173.913a1.425,1.425,0,0,1,1.377,1.425v9.608A1.425,1.425,0,0,1,1534.13,1326.09Z" transform="translate(-1481.725 -1289.697)" fill="#f4f7fa" opacity="0.7" style="mix-blend-mode: soft-light;isolation: isolate"/>
      <path id="Path_67" data-name="Path 67" d="M1543.3,1105.7a2.885,2.885,0,0,0,2.885-2.885v-20.7a2.885,2.885,0,0,0-2.751-2.882l-33.563-1.561c3.229,4.2,8.1,7.208,10.427,14.438,2.087,6.472-.008,9.66-.549,13.589Z" transform="translate(-1485.866 -1065.266)" fill="#f4f7fa" opacity="0.3" style="mix-blend-mode: soft-light;isolation: isolate"/>
    </g>
    <g id="Group_29" data-name="Group 29" transform="translate(486.423 500.985)">
      <g id="Group_12" data-name="Group 12" transform="translate(5.095 30.204)">
        <path id="Path_68" data-name="Path 68" d="M757.839,3057.064v4.065c0,1.313,8.206,2.378,18.329,2.378s18.329-1.065,18.329-2.378v-4.065Z" transform="translate(-757.828 -3054.685)" fill="url(#linear-gradient-47)"/>
        <path id="Path_69" data-name="Path 69" d="M794.5,3006.787c0,1.314-8.206,2.378-18.329,2.378s-18.329-1.064-18.329-2.378,8.206-2.379,18.329-2.379S794.5,3005.473,794.5,3006.787Z" transform="translate(-757.828 -3004.408)" fill="url(#linear-gradient-48)"/>
        <path id="Path_70" data-name="Path 70" d="M775.942,3055.054c-8.965,0-18.34-.856-18.34-2.508,0-.09.032-.25.123-.25s.052.125.052.216c0,1.047,7.46,2.214,18.165,2.214s18.165-1.167,18.165-2.214c0-.091.016-.176.106-.176s.069.121.069.212C794.282,3054.2,784.907,3055.054,775.942,3055.054Z" transform="translate(-757.602 -3050.133)" fill="url(#linear-gradient-49)"/>
        <g id="Group_11" data-name="Group 11" transform="translate(6.794 1.478)">
          <path id="Path_71" data-name="Path 71" d="M917.805,3038.148c.18-.125.371-.247.576-.368a3.6,3.6,0,0,1,.787-.328,7.519,7.519,0,0,1,1.208-.239,15.318,15.318,0,0,1,1.81-.1q1.063-.005,2,.068a13.532,13.532,0,0,1,1.641.217,5.067,5.067,0,0,1,1.152.357.911.911,0,0,1,.526.488l2.064.021a2.043,2.043,0,0,1,.4.037c.115.024.171.054.171.089v.17l-2.653-.026a1.335,1.335,0,0,1-.711.571,7.2,7.2,0,0,1-1.455.449l-.966-.135a1.121,1.121,0,0,1-.213-.05c-.056-.021-.083-.042-.083-.066s.075-.07.224-.112.318-.094.506-.156a5.112,5.112,0,0,0,.554-.219.752.752,0,0,0,.363-.3l-6.263-.062a5.883,5.883,0,0,1-.553.357,3.6,3.6,0,0,1-.812.316,8.554,8.554,0,0,1-1.26.228,17.761,17.761,0,0,1-1.9.093c-.574,0-1.133-.019-1.68-.065a11.41,11.41,0,0,1-1.458-.208,4.522,4.522,0,0,1-1.046-.343c-.271-.136-.424-.292-.455-.469l-1.7-.017a2.292,2.292,0,0,1-.4-.036c-.117-.022-.177-.053-.177-.09v-.17l2.323.022a1.247,1.247,0,0,1,.635-.468,7.281,7.281,0,0,1,1.179-.355l.778.107c.236.034.354.072.354.117,0,.024-.048.054-.145.089l-.349.128a3.2,3.2,0,0,0-.387.175.814.814,0,0,0-.283.227Zm-5.731.232a.613.613,0,0,0,.308.288,2.442,2.442,0,0,0,.59.2,6.1,6.1,0,0,0,.8.114c.3.025.6.036.927.034a9.63,9.63,0,0,0,.984-.048,5.69,5.69,0,0,0,.737-.125,3.428,3.428,0,0,0,.554-.183,3.045,3.045,0,0,0,.423-.226Zm13.633-.152a.635.635,0,0,0-.338-.3,3.026,3.026,0,0,0-.679-.214,7.414,7.414,0,0,0-.962-.129q-.547-.042-1.21-.039a9.254,9.254,0,0,0-1.014.053,5.3,5.3,0,0,0-.736.133,2.72,2.72,0,0,0-.529.2,3.794,3.794,0,0,0-.406.239Z" transform="translate(-907.991 -3037.115)" fill="#fcb048"/>
        </g>
        <path id="Path_72" data-name="Path 72" d="M782.263,3010.108c-8.173,0-16.682.719-18.043,2.111a1.664,1.664,0,0,1,.149.156c1.147-.966,8.174-1.939,17.895-1.939,9.97,0,17.11,1.024,17.974,2.014a1.739,1.739,0,0,1,.137-.156C799.251,3010.854,790.581,3010.108,782.263,3010.108Z" transform="translate(-763.921 -3009.851)" fill="url(#linear-gradient-50)"/>
      </g>
      <g id="Group_14" data-name="Group 14" transform="translate(0 25.934)">
        <path id="Path_73" data-name="Path 73" d="M645.042,2962.533v4.065c0,1.314,8.206,2.379,18.329,2.379s18.329-1.065,18.329-2.379v-4.065Z" transform="translate(-645.031 -2960.154)" fill="url(#linear-gradient-47)"/>
        <ellipse id="Ellipse_2" data-name="Ellipse 2" cx="18.329" cy="2.379" rx="18.329" ry="2.379" transform="translate(0.011)" fill="url(#linear-gradient-48)"/>
        <path id="Path_74" data-name="Path 74" d="M663.145,2960.524c-8.965,0-18.34-.856-18.34-2.508,0-.091.032-.25.123-.25s.052.125.052.215c0,1.048,7.46,2.215,18.165,2.215s18.165-1.167,18.165-2.215c0-.091.016-.176.106-.176s.069.121.069.212C681.485,2959.669,672.11,2960.524,663.145,2960.524Z" transform="translate(-644.805 -2955.603)" fill="url(#linear-gradient-49)"/>
        <g id="Group_13" data-name="Group 13" transform="translate(6.794 1.477)">
          <path id="Path_75" data-name="Path 75" d="M805.008,2943.619c.18-.125.371-.248.576-.369a3.617,3.617,0,0,1,.787-.329,7.525,7.525,0,0,1,1.208-.239,15.323,15.323,0,0,1,1.81-.1q1.063-.006,1.995.068a13.535,13.535,0,0,1,1.641.217,5.092,5.092,0,0,1,1.152.357.912.912,0,0,1,.527.488l2.064.021a2.045,2.045,0,0,1,.4.037c.115.023.171.053.171.089v.17l-2.653-.026a1.335,1.335,0,0,1-.711.571,7.231,7.231,0,0,1-1.455.449l-.966-.134a1.157,1.157,0,0,1-.213-.051c-.056-.021-.083-.043-.083-.066s.074-.07.224-.112.318-.094.506-.156a5.157,5.157,0,0,0,.554-.219.75.75,0,0,0,.363-.3l-6.263-.062a5.966,5.966,0,0,1-.553.356,3.575,3.575,0,0,1-.812.315,8.476,8.476,0,0,1-1.26.228,17.892,17.892,0,0,1-1.9.093c-.574,0-1.133-.019-1.68-.065a11.415,11.415,0,0,1-1.458-.208,4.547,4.547,0,0,1-1.046-.343c-.271-.136-.424-.292-.455-.469l-1.7-.018a2.246,2.246,0,0,1-.4-.035c-.117-.023-.177-.053-.177-.09v-.17l2.323.022a1.252,1.252,0,0,1,.635-.468,7.288,7.288,0,0,1,1.179-.354l.778.107c.236.033.354.072.354.117,0,.024-.048.054-.146.089l-.349.128a3.2,3.2,0,0,0-.387.175.82.82,0,0,0-.283.227Zm-5.731.231a.617.617,0,0,0,.308.289,2.47,2.47,0,0,0,.59.2,6.016,6.016,0,0,0,.8.115q.443.037.927.034a9.631,9.631,0,0,0,.985-.048,5.687,5.687,0,0,0,.737-.125,3.43,3.43,0,0,0,.554-.183,3.144,3.144,0,0,0,.423-.226Zm13.633-.151a.638.638,0,0,0-.337-.3,3.055,3.055,0,0,0-.679-.214,7.419,7.419,0,0,0-.963-.129q-.547-.043-1.21-.04a9.249,9.249,0,0,0-1.013.053,5.237,5.237,0,0,0-.737.133,2.684,2.684,0,0,0-.529.2,3.784,3.784,0,0,0-.406.239Z" transform="translate(-795.194 -2942.584)" fill="#fcb048"/>
        </g>
        <path id="Path_76" data-name="Path 76" d="M669.468,2915.577c-8.173,0-16.682.719-18.043,2.111a1.732,1.732,0,0,1,.149.156c1.147-.966,8.174-1.939,17.895-1.939,9.97,0,17.11,1.024,17.974,2.015a1.621,1.621,0,0,1,.137-.156C686.455,2916.323,677.785,2915.577,669.468,2915.577Z" transform="translate(-651.125 -2915.32)" fill="url(#linear-gradient-54)"/>
      </g>
      <g id="Group_16" data-name="Group 16" transform="translate(4.397 21.676)">
        <path id="Path_77" data-name="Path 77" d="M742.371,2868.279v4.065c0,1.314,8.206,2.379,18.329,2.379s18.329-1.065,18.329-2.379v-4.065Z" transform="translate(-742.36 -2865.9)" fill="url(#linear-gradient-47)"/>
        <path id="Path_78" data-name="Path 78" d="M779.029,2818c0,1.313-8.206,2.378-18.329,2.378s-18.329-1.065-18.329-2.378,8.206-2.379,18.329-2.379S779.029,2816.688,779.029,2818Z" transform="translate(-742.359 -2815.623)" fill="url(#linear-gradient-48)"/>
        <path id="Path_79" data-name="Path 79" d="M760.474,2866.268c-8.965,0-18.34-.856-18.34-2.508,0-.09.032-.25.123-.25s.052.125.052.215c0,1.047,7.46,2.215,18.165,2.215s18.165-1.167,18.165-2.215c0-.09.016-.176.106-.176s.069.122.069.212C778.814,2865.413,769.439,2866.268,760.474,2866.268Z" transform="translate(-742.134 -2861.347)" fill="url(#linear-gradient-49)"/>
        <g id="Group_15" data-name="Group 15" transform="translate(6.794 1.477)">
          <path id="Path_80" data-name="Path 80" d="M902.336,2849.364c.18-.125.371-.247.576-.369a3.671,3.671,0,0,1,.787-.328,7.523,7.523,0,0,1,1.208-.239,15.319,15.319,0,0,1,1.81-.1q1.063-.006,1.995.067a13.719,13.719,0,0,1,1.641.217,5.071,5.071,0,0,1,1.152.357.911.911,0,0,1,.526.488l2.064.021a2.043,2.043,0,0,1,.4.037c.115.023.171.053.171.089v.17l-2.653-.025a1.336,1.336,0,0,1-.711.571,7.207,7.207,0,0,1-1.455.449l-.966-.134a1.158,1.158,0,0,1-.213-.05c-.056-.021-.083-.042-.083-.066s.075-.07.224-.112.318-.094.506-.156a5.034,5.034,0,0,0,.554-.219.752.752,0,0,0,.363-.3l-6.263-.062a5.983,5.983,0,0,1-.553.357,3.58,3.58,0,0,1-.812.315,8.479,8.479,0,0,1-1.26.228,17.894,17.894,0,0,1-1.9.093c-.574,0-1.133-.019-1.68-.065a11.5,11.5,0,0,1-1.458-.207,4.546,4.546,0,0,1-1.046-.343c-.271-.136-.424-.292-.455-.469l-1.7-.017a2.289,2.289,0,0,1-.4-.036c-.117-.023-.177-.053-.177-.09v-.17l2.323.022a1.25,1.25,0,0,1,.635-.468,7.184,7.184,0,0,1,1.179-.354l.778.106c.236.033.354.072.354.116,0,.024-.048.055-.146.09l-.349.128a3.136,3.136,0,0,0-.387.175.821.821,0,0,0-.283.227Zm-5.731.231a.615.615,0,0,0,.309.288,2.44,2.44,0,0,0,.59.2,6.1,6.1,0,0,0,.8.114q.443.037.927.034a9.627,9.627,0,0,0,.985-.048,5.611,5.611,0,0,0,.737-.125,3.422,3.422,0,0,0,.554-.183,3.137,3.137,0,0,0,.423-.226Zm13.633-.152a.638.638,0,0,0-.337-.3,3.058,3.058,0,0,0-.679-.214,7.5,7.5,0,0,0-.962-.129q-.547-.042-1.21-.039a9.25,9.25,0,0,0-1.013.053,5.226,5.226,0,0,0-.736.133,2.712,2.712,0,0,0-.529.2,3.7,3.7,0,0,0-.406.24Z" transform="translate(-892.522 -2848.33)" fill="#fcb048"/>
        </g>
        <path id="Path_81" data-name="Path 81" d="M766.8,2821.323c-8.173,0-16.682.719-18.043,2.111a1.677,1.677,0,0,1,.149.156c1.147-.966,8.174-1.939,17.895-1.939,9.97,0,17.109,1.024,17.974,2.015a1.612,1.612,0,0,1,.137-.156C783.783,2822.069,775.113,2821.323,766.8,2821.323Z" transform="translate(-748.453 -2821.066)" fill="url(#linear-gradient-58)"/>
      </g>
      <g id="Group_18" data-name="Group 18" transform="translate(7.065 17.406)">
        <path id="Path_82" data-name="Path 82" d="M801.432,2773.748v4.065c0,1.314,8.206,2.379,18.329,2.379s18.329-1.065,18.329-2.379v-4.065Z" transform="translate(-801.421 -2771.369)" fill="url(#linear-gradient-47)"/>
        <path id="Path_83" data-name="Path 83" d="M838.09,2723.471c0,1.314-8.206,2.379-18.329,2.379s-18.329-1.064-18.329-2.379,8.206-2.378,18.329-2.378S838.09,2722.157,838.09,2723.471Z" transform="translate(-801.421 -2721.092)" fill="url(#linear-gradient-48)"/>
        <path id="Path_84" data-name="Path 84" d="M819.535,2771.737c-8.965,0-18.34-.856-18.34-2.508,0-.091.032-.25.123-.25s.052.125.052.216c0,1.048,7.46,2.214,18.165,2.214s18.165-1.167,18.165-2.214c0-.091.016-.176.106-.176s.069.121.069.212C837.875,2770.882,828.5,2771.737,819.535,2771.737Z" transform="translate(-801.195 -2766.816)" fill="url(#linear-gradient-49)"/>
        <g id="Group_17" data-name="Group 17" transform="translate(6.794 1.477)">
          <path id="Path_85" data-name="Path 85" d="M961.4,2754.832q.27-.187.576-.369a3.671,3.671,0,0,1,.787-.328,7.47,7.47,0,0,1,1.208-.239,15.31,15.31,0,0,1,1.81-.1q1.063,0,1.995.068a13.516,13.516,0,0,1,1.64.217,5.067,5.067,0,0,1,1.152.357.912.912,0,0,1,.527.488l2.064.021a2.082,2.082,0,0,1,.4.037c.115.024.171.053.171.089v.17l-2.653-.025a1.337,1.337,0,0,1-.711.571,7.174,7.174,0,0,1-1.455.449l-.966-.134a1.083,1.083,0,0,1-.213-.051c-.056-.02-.083-.042-.083-.066s.074-.07.224-.112.318-.094.506-.155a5.251,5.251,0,0,0,.554-.219.75.75,0,0,0,.363-.3l-6.263-.062a5.967,5.967,0,0,1-.553.357,3.6,3.6,0,0,1-.812.315,8.422,8.422,0,0,1-1.26.228,17.745,17.745,0,0,1-1.9.093c-.574,0-1.133-.019-1.68-.065a11.485,11.485,0,0,1-1.458-.208,4.521,4.521,0,0,1-1.046-.342c-.271-.136-.424-.292-.455-.469l-1.7-.018a2.247,2.247,0,0,1-.4-.035c-.117-.023-.177-.053-.177-.091v-.17l2.323.022a1.246,1.246,0,0,1,.635-.468,7.285,7.285,0,0,1,1.179-.355l.778.107c.236.033.354.072.354.117,0,.024-.048.054-.146.089l-.349.128a3.278,3.278,0,0,0-.387.174.828.828,0,0,0-.283.227Zm-5.731.231a.614.614,0,0,0,.309.288,2.462,2.462,0,0,0,.59.2,6.02,6.02,0,0,0,.8.114q.443.037.927.034a9.772,9.772,0,0,0,.984-.048,5.687,5.687,0,0,0,.737-.125,3.475,3.475,0,0,0,.554-.183,3.1,3.1,0,0,0,.423-.227Zm13.633-.152a.638.638,0,0,0-.337-.3,3.053,3.053,0,0,0-.679-.214,7.5,7.5,0,0,0-.963-.129q-.547-.042-1.21-.04a9.5,9.5,0,0,0-1.013.053,5.284,5.284,0,0,0-.736.134,2.653,2.653,0,0,0-.529.2,3.725,3.725,0,0,0-.406.239Z" transform="translate(-951.583 -2753.798)" fill="#fcb048"/>
        </g>
        <path id="Path_86" data-name="Path 86" d="M825.856,2726.791c-8.173,0-16.682.719-18.043,2.112a1.664,1.664,0,0,1,.149.156c1.147-.966,8.174-1.94,17.895-1.94,9.97,0,17.11,1.024,17.974,2.014a1.7,1.7,0,0,1,.137-.155C842.844,2727.537,834.174,2726.791,825.856,2726.791Z" transform="translate(-807.514 -2726.533)" fill="url(#linear-gradient-62)"/>
      </g>
      <g id="Group_20" data-name="Group 20" transform="translate(5.095 12.798)">
        <path id="Path_87" data-name="Path 87" d="M757.839,2671.759v4.065c0,1.314,8.206,2.379,18.329,2.379s18.329-1.065,18.329-2.379v-4.065Z" transform="translate(-757.828 -2669.381)" fill="url(#linear-gradient-47)"/>
        <path id="Path_88" data-name="Path 88" d="M794.5,2621.481c0,1.314-8.206,2.379-18.329,2.379s-18.329-1.065-18.329-2.379,8.206-2.378,18.329-2.378S794.5,2620.168,794.5,2621.481Z" transform="translate(-757.828 -2619.103)" fill="url(#linear-gradient-48)"/>
        <path id="Path_89" data-name="Path 89" d="M775.942,2669.749c-8.965,0-18.34-.856-18.34-2.507,0-.091.032-.25.123-.25s.052.125.052.215c0,1.048,7.46,2.215,18.165,2.215s18.165-1.167,18.165-2.215c0-.09.016-.175.106-.175s.069.121.069.212C794.282,2668.894,784.907,2669.749,775.942,2669.749Z" transform="translate(-757.602 -2664.828)" fill="url(#linear-gradient-49)"/>
        <g id="Group_19" data-name="Group 19" transform="translate(6.794 1.477)">
          <path id="Path_90" data-name="Path 90" d="M917.805,2652.843c.18-.124.371-.247.576-.368a3.62,3.62,0,0,1,.787-.328,7.522,7.522,0,0,1,1.208-.239,15.318,15.318,0,0,1,1.81-.1q1.063-.005,2,.068a13.432,13.432,0,0,1,1.641.217,5.044,5.044,0,0,1,1.152.357.91.91,0,0,1,.526.488l2.064.021a2.027,2.027,0,0,1,.4.036c.115.024.171.053.171.09v.169l-2.653-.026a1.336,1.336,0,0,1-.711.571,7.185,7.185,0,0,1-1.455.449l-.966-.135a1.121,1.121,0,0,1-.213-.05c-.056-.02-.083-.042-.083-.066s.075-.07.224-.112.318-.094.506-.156a5.162,5.162,0,0,0,.554-.219.753.753,0,0,0,.363-.3l-6.263-.062a5.883,5.883,0,0,1-.553.356,3.613,3.613,0,0,1-.812.316,8.462,8.462,0,0,1-1.26.227,17.688,17.688,0,0,1-1.9.093c-.574,0-1.133-.019-1.68-.065a11.539,11.539,0,0,1-1.458-.208,4.533,4.533,0,0,1-1.046-.343c-.271-.136-.424-.292-.455-.469l-1.7-.017a2.226,2.226,0,0,1-.4-.035c-.117-.023-.177-.053-.177-.091v-.17l2.323.022a1.246,1.246,0,0,1,.635-.468,7.307,7.307,0,0,1,1.179-.355l.778.107c.236.033.354.072.354.117,0,.024-.048.054-.145.09l-.349.127a3.24,3.24,0,0,0-.387.175.817.817,0,0,0-.283.227Zm-5.731.232a.615.615,0,0,0,.308.288,2.464,2.464,0,0,0,.59.2,6.018,6.018,0,0,0,.8.115q.444.037.927.034.564,0,.984-.049a5.822,5.822,0,0,0,.737-.125,3.475,3.475,0,0,0,.554-.183,3.125,3.125,0,0,0,.423-.226Zm13.633-.152a.639.639,0,0,0-.338-.3,3.065,3.065,0,0,0-.679-.214,7.46,7.46,0,0,0-.962-.129q-.547-.042-1.21-.039a9.328,9.328,0,0,0-1.014.052,5.255,5.255,0,0,0-.736.134,2.69,2.69,0,0,0-.529.2,3.793,3.793,0,0,0-.406.239Z" transform="translate(-907.991 -2651.809)" fill="#fcb048"/>
        </g>
        <path id="Path_91" data-name="Path 91" d="M782.263,2624.8c-8.173,0-16.682.719-18.043,2.111a1.669,1.669,0,0,1,.149.157c1.147-.966,8.174-1.94,17.895-1.94,9.97,0,17.11,1.024,17.974,2.015a1.739,1.739,0,0,1,.137-.156C799.251,2625.549,790.581,2624.8,782.263,2624.8Z" transform="translate(-763.921 -2624.545)" fill="url(#linear-gradient-66)"/>
      </g>
      <g id="Group_22" data-name="Group 22" transform="translate(0 8.528)">
        <path id="Path_92" data-name="Path 92" d="M645.042,2577.228v4.066c0,1.313,8.206,2.379,18.329,2.379s18.329-1.065,18.329-2.379v-4.066Z" transform="translate(-645.031 -2574.849)" fill="url(#linear-gradient-47)"/>
        <path id="Path_93" data-name="Path 93" d="M681.7,2526.951c0,1.313-8.206,2.378-18.329,2.378s-18.329-1.065-18.329-2.378,8.206-2.378,18.329-2.378S681.7,2525.637,681.7,2526.951Z" transform="translate(-645.031 -2524.572)" fill="url(#linear-gradient-48)"/>
        <path id="Path_94" data-name="Path 94" d="M663.145,2575.217c-8.965,0-18.34-.856-18.34-2.508,0-.09.032-.25.123-.25s.052.125.052.215c0,1.048,7.46,2.215,18.165,2.215s18.165-1.167,18.165-2.215c0-.091.016-.176.106-.176s.069.121.069.212C681.485,2574.362,672.11,2575.217,663.145,2575.217Z" transform="translate(-644.805 -2570.296)" fill="url(#linear-gradient-49)"/>
        <g id="Group_21" data-name="Group 21" transform="translate(6.794 1.477)">
          <path id="Path_95" data-name="Path 95" d="M805.008,2558.312c.18-.125.371-.247.576-.369a3.667,3.667,0,0,1,.787-.328,7.525,7.525,0,0,1,1.208-.239,15.323,15.323,0,0,1,1.81-.1q1.063-.005,1.995.067a13.819,13.819,0,0,1,1.641.218,5.094,5.094,0,0,1,1.152.357.915.915,0,0,1,.527.488l2.064.021a2.045,2.045,0,0,1,.4.037c.115.023.171.053.171.089v.17l-2.653-.025a1.337,1.337,0,0,1-.711.571,7.2,7.2,0,0,1-1.455.449l-.966-.134a1.161,1.161,0,0,1-.213-.05c-.056-.021-.083-.042-.083-.067s.074-.069.224-.111.318-.094.506-.156a5.054,5.054,0,0,0,.554-.219.75.75,0,0,0,.363-.3l-6.263-.062a5.867,5.867,0,0,1-.553.357,3.575,3.575,0,0,1-.812.315,8.419,8.419,0,0,1-1.26.228,17.746,17.746,0,0,1-1.9.093c-.574,0-1.133-.019-1.68-.065a11.6,11.6,0,0,1-1.458-.207,4.6,4.6,0,0,1-1.046-.343c-.271-.137-.424-.292-.455-.469l-1.7-.018a2.246,2.246,0,0,1-.4-.035c-.117-.023-.177-.053-.177-.09v-.17l2.323.022a1.251,1.251,0,0,1,.635-.468,7.144,7.144,0,0,1,1.179-.354l.778.106c.236.033.354.072.354.117,0,.024-.048.054-.146.089l-.349.128a3.13,3.13,0,0,0-.387.175.82.82,0,0,0-.283.227Zm-5.731.231a.617.617,0,0,0,.308.289,2.491,2.491,0,0,0,.59.2,6.1,6.1,0,0,0,.8.114q.443.037.927.034a9.631,9.631,0,0,0,.985-.048,5.687,5.687,0,0,0,.737-.125,3.479,3.479,0,0,0,.554-.183,3.091,3.091,0,0,0,.423-.227Zm13.633-.152a.639.639,0,0,0-.337-.3,3.055,3.055,0,0,0-.679-.214,7.5,7.5,0,0,0-.963-.129q-.547-.042-1.21-.039a9.249,9.249,0,0,0-1.013.053,5.167,5.167,0,0,0-.737.133,2.717,2.717,0,0,0-.529.2,3.706,3.706,0,0,0-.406.24Z" transform="translate(-795.194 -2557.279)" fill="#fcb048"/>
        </g>
        <path id="Path_96" data-name="Path 96" d="M669.468,2530.272c-8.173,0-16.682.719-18.043,2.112a1.7,1.7,0,0,1,.149.156c1.147-.966,8.174-1.939,17.895-1.939,9.97,0,17.11,1.024,17.974,2.014a1.742,1.742,0,0,1,.137-.155C686.455,2531.018,677.785,2530.272,669.468,2530.272Z" transform="translate(-651.125 -2530.014)" fill="url(#linear-gradient-70)"/>
      </g>
      <g id="Group_24" data-name="Group 24" transform="translate(4.397 4.27)">
        <path id="Path_97" data-name="Path 97" d="M742.371,2482.973v4.065c0,1.314,8.206,2.379,18.329,2.379s18.329-1.065,18.329-2.379v-4.065Z" transform="translate(-742.36 -2480.594)" fill="url(#linear-gradient-47)"/>
        <path id="Path_98" data-name="Path 98" d="M779.029,2432.7c0,1.314-8.206,2.379-18.329,2.379s-18.329-1.065-18.329-2.379,8.206-2.379,18.329-2.379S779.029,2431.382,779.029,2432.7Z" transform="translate(-742.359 -2430.317)" fill="url(#linear-gradient-48)"/>
        <path id="Path_99" data-name="Path 99" d="M760.474,2480.963c-8.965,0-18.34-.856-18.34-2.508,0-.091.032-.25.123-.25s.052.125.052.215c0,1.048,7.46,2.214,18.165,2.214s18.165-1.167,18.165-2.214c0-.091.016-.176.106-.176s.069.121.069.212C778.814,2480.108,769.439,2480.963,760.474,2480.963Z" transform="translate(-742.134 -2476.042)" fill="url(#linear-gradient-49)"/>
        <g id="Group_23" data-name="Group 23" transform="translate(6.794 1.478)">
          <path id="Path_100" data-name="Path 100" d="M902.336,2464.058c.18-.124.371-.247.576-.368a3.622,3.622,0,0,1,.787-.328,7.493,7.493,0,0,1,1.208-.239,15.26,15.26,0,0,1,1.81-.1q1.063-.005,1.995.068a13.623,13.623,0,0,1,1.641.217,5.07,5.07,0,0,1,1.152.358.911.911,0,0,1,.526.488l2.064.021a2.005,2.005,0,0,1,.4.037c.115.024.171.053.171.089v.169l-2.653-.025a1.336,1.336,0,0,1-.711.571,7.219,7.219,0,0,1-1.455.449l-.966-.135a1.1,1.1,0,0,1-.213-.051c-.056-.02-.083-.042-.083-.066s.075-.07.224-.112.318-.094.506-.156a5.085,5.085,0,0,0,.554-.219.752.752,0,0,0,.363-.3l-6.263-.062a5.834,5.834,0,0,1-.553.357,3.59,3.59,0,0,1-.812.316,8.549,8.549,0,0,1-1.26.228,17.7,17.7,0,0,1-1.9.093c-.574,0-1.133-.019-1.68-.065a11.538,11.538,0,0,1-1.458-.208,4.547,4.547,0,0,1-1.046-.343c-.271-.136-.424-.292-.455-.469l-1.7-.017a2.292,2.292,0,0,1-.4-.035c-.117-.023-.177-.053-.177-.091v-.17l2.323.022a1.247,1.247,0,0,1,.635-.468,7.3,7.3,0,0,1,1.179-.355l.778.107c.236.033.354.072.354.116,0,.024-.048.054-.146.09s-.215.078-.349.128a3.133,3.133,0,0,0-.387.174.821.821,0,0,0-.283.227Zm-5.731.232a.616.616,0,0,0,.309.288,2.463,2.463,0,0,0,.59.2,6.053,6.053,0,0,0,.8.115q.443.037.927.034a9.684,9.684,0,0,0,.985-.049,5.785,5.785,0,0,0,.737-.125,3.42,3.42,0,0,0,.554-.183,3.057,3.057,0,0,0,.423-.226Zm13.633-.152a.635.635,0,0,0-.337-.3,3.043,3.043,0,0,0-.679-.215,7.591,7.591,0,0,0-.962-.129q-.547-.042-1.21-.039a9.317,9.317,0,0,0-1.013.052,5.292,5.292,0,0,0-.736.134,2.7,2.7,0,0,0-.529.2,3.9,3.9,0,0,0-.406.239Z" transform="translate(-892.522 -2463.024)" fill="#fcb048"/>
        </g>
        <path id="Path_101" data-name="Path 101" d="M766.8,2436.017c-8.173,0-16.682.719-18.043,2.112a1.708,1.708,0,0,1,.149.156c1.147-.966,8.174-1.939,17.895-1.939,9.97,0,17.109,1.024,17.974,2.014a1.639,1.639,0,0,1,.137-.156C783.783,2436.763,775.113,2436.017,766.8,2436.017Z" transform="translate(-748.453 -2435.76)" fill="url(#linear-gradient-74)"/>
      </g>
      <g id="Group_26" data-name="Group 26" transform="translate(2.11 0)">
        <path id="Path_102" data-name="Path 102" d="M691.746,2388.442v4.066c0,1.313,8.206,2.378,18.329,2.378s18.329-1.065,18.329-2.378v-4.066Z" transform="translate(-691.735 -2386.063)" fill="url(#linear-gradient-47)"/>
        <path id="Path_103" data-name="Path 103" d="M728.4,2338.165c0,1.313-8.206,2.378-18.329,2.378s-18.329-1.065-18.329-2.378,8.206-2.379,18.329-2.379S728.4,2336.851,728.4,2338.165Z" transform="translate(-691.735 -2335.786)" fill="url(#linear-gradient-48)"/>
        <path id="Path_104" data-name="Path 104" d="M709.85,2386.431c-8.965,0-18.34-.856-18.34-2.508,0-.091.032-.25.123-.25s.052.124.052.215c0,1.047,7.46,2.214,18.165,2.214s18.165-1.167,18.165-2.214c0-.091.016-.176.106-.176s.069.121.069.212C728.19,2385.576,718.815,2386.431,709.85,2386.431Z" transform="translate(-691.51 -2381.51)" fill="url(#linear-gradient-49)"/>
        <g id="Group_25" data-name="Group 25" transform="translate(6.794 1.478)">
          <path id="Path_105" data-name="Path 105" d="M851.712,2369.527c.18-.125.371-.247.576-.368a3.594,3.594,0,0,1,.787-.329,7.52,7.52,0,0,1,1.208-.239,15.317,15.317,0,0,1,1.81-.1q1.063-.006,1.995.067a13.524,13.524,0,0,1,1.641.217,5.075,5.075,0,0,1,1.152.357.912.912,0,0,1,.526.488l2.064.021a2.006,2.006,0,0,1,.4.037c.115.023.171.053.171.089v.17l-2.653-.026a1.339,1.339,0,0,1-.711.571,7.206,7.206,0,0,1-1.455.449l-.966-.134a1.159,1.159,0,0,1-.213-.051c-.056-.02-.083-.042-.083-.066s.075-.07.224-.112.318-.094.506-.156a5.112,5.112,0,0,0,.554-.219.75.75,0,0,0,.363-.3l-6.262-.062a6,6,0,0,1-.553.357,3.625,3.625,0,0,1-.812.315,8.422,8.422,0,0,1-1.26.228,17.89,17.89,0,0,1-1.9.093c-.574,0-1.133-.019-1.68-.065a11.415,11.415,0,0,1-1.458-.208,4.546,4.546,0,0,1-1.046-.343c-.271-.136-.424-.292-.455-.469l-1.7-.017a2.248,2.248,0,0,1-.4-.035c-.117-.023-.177-.053-.177-.091v-.17l2.323.022a1.248,1.248,0,0,1,.635-.468,7.286,7.286,0,0,1,1.179-.354l.778.107c.236.033.354.072.354.117,0,.024-.048.054-.145.089l-.349.127a3.368,3.368,0,0,0-.387.175.818.818,0,0,0-.283.227Zm-5.731.231a.616.616,0,0,0,.309.288,2.441,2.441,0,0,0,.59.2,6.013,6.013,0,0,0,.8.115q.444.037.927.034a9.773,9.773,0,0,0,.985-.048,5.694,5.694,0,0,0,.737-.125,3.47,3.47,0,0,0,.554-.183,3.083,3.083,0,0,0,.423-.227Zm13.633-.152a.639.639,0,0,0-.337-.3,3.078,3.078,0,0,0-.679-.214,7.5,7.5,0,0,0-.962-.129q-.547-.042-1.21-.039a9.129,9.129,0,0,0-1.013.053,5.159,5.159,0,0,0-.737.133,2.649,2.649,0,0,0-.529.2,3.691,3.691,0,0,0-.406.239Z" transform="translate(-841.898 -2368.493)" fill="#fcb048"/>
        </g>
        <path id="Path_106" data-name="Path 106" d="M716.171,2341.486c-8.173,0-16.682.719-18.043,2.111a1.616,1.616,0,0,1,.149.157c1.147-.967,8.174-1.94,17.895-1.94,9.97,0,17.11,1.024,17.974,2.015a1.555,1.555,0,0,1,.137-.156C733.159,2342.232,724.489,2341.486,716.171,2341.486Z" transform="translate(-697.829 -2341.229)" fill="url(#linear-gradient-78)"/>
      </g>
      <g id="Group_28" data-name="Group 28" transform="translate(40.503 5.178)">
        <path id="Path_107" data-name="Path 107" d="M1544.893,2451.887l-3.313,2.357c-1.071.761,2.818,8.065,8.686,16.314s11.492,14.319,12.563,13.558l3.313-2.356Z" transform="translate(-1541.403 -2451.821)" fill="url(#linear-gradient-79)"/>
        <path id="Path_108" data-name="Path 108" d="M1636.165,2480.4c-1.07.762-6.695-5.308-12.562-13.557s-9.756-15.553-8.686-16.315,6.7,5.309,12.562,13.557S1637.235,2479.635,1636.165,2480.4Z" transform="translate(-1611.426 -2450.458)" fill="url(#linear-gradient-80)"/>
        <path id="Path_109" data-name="Path 109" d="M1621.59,2466.9c-5.2-7.306-9.933-15.441-8.587-16.4.074-.053.223-.118.275-.044s-.072.114-.145.167c-.854.607,2.52,7.363,8.724,16.085s11.48,14.126,12.333,13.519c.074-.053.152-.089.2-.015s-.059.126-.133.179C1632.917,2481.346,1626.787,2474.2,1621.59,2466.9Z" transform="translate(-1609.548 -2450.42)" fill="url(#linear-gradient-81)"/>
        <g id="Group_27" data-name="Group 27" transform="translate(7.239 5.613)">
          <path id="Path_110" data-name="Path 110" d="M1707.406,2582.734q.309.112.634.256a3.632,3.632,0,0,1,.724.452,7.5,7.5,0,0,1,.9.846,15.368,15.368,0,0,1,1.128,1.418q.62.863,1.1,1.665a13.472,13.472,0,0,1,.774,1.463,5.063,5.063,0,0,1,.376,1.146.912.912,0,0,1-.092.712l1.179,1.693a2.05,2.05,0,0,1,.2.344c.048.108.056.17.026.191l-.138.1-1.517-2.177a1.333,1.333,0,0,1-.878-.248,7.208,7.208,0,0,1-1.209-.925l-.451-.866a1.115,1.115,0,0,1-.083-.2c-.016-.057-.013-.092.006-.106s.1.02.221.118.261.205.42.322a5.086,5.086,0,0,0,.5.324.748.748,0,0,0,.457.121l-3.579-5.139a5.908,5.908,0,0,1-.611-.244,3.591,3.591,0,0,1-.728-.479,8.5,8.5,0,0,1-.916-.895,17.941,17.941,0,0,1-1.177-1.495q-.5-.7-.921-1.407a11.5,11.5,0,0,1-.676-1.309,4.548,4.548,0,0,1-.327-1.051.733.733,0,0,1,.118-.643l-.97-1.4a2.237,2.237,0,0,1-.2-.347c-.05-.109-.059-.175-.029-.2l.138-.1,1.329,1.906a1.249,1.249,0,0,1,.75.246,7.3,7.3,0,0,1,.972.755l.364.7c.11.211.146.33.11.356-.02.014-.072-.008-.157-.067s-.188-.129-.306-.21a3.238,3.238,0,0,0-.367-.214.829.829,0,0,0-.349-.1Zm-3.511-4.536a.618.618,0,0,0-.056.418,2.468,2.468,0,0,0,.18.6,6.03,6.03,0,0,0,.368.714q.227.383.51.776a9.578,9.578,0,0,0,.61.774,5.678,5.678,0,0,0,.529.528,3.407,3.407,0,0,0,.47.346,3.049,3.049,0,0,0,.43.213Zm8.026,11.021a.637.637,0,0,0,.047-.447,3.048,3.048,0,0,0-.219-.677,7.485,7.485,0,0,0-.453-.859q-.283-.471-.669-1.009a9.485,9.485,0,0,0-.63-.8,5.285,5.285,0,0,0-.536-.522,2.646,2.646,0,0,0-.466-.317,3.8,3.8,0,0,0-.43-.192Z" transform="translate(-1701.642 -2574.68)" fill="#fcb048"/>
        </g>
        <path id="Path_111" data-name="Path 111" d="M1633.845,2470.44c-4.737-6.66-10.256-13.177-12.179-13.479a1.61,1.61,0,0,1-.042.212c1.453.375,6.319,5.537,11.953,13.458,5.779,8.125,9.083,14.536,8.777,15.815a1.719,1.719,0,0,1,.206.021C1643.083,2484.715,1638.666,2477.218,1633.845,2470.44Z" transform="translate(-1618 -2456.665)" fill="url(#linear-gradient-82)"/>
      </g>
    </g>
    <g id="Group_44" data-name="Group 44" transform="translate(529.285 443.322)">
      <g id="Group_40" data-name="Group 40" transform="translate(0 0)">
        <path id="Path_112" data-name="Path 112" d="M1650.081,1101.488a1.592,1.592,0,0,1-1.549,1.479l-52.99-3.01a2.05,2.05,0,0,1-1.911-2.032l4.355-36.818a2.1,2.1,0,0,1,2.361-1.539l52.412,7.464a1.558,1.558,0,0,1,1.164,1.775Z" transform="translate(-1593.621 -1059.536)" fill="url(#linear-gradient-83)"/>
        <path id="Path_113" data-name="Path 113" d="M1665.673,1101.439a1.6,1.6,0,0,1-1.557,1.486l-53.545-3.138a1.716,1.716,0,0,1-1.622-1.928l4.376-37a1.752,1.752,0,0,1,2.031-1.529l53.006,7.488a1.565,1.565,0,0,1,1.17,1.784Z" transform="translate(-1608.245 -1059.311)" fill="url(#linear-gradient-84)"/>
        <g id="Group_35" data-name="Group 35" transform="translate(10.073 12.466)">
          <path id="Path_114" data-name="Path 114" d="M1822.389,1343.321l-4.456-.5a1.506,1.506,0,0,1-1.313-1.679l.537-4.536a1.5,1.5,0,0,1,1.667-1.317l4.447.583a1.5,1.5,0,0,1,1.269,1.673l-.527,4.452A1.491,1.491,0,0,1,1822.389,1343.321Z" transform="translate(-1816.609 -1335.278)" fill="url(#linear-gradient-85)"/>
          <path id="Path_115" data-name="Path 115" d="M1832.134,1352.935l-3.827-.432a1.387,1.387,0,0,1-1.209-1.549l.46-3.893a1.376,1.376,0,0,1,1.536-1.216l3.82.5a1.384,1.384,0,0,1,1.174,1.545l-.453,3.828A1.374,1.374,0,0,1,1832.134,1352.935Zm-3.063-6.9a1.185,1.185,0,0,0-1.323,1.047l-.46,3.891a1.194,1.194,0,0,0,1.041,1.334l3.827.434a1.183,1.183,0,0,0,1.293-1.051l.453-3.83a1.192,1.192,0,0,0-1.011-1.33Z" transform="translate(-1826.614 -1345.358)" fill="url(#linear-gradient-86)"/>
          <g id="Group_33" data-name="Group 33" transform="translate(0.625 2.102)">
            <g id="Group_30" data-name="Group 30" transform="translate(0.346)">
              <path id="Path_116" data-name="Path 116" d="M1838.352,1383.95l6.343.794Z" transform="translate(-1838.341 -1383.853)" fill="#f4f7fa"/>
              <path id="Path_117" data-name="Path 117" d="M1844.442,1382.793,1838.1,1382l.023-.194,6.343.8Z" transform="translate(-1838.099 -1381.807)" fill="url(#linear-gradient-87)"/>
            </g>
            <g id="Group_31" data-name="Group 31" transform="translate(0.173 1.463)">
              <path id="Path_118" data-name="Path 118" d="M1834.52,1416.345l6.346.77Z" transform="translate(-1834.509 -1416.248)" fill="#f4f7fa"/>
              <path id="Path_119" data-name="Path 119" d="M1840.613,1415.166l-6.346-.769.023-.194,6.345.772Z" transform="translate(-1834.267 -1414.203)" fill="url(#linear-gradient-88)"/>
            </g>
            <g id="Group_32" data-name="Group 32" transform="translate(0 2.927)">
              <path id="Path_120" data-name="Path 120" d="M1830.687,1448.741l6.348.747Z" transform="translate(-1830.676 -1448.644)" fill="#f4f7fa"/>
              <path id="Path_121" data-name="Path 121" d="M1836.783,1447.538l-6.349-.745.023-.194,6.348.749Z" transform="translate(-1830.434 -1446.599)" fill="url(#linear-gradient-89)"/>
            </g>
          </g>
          <g id="Group_34" data-name="Group 34" transform="translate(1.993 1.312)">
            <path id="Path_122" data-name="Path 122" d="M1865.363,1371.744l-1.774-.2a.836.836,0,0,1-.725-.933l.4-3.386a.83.83,0,0,1,.922-.733l1.772.227a.84.84,0,0,1,.714.935l-.4,3.357A.834.834,0,0,1,1865.363,1371.744Z" transform="translate(-1862.762 -1366.383)" fill="#fec045"/>
            <path id="Path_123" data-name="Path 123" d="M1863.328,1369.788l-1.774-.2a.931.931,0,0,1-.809-1.041l.4-3.387a.924.924,0,0,1,1.028-.818l1.771.227a.935.935,0,0,1,.8,1.043l-.4,3.356A.928.928,0,0,1,1863.328,1369.788Zm-1.177-5.256a.733.733,0,0,0-.816.649l-.4,3.385a.739.739,0,0,0,.642.826l1.774.2a.736.736,0,0,0,.807-.653l.4-3.358a.742.742,0,0,0-.632-.828Z" transform="translate(-1860.738 -1364.332)" fill="url(#linear-gradient-90)"/>
          </g>
        </g>
        <path id="Path_124" data-name="Path 124" d="M1630.646,1593.42c-4.686.186-7.677-.016-10.949-1.422a21.752,21.752,0,0,1-8.994-7.478l-1.753,14.823a1.716,1.716,0,0,0,1.622,1.928l53.545,3.138a1.6,1.6,0,0,0,1.557-1.486l.617-5.212c-6.667-5.555-12.435-6.7-16.6-6.652C1644.565,1591.119,1641.452,1592.991,1630.646,1593.42Z" transform="translate(-1608.245 -1560.794)" opacity="0.15" fill="url(#linear-gradient-91)" style="mix-blend-mode: multiply;isolation: isolate"/>
        <g id="Group_36" data-name="Group 36" transform="translate(8.023 32.957)" opacity="0.42" style="mix-blend-mode: multiply;isolation: isolate">
          <path id="Path_125" data-name="Path 125" d="M1784.377,1792.745l-12.755-.9a.433.433,0,0,1-.4-.488l.244-2.065a.48.48,0,0,1,.506-.42l12.744,1a.415.415,0,0,1,.371.473l-.236,1.995A.461.461,0,0,1,1784.377,1792.745Z" transform="translate(-1771.219 -1788.866)" fill="url(#linear-gradient-92)"/>
          <path id="Path_126" data-name="Path 126" d="M2230.312,1828.137l-15.588-1.105a.407.407,0,0,1-.366-.467l.234-1.982a.452.452,0,0,1,.469-.4l15.575,1.222a.386.386,0,0,1,.333.449l-.225,1.9A.428.428,0,0,1,2230.312,1828.137Z" transform="translate(-2194.336 -1822.582)" fill="url(#linear-gradient-93)"/>
        </g>
        <g id="Group_37" data-name="Group 37" transform="translate(9.275 25.31)">
          <path id="Path_127" data-name="Path 127" d="M1801.385,1621.335a2.077,2.077,0,0,1-.447,1.2,1.109,1.109,0,0,1-.964.313,1.036,1.036,0,0,1-.855-.5,2.008,2.008,0,0,1-.166-1.254,2.074,2.074,0,0,1,.446-1.2,1.087,1.087,0,0,1,.958-.3,1.059,1.059,0,0,1,.858.505A1.965,1.965,0,0,1,1801.385,1621.335Zm-2.149-.213a2,2,0,0,0,.1,1.111.764.764,0,0,0,.659.417.8.8,0,0,0,.754-.3,2.119,2.119,0,0,0,.349-1.048,2.045,2.045,0,0,0-.1-1.081.764.764,0,0,0-.667-.436.783.783,0,0,0-.753.29A2.118,2.118,0,0,0,1799.236,1621.122Z" transform="translate(-1798.929 -1619.586)" fill="#f4f7fa"/>
          <path id="Path_128" data-name="Path 128" d="M1868.092,1628.294a2.076,2.076,0,0,1-.438,1.183,1.079,1.079,0,0,1-.942.31,1.007,1.007,0,0,1-.835-.49,2,2,0,0,1-.16-1.239,2.071,2.071,0,0,1,.438-1.183,1.058,1.058,0,0,1,.938-.3,1.03,1.03,0,0,1,.838.5A1.959,1.959,0,0,1,1868.092,1628.294Zm-2.1-.208a2,2,0,0,0,.1,1.1.745.745,0,0,0,.644.412.776.776,0,0,0,.737-.293,2.11,2.11,0,0,0,.343-1.036,2.039,2.039,0,0,0-.093-1.069.744.744,0,0,0-.652-.43.763.763,0,0,0-.736.287A2.115,2.115,0,0,0,1865.992,1628.085Z" transform="translate(-1862.675 -1626.25)" fill="#f4f7fa"/>
          <path id="Path_129" data-name="Path 129" d="M1933.288,1635.095a2.067,2.067,0,0,1-.43,1.17,1.051,1.051,0,0,1-.922.308.98.98,0,0,1-.815-.484,2,2,0,0,1-.155-1.225,2.064,2.064,0,0,1,.429-1.17,1.028,1.028,0,0,1,.917-.3,1,1,0,0,1,.818.492A1.951,1.951,0,0,1,1933.288,1635.095Zm-2.053-.2a2,2,0,0,0,.1,1.085.725.725,0,0,0,.629.407.757.757,0,0,0,.721-.29,2.111,2.111,0,0,0,.336-1.025,2.036,2.036,0,0,0-.09-1.056.725.725,0,0,0-.637-.425.744.744,0,0,0-.72.284A2.113,2.113,0,0,0,1931.235,1634.891Z" transform="translate(-1924.977 -1632.764)" fill="#f4f7fa"/>
          <path id="Path_130" data-name="Path 130" d="M1997.018,1641.744a2.055,2.055,0,0,1-.422,1.157,1.023,1.023,0,0,1-.9.305.954.954,0,0,1-.8-.477,1.991,1.991,0,0,1-.15-1.21,2.059,2.059,0,0,1,.421-1.157,1,1,0,0,1,.9-.3.976.976,0,0,1,.8.485A1.949,1.949,0,0,1,1997.018,1641.744Zm-2.007-.2a1.99,1.99,0,0,0,.092,1.073.705.705,0,0,0,.614.4.738.738,0,0,0,.706-.288,2.1,2.1,0,0,0,.33-1.013,2.033,2.033,0,0,0-.086-1.044.708.708,0,0,0-.622-.419.725.725,0,0,0-.7.282A2.1,2.1,0,0,0,1995.01,1641.544Z" transform="translate(-1985.877 -1639.132)" fill="#f4f7fa"/>
          <path id="Path_131" data-name="Path 131" d="M2087.239,1651.158a2.045,2.045,0,0,1-.411,1.139.984.984,0,0,1-.874.3.918.918,0,0,1-.771-.468,1.985,1.985,0,0,1-.144-1.191,2.053,2.053,0,0,1,.411-1.139.964.964,0,0,1,.869-.292.939.939,0,0,1,.774.477A1.939,1.939,0,0,1,2087.239,1651.158Zm-1.943-.193a1.99,1.99,0,0,0,.087,1.055.681.681,0,0,0,.594.394.712.712,0,0,0,.684-.284,2.1,2.1,0,0,0,.321-1,2.028,2.028,0,0,0-.082-1.028.683.683,0,0,0-.6-.411.7.7,0,0,0-.683.279A2.1,2.1,0,0,0,2085.3,1650.965Z" transform="translate(-2072.092 -1648.149)" fill="#f4f7fa"/>
          <path id="Path_132" data-name="Path 132" d="M2147.58,1657.454a2.05,2.05,0,0,1-.4,1.127.959.959,0,0,1-.856.3.9.9,0,0,1-.753-.462,1.98,1.98,0,0,1-.138-1.177,2.052,2.052,0,0,1,.4-1.127.94.94,0,0,1,.851-.29.916.916,0,0,1,.757.47A1.939,1.939,0,0,1,2147.58,1657.454Zm-1.9-.188a1.986,1.986,0,0,0,.084,1.043.664.664,0,0,0,.581.389.694.694,0,0,0,.669-.281,2.1,2.1,0,0,0,.316-.987,2.029,2.029,0,0,0-.079-1.016.665.665,0,0,0-.588-.406.683.683,0,0,0-.668.276A2.09,2.09,0,0,0,2145.678,1657.265Z" transform="translate(-2129.752 -1654.179)" fill="#f4f7fa"/>
          <path id="Path_133" data-name="Path 133" d="M2206.616,1663.615a2.037,2.037,0,0,1-.4,1.115.934.934,0,0,1-.837.3.874.874,0,0,1-.737-.457,1.974,1.974,0,0,1-.134-1.165,2.042,2.042,0,0,1,.4-1.115.915.915,0,0,1,.833-.287.892.892,0,0,1,.74.464A1.927,1.927,0,0,1,2206.616,1663.615Zm-1.861-.185a1.981,1.981,0,0,0,.081,1.032.648.648,0,0,0,.568.384.679.679,0,0,0,.656-.279,2.092,2.092,0,0,0,.31-.977,2.022,2.022,0,0,0-.076-1.005.651.651,0,0,0-.575-.4.667.667,0,0,0-.655.274A2.088,2.088,0,0,0,2204.755,1663.43Z" transform="translate(-2186.165 -1660.08)" fill="#f4f7fa"/>
          <path id="Path_134" data-name="Path 134" d="M2264.393,1669.644a2.032,2.032,0,0,1-.389,1.1.911.911,0,0,1-.82.294.852.852,0,0,1-.721-.451,1.971,1.971,0,0,1-.129-1.152,2.039,2.039,0,0,1,.388-1.1.893.893,0,0,1,.816-.286.87.87,0,0,1,.723.458A1.925,1.925,0,0,1,2264.393,1669.644Zm-1.822-.181a1.976,1.976,0,0,0,.078,1.021.631.631,0,0,0,.555.379.662.662,0,0,0,.642-.276,2.086,2.086,0,0,0,.305-.967,2.011,2.011,0,0,0-.073-.994.634.634,0,0,0-.562-.4.652.652,0,0,0-.642.272A2.1,2.1,0,0,0,2262.571,1669.464Z" transform="translate(-2241.375 -1665.855)" fill="#f4f7fa"/>
          <path id="Path_135" data-name="Path 135" d="M2346.289,1678.193a2.033,2.033,0,0,1-.38,1.087.879.879,0,0,1-.8.291.821.821,0,0,1-.7-.443,1.962,1.962,0,0,1-.124-1.134,2.026,2.026,0,0,1,.379-1.087.862.862,0,0,1,.792-.282.84.84,0,0,1,.7.45A1.922,1.922,0,0,1,2346.289,1678.193Zm-1.767-.176a1.974,1.974,0,0,0,.073,1.005.611.611,0,0,0,.538.373.64.64,0,0,0,.623-.273,2.08,2.08,0,0,0,.3-.952,2.018,2.018,0,0,0-.069-.979.614.614,0,0,0-.545-.389.63.63,0,0,0-.623.269A2.084,2.084,0,0,0,2344.522,1678.017Z" transform="translate(-2319.631 -1674.042)" fill="#f4f7fa"/>
          <path id="Path_136" data-name="Path 136" d="M2401.132,1683.917a2.028,2.028,0,0,1-.373,1.076.859.859,0,0,1-.781.289.8.8,0,0,1-.683-.438,1.967,1.967,0,0,1-.12-1.121,2.027,2.027,0,0,1,.372-1.076.841.841,0,0,1,.776-.28.819.819,0,0,1,.686.445A1.914,1.914,0,0,1,2401.132,1683.917Zm-1.73-.172a1.974,1.974,0,0,0,.07.994.6.6,0,0,0,.527.368.627.627,0,0,0,.611-.271,2.082,2.082,0,0,0,.292-.942,2.006,2.006,0,0,0-.066-.969.6.6,0,0,0-.533-.385.616.616,0,0,0-.61.267A2.078,2.078,0,0,0,2399.4,1683.745Z" transform="translate(-2372.037 -1679.524)" fill="#f4f7fa"/>
          <path id="Path_137" data-name="Path 137" d="M2454.847,1689.524a2.025,2.025,0,0,1-.367,1.066.839.839,0,0,1-.765.286.783.783,0,0,1-.669-.433,1.957,1.957,0,0,1-.116-1.11,2.014,2.014,0,0,1,.366-1.065.821.821,0,0,1,.76-.278.8.8,0,0,1,.671.439A1.917,1.917,0,0,1,2454.847,1689.524Zm-1.695-.168a1.971,1.971,0,0,0,.068.984.583.583,0,0,0,.515.364.612.612,0,0,0,.6-.269,2.08,2.08,0,0,0,.288-.933,2.018,2.018,0,0,0-.064-.958.587.587,0,0,0-.522-.38.6.6,0,0,0-.6.264A2.079,2.079,0,0,0,2453.152,1689.356Z" transform="translate(-2423.363 -1684.894)" fill="#f4f7fa"/>
          <path id="Path_138" data-name="Path 138" d="M2507.464,1695.017a2.017,2.017,0,0,1-.361,1.055.819.819,0,0,1-.75.284.764.764,0,0,1-.655-.427,1.954,1.954,0,0,1-.113-1.1,2.019,2.019,0,0,1,.36-1.054.8.8,0,0,1,.745-.276.784.784,0,0,1,.658.434A1.914,1.914,0,0,1,2507.464,1695.017Zm-1.661-.165a1.964,1.964,0,0,0,.066.974.57.57,0,0,0,.5.36.6.6,0,0,0,.587-.266,2.071,2.071,0,0,0,.283-.924,2.009,2.009,0,0,0-.062-.948.574.574,0,0,0-.511-.375.589.589,0,0,0-.586.262A2.078,2.078,0,0,0,2505.8,1694.852Z" transform="translate(-2473.64 -1690.155)" fill="#f4f7fa"/>
          <path id="Path_139" data-name="Path 139" d="M2582.137,1702.813a2.015,2.015,0,0,1-.352,1.04.793.793,0,0,1-.729.281.74.74,0,0,1-.635-.42,1.953,1.953,0,0,1-.107-1.082,2.011,2.011,0,0,1,.352-1.039.774.774,0,0,1,.724-.273.755.755,0,0,1,.638.427A1.909,1.909,0,0,1,2582.137,1702.813Zm-1.613-.16a1.967,1.967,0,0,0,.063.959.553.553,0,0,0,.489.354.582.582,0,0,0,.571-.264,2.071,2.071,0,0,0,.276-.91,1.993,1.993,0,0,0-.059-.935.556.556,0,0,0-.5-.369.571.571,0,0,0-.57.259A2.082,2.082,0,0,0,2580.524,1702.653Z" transform="translate(-2544.991 -1697.622)" fill="#f4f7fa"/>
          <path id="Path_140" data-name="Path 140" d="M2632.2,1708.041a2.006,2.006,0,0,1-.346,1.03.774.774,0,0,1-.715.279.722.722,0,0,1-.622-.415,1.943,1.943,0,0,1-.1-1.071,2.011,2.011,0,0,1,.346-1.029.757.757,0,0,1,.71-.271.739.739,0,0,1,.625.422A1.9,1.9,0,0,1,2632.2,1708.041Zm-1.581-.157a1.963,1.963,0,0,0,.06.95.54.54,0,0,0,.479.349.569.569,0,0,0,.56-.261,2.071,2.071,0,0,0,.272-.9,2,2,0,0,0-.056-.925.544.544,0,0,0-.486-.365.558.558,0,0,0-.559.257A2.065,2.065,0,0,0,2630.623,1707.884Z" transform="translate(-2592.83 -1702.628)" fill="#f4f7fa"/>
          <path id="Path_141" data-name="Path 141" d="M2681.281,1713.165a2.009,2.009,0,0,1-.341,1.021.757.757,0,0,1-.7.277.707.707,0,0,1-.61-.411,1.942,1.942,0,0,1-.1-1.06,2.008,2.008,0,0,1,.34-1.019.74.74,0,0,1,.7-.269.723.723,0,0,1,.613.417A1.9,1.9,0,0,1,2681.281,1713.165Zm-1.55-.154a1.955,1.955,0,0,0,.058.94.53.53,0,0,0,.469.346.557.557,0,0,0,.549-.259,2.067,2.067,0,0,0,.268-.893,2,2,0,0,0-.054-.916.532.532,0,0,0-.476-.361.547.547,0,0,0-.549.255A2.072,2.072,0,0,0,2679.731,1713.011Z" transform="translate(-2639.724 -1707.536)" fill="#f4f7fa"/>
          <path id="Path_142" data-name="Path 142" d="M2729.4,1718.191a2,2,0,0,1-.335,1.01.74.74,0,0,1-.688.274.692.692,0,0,1-.6-.406,1.94,1.94,0,0,1-.1-1.05,2.009,2.009,0,0,1,.334-1.009.725.725,0,0,1,.684-.267.708.708,0,0,1,.6.412A1.9,1.9,0,0,1,2729.4,1718.191Zm-1.52-.151a1.949,1.949,0,0,0,.055.931.518.518,0,0,0,.46.342.546.546,0,0,0,.539-.257,2.062,2.062,0,0,0,.263-.885,1.975,1.975,0,0,0-.052-.907.52.52,0,0,0-.466-.357.536.536,0,0,0-.538.253A2.069,2.069,0,0,0,2727.884,1718.04Z" transform="translate(-2685.705 -1712.349)" fill="#f4f7fa"/>
        </g>
        <circle id="Ellipse_3" data-name="Ellipse 3" cx="4.182" cy="4.182" r="4.182" transform="matrix(0.844, -0.537, 0.537, 0.844, 45.647, 14.474)" opacity="0.26" fill="url(#linear-gradient-94)" style="mix-blend-mode: multiply;isolation: isolate"/>
        <g id="Group_39" data-name="Group 39" transform="translate(19.256 14.163)" opacity="0.53">
          <path id="Path_143" data-name="Path 143" d="M2021.106,1423.514a.773.773,0,0,1-1.053-.118.7.7,0,0,1,.119-1.012.773.773,0,0,1,1.052.129A.7.7,0,0,1,2021.106,1423.514Z" transform="translate(-2019.887 -1420.002)" fill="#f4f7fa"/>
          <g id="Group_38" data-name="Group 38" transform="translate(1.571)">
            <path id="Path_144" data-name="Path 144" d="M2085.626,1379.4a.262.262,0,0,1-.139-.471,4.03,4.03,0,0,0,.664-5.659.265.265,0,0,1,.045-.377.275.275,0,0,1,.381.057,4.568,4.568,0,0,1-.75,6.389A.282.282,0,0,1,2085.626,1379.4Z" transform="translate(-2083.995 -1372.84)" fill="#f4f7fa"/>
            <path id="Path_145" data-name="Path 145" d="M2070.391,1392.172a.275.275,0,0,1-.187-.1.266.266,0,0,1,.045-.38,2.953,2.953,0,0,0,.491-4.183.266.266,0,0,1,.044-.38.281.281,0,0,1,.387.055,3.491,3.491,0,0,1-.578,4.924A.284.284,0,0,1,2070.391,1392.172Z" transform="translate(-2069.445 -1386.435)" fill="#f4f7fa"/>
            <path id="Path_146" data-name="Path 146" d="M2054.914,1405.144a.283.283,0,0,1-.188-.1.267.267,0,0,1,.045-.383,1.878,1.878,0,0,0,.315-2.682.267.267,0,0,1,.045-.383.287.287,0,0,1,.394.053,2.41,2.41,0,0,1-.4,3.435A.29.29,0,0,1,2054.914,1405.144Z" transform="translate(-2054.664 -1400.244)" fill="#f4f7fa"/>
          </g>
        </g>
      </g>
      <g id="Group_43" data-name="Group 43" transform="translate(19.697 26.663)">
        <path id="Path_147" data-name="Path 147" d="M2892.133,2980.208l2.249,1.1.384-1.016-1.515-1.272Z" transform="translate(-2853.171 -2918.961)" fill="url(#linear-gradient-95)"/>
        <path id="Path_148" data-name="Path 148" d="M2915.473,3004.6a.331.331,0,0,1,.355-.261.739.739,0,0,1,.474.205c.246.259.173.656.039,1.371-.127.68-.2,1.023-.494,1.227a1.291,1.291,0,0,1-.907.133c-.234-.026-.605-.067-.718-.323a.418.418,0,0,1,.021-.38c.157-.241.533-.091.76-.34.036-.039.063-.083.137-.4C2915.308,3005.095,2915.4,3004.93,2915.473,3004.6Z" transform="translate(-2874.228 -2943.136)" fill="#26264f"/>
        <path id="Path_149" data-name="Path 149" d="M2673.279,2428.038a14.673,14.673,0,0,0-6.1,10.254,14.174,14.174,0,0,0,2.551,9.266,15.06,15.06,0,0,0,7.887,5.782l1.222-1.168a11.036,11.036,0,0,1,2.013-19.769c.207-.464.955-2.277.158-3.681C2679.982,2426.913,2676.608,2426.162,2673.279,2428.038Z" transform="translate(-2638.327 -2391.829)" fill="url(#linear-gradient-96)"/>
        <path id="Path_150" data-name="Path 150" d="M3225.186,3138.076l.214.344c0,.585.01,1.08-.536.867s-1.929-.495-2.238-.621c-.658-.269-1.29-.726-1.344-1.032s1.818,0,2.4.013A5.109,5.109,0,0,1,3225.186,3138.076Z" transform="translate(-3167.45 -3070.283)" fill="#26264f"/>
        <path id="Path_151" data-name="Path 151" d="M3251.547,3091.412l.751,2.837s-.482.285-1.319-.462l-1.234-2.375Z" transform="translate(-3194.628 -3026.278)" fill="url(#linear-gradient-95)"/>
        <path id="Path_152" data-name="Path 152" d="M2722.507,2432.463c.207-.464.955-2.276.158-3.681-.973-1.715-4.055-2.474-7.209-.952.719,2.056.494,3.185.005,3.844-.748,1.008-2.142.969-2.419,2.051-.314,1.224,1.277,2.032.947,3.208-.3,1.055-1.681.776-2.577,2a4.99,4.99,0,0,0,.526,5.679c1.021,1.141,2.149.952,2.787,2.262.5,1.03-.076,1.395.368,2.313.785,1.627,2.94,1.205,4.154,2.892a3.407,3.407,0,0,1,.461.907l.787-.753a11.036,11.036,0,0,1,2.012-19.769Z" transform="translate(-2679.983 -2391.89)" opacity="0.3" fill="url(#linear-gradient-98)" style="mix-blend-mode: multiply;isolation: isolate"/>
        <path id="Path_153" data-name="Path 153" d="M2803.372,2412.677a108.712,108.712,0,0,0,8.72,16.134,73.926,73.926,0,0,0,11.789,13.6,3.114,3.114,0,0,0,2.314-.263,30.688,30.688,0,0,0-1.525-4.89c-2.187-5.382-4.6-6.874-6.836-10.518-4.739-7.723-1.983-14.188-5.181-15.417C2811.367,2410.828,2807.544,2408.478,2803.372,2412.677Z" transform="translate(-2768.42 -2375.858)" fill="url(#linear-gradient-17)"/>
        <path id="Path_154" data-name="Path 154" d="M2726.441,1716.125c.088-.742.058-.435.146-1.177.482.24,6.184,3.207,7.042,9.7a12.868,12.868,0,0,1-5.89,12.41c-8.214-5.952-9.523-7.835-9.185-8.449.516-.936,4.72,1.332,7.783-.876a6.336,6.336,0,0,0,2.26-3.59C2729.723,1720.027,2726.775,1716.511,2726.441,1716.125Z" transform="translate(-2687.387 -1711.994)" fill="url(#linear-gradient-100)"/>
        <path id="Path_155" data-name="Path 155" d="M2103.208,1953.626l1.636-1.18a20.5,20.5,0,0,0,6.855,3.244c3.6.939,5.728.228,10.8-.129,7.538-.53,11.307-.794,14.226.84,4.865,2.722,6.91,8.65,7.5,10.367a37.524,37.524,0,0,1,1.332,5.819c.463,2.649.687,3.987.29,4.626-1.409,2.273-8.351,1.9-12.9-1.622-3.7-2.867-2.74-5.426-6.549-8.357-3.417-2.629-6.023-1.981-10.316-3.436C2112.594,1962.617,2107.9,1960.014,2103.208,1953.626Z" transform="translate(-2099.885 -1938.763)" fill="url(#linear-gradient-101)"/>
        <path id="Path_156" data-name="Path 156" d="M2894.666,1649.545a4.3,4.3,0,0,1,.7,2.606,1.8,1.8,0,0,1-1.2,1.525Z" transform="translate(-2855.117 -1649.545)" fill="url(#linear-gradient-102)"/>
        <path id="Path_157" data-name="Path 157" d="M2034.177,1908.781l-.927-1.16-1.315-1.224s-.4.346.464,1.223a.632.632,0,0,1,.176.548.728.728,0,0,1-.759.61l-2.177.016a4.109,4.109,0,0,0,3.323.864Z" transform="translate(-2029.639 -1894.794)" fill="url(#linear-gradient-103)"/>
        <path id="Path_158" data-name="Path 158" d="M2642.413,1974.362a.2.2,0,0,0-.044.4,14.608,14.608,0,0,0,4.292.7c.214-.051,1.368-.394,1.5-.451.324-.139-.51-.363-.811-.547l-.332-.066a.577.577,0,0,1-.259-.63l.208-.847-1.339-.355-.327.977a1.094,1.094,0,0,1-.991.746Z" transform="translate(-2614.546 -1957.967)" fill="url(#linear-gradient-95)"/>
        <g id="Group_42" data-name="Group 42" transform="translate(30.147 11.745)">
          <g id="Group_41" data-name="Group 41">
            <path id="Path_159" data-name="Path 159" d="M2698.1,1929.949c-.1-.057-.953-.16-1.07-.617a2.223,2.223,0,0,1,.467-1.495c.291-.508.363-.577.5-.663l.188-.11.022-.008a2.159,2.159,0,0,1,.605-.023c.261.062.515,1.134.4,2.639.01.058.019.116.028.175C2699.261,1930,2698.09,1930,2698.1,1929.949Z" transform="translate(-2697 -1926.233)" fill="url(#linear-gradient-105)"/>
            <path id="Path_160" data-name="Path 160" d="M2702.946,1910.271a1.987,1.987,0,0,0,.659.709.757.757,0,0,1,.165.188.211.211,0,0,1,.026.056c.1.3-.38.632-.293.766.063.1.384-.024.42.06s-.234.233-.2.327c.029.071.193.01.293.12.05.055.033.1.084.262a1.458,1.458,0,0,0,.1.253c.155.278.61.388.7.281.026-.03,0-.056.032-.158a.818.818,0,0,1,.094-.2,2.123,2.123,0,0,1,.563-.423,1.512,1.512,0,0,0,.592-.644l.011-.027c.006-.015.011-.03.016-.045a.966.966,0,0,0-.288-.818,4.347,4.347,0,0,0-1-.859c-.13-.081-1.393-.861-1.856-.475A.626.626,0,0,0,2702.946,1910.271Z" transform="translate(-2702.646 -1909.534)" fill="#26264f"/>
            <path id="Path_161" data-name="Path 161" d="M2715.869,1960.217c.118-.155.315,0,.312.2s-.205.411-.4.366S2715.71,1960.425,2715.869,1960.217Z" transform="translate(-2714.843 -1957.867)" fill="url(#linear-gradient-106)"/>
          </g>
        </g>
        <path id="Path_162" data-name="Path 162" d="M2248.472,2119.943c-1.2-1.459.572-4.339-1.122-6.03-1.229-1.226-2.619-.166-4.347-1.4-2.3-1.643-.991-4.732-3.085-5.609-2.213-.927-4.19,1.229-7.011.14-1.86-.718-1.529-1.858-3.365-2.945-3.185-1.885-6.021.456-10.377-.14a10.9,10.9,0,0,1-2.452-.635,23.081,23.081,0,0,0,7.75,4.538c4.292,1.454,6.9.807,10.316,3.435,3.809,2.931,2.847,5.491,6.549,8.358,4.553,3.526,11.494,3.9,12.9,1.622a2.144,2.144,0,0,0,.2-1.2C2250.8,2121.12,2249.16,2120.778,2248.472,2119.943Z" transform="translate(-2208.261 -2082.823)" opacity="0.3" fill="url(#linear-gradient-95)" style="mix-blend-mode: multiply;isolation: isolate"/>
      </g>
    </g>
  </g>
</svg>
